<svg xmlns="http://www.w3.org/2000/svg" viewBox="0 0 8.467 4.233" height="16" width="32"><g transform="translate(0 -292.767)"><circle r=".926" cy="294.96" cx="4.206" style="marker:none"/><path d="M3.123 295.934a1.457 1.457 0 0 1-.042-1.9M2.34 296.316a2.308 2.308 0 0 1 .034-2.759M1.635 296.711a3.11 3.11 0 0 1 .037-3.555M5.282 295.934a1.457 1.457 0 0 0 .043-1.9M6.066 296.316a2.308 2.308 0 0 0-.035-2.759M6.77 296.711a3.11 3.11 0 0 0-.037-3.555" style="marker:none" fill="none" stroke="#000" stroke-width=".441"/></g></svg>