<svg xmlns="http://www.w3.org/2000/svg" viewBox="0 0 16.7 12.4" height="47" width="63"><path d="M3 9.5v1.7" fill="none" stroke="#159cd0" stroke-width="1.8" stroke-linecap="round"/><path d="M7.1 10c-.4.8-1.2 0-3 0s-2.4.9-3 0c-.4-.7 1-2 3-2 1.9 0 3.5 1.3 3 2z"/><path d="M.9 5.6c.5.8 1.4.8 1.9 0M5.5 5.6c.5.8 1.4.8 1.9 0" fill="none" stroke="#000" stroke-width=".8" stroke-linecap="round"/><path d="M7.6 1.5l2-.5-1.2 3 1.9-.5" fill="none" stroke="#000" stroke-width=".7" stroke-linecap="round" stroke-linejoin="round"/><path d="M11.4 1.1l1.5-.3-1 2.2 1.4-.3" fill="none" stroke="#000" stroke-width=".5" stroke-linecap="round" stroke-linejoin="round"/><path d="M14.6.8l1.1-.2-.8 1.7 1-.2" fill="none" stroke="#000" stroke-width=".4" stroke-linecap="round" stroke-linejoin="round"/></svg>
