<svg xmlns="http://www.w3.org/2000/svg" viewBox="0 0 16.93 16.93" height="64" width="64"><circle r="6.64" cy="288.57" cx="8.32" transform="translate(0 -280.07)" fill="#ffcc4d"/><path d="M5.7 12.49s-.5-.18-.36-.71c.14-.54.66-.4.66-.4l4.4 1.02s.1.03.15-.02c.05-.06.02-.14-.06-.22-.08-.07-.6-.6-.32-1.68.27-1.08.96-1.24 1.21-1.17.25.07.36.33.25.72-.1.38-.18.69-.03 1.17.14.47.55.7.77.92.21.22 1.04 1.03.87 2.13-.17 1.1-.86 2.13-1.9 2.42-.82.22-1.11.17-1.84.04a4.74 4.74 0 0 1-1.03-.27c-.24-.1-.53-.24-.52-.6 0-.36.27-.41.27-.41s-.51-.16-.49-.62c.03-.46.36-.52.36-.52s-.45-.17-.43-.7c.02-.46.4-.52.4-.52z" fill="#f4900c"/><path d="M6.53 10.53c.8-.64 1.63-.9 2.85-.76M4.15 5.99a3.83 3.83 0 0 1 2.92-.2M8.61 4.24c1-.48 2.14-.36 2.94 0" fill="none" stroke="#664500" stroke-width=".71" stroke-linecap="round"/><ellipse ry="1.04" rx=".84" cy="6.27" cx="10.17" fill="#664500"/><ellipse cx="5.78" cy="6.68" rx=".84" ry="1.04" fill="#664500"/></svg>
