<svg width="64" height="64" viewBox="0 0 16.93 16.93" xmlns="http://www.w3.org/2000/svg"><g fill="#ffd247" stroke-width=".01"><path d="M7.6 12.3l.03.19h.1l-.13-.28a.7.7 0 0 0 0 .09zM7.11 11.5c.08 0 .15.04.2.1.05.1.05.2.04.3l-.05.36-.04.3h.26a1.03 1.03 0 0 1 0-.4c-.03-.08-.08-.15-.12-.22a.3.3 0 0 1 0-.3l.07-.13.04-.06.03-.02a.06.06 0 0 1-.03-.05v-.2c-.11 0-.23-.02-.34-.05-.02.12-.03.24-.08.34l.02.03zM8.67 12.1c.06-.17.14-.33.19-.5l.12-.45a1.08 1.08 0 0 1-.4-.11 6.85 6.85 0 0 0-.22.54l.06.1.25.42zM8.77 12.1c-.01.02-.04.03-.06.03l.17.31a9.52 9.52 0 0 1 .18-1l.03-.11c.01-.04.04-.05.07-.06l.07-.02a1.06 1.06 0 0 1-.06-.05l-.08-.07a4.36 4.36 0 0 1-.32.97zM8.8 12.5c-.11-.15-.21-.32-.31-.48-.11-.18-.23-.35-.33-.53l-.4-.02c.22.33.41.68.58 1.04l.47-.01z"/><path d="M7.57 12c.1.18.2.38.28.58l.33-.01h.03c-.18-.37-.4-.73-.63-1.07l-.02.07-.07.14c-.04.11.02.2.08.29zM6.96 12.6h.18c0-.1.02-.18.03-.27l.04-.29c.02-.11.08-.4-.09-.43a3.26 3.26 0 0 1-.16.99zM6.01 11.6l-.3.09a4.6 4.6 0 0 1 .4.82l.28.03c-.1-.33-.32-.6-.38-.94zM6.45 12.3l.02-.24a.75.75 0 0 1-.14-.4c-.06-.03-.1-.08-.15-.1a.14.14 0 0 0-.05-.02c.02.3.2.56.31.83l.01-.07zM7.05 11.1l-.04.04-.09.1-.12.14.21.07c.03-.12.06-.23.04-.35zM6.92 12.4a5 5 0 0 0 .07-.8 1.67 1.67 0 0 0-.38-.11l-.01.57-.02.32-.02.24.32-.02c0-.07.03-.13.04-.2z"/></g><path d="M7.05 13.5c-.1-.21-.2-.42-.28-.64a5.2 5.2 0 0 1-.5-.02l.08.23a83.02 83.02 0 0 0 .57 1.74c.06.19.12.38.2.56.02.07.09.06.15.06h.28c-.06-.43-.06-.87-.2-1.27-.08-.23-.2-.44-.3-.66z" fill="#f36e4e"/><path d="M9.09 12l-.07.46h.12l.08-.25a32.1 32.1 0 0 0 .26-.95l-.07.04-.2.1-.13.6z" fill="#ffd247"/><path d="M15.35 11.1a.5.5 0 0 1-.04-.21v-.1l-.04.03-.07.09a.4.4 0 0 1-.17.11.46.46 0 0 1-.4-.05.39.39 0 0 1-.1-.1.67.67 0 0 1-.34.29c-.2.07-.4.02-.58-.04a.6.6 0 0 1-.38-.36.73.73 0 0 1 .02-.61.59.59 0 0 1-.23.05c-.15 0-.28-.07-.39-.19l-.14-.15c-.03-.03-.07-.05-.1-.04-.1.03-.17.16-.25.23-.11.1-.28.15-.41.06a.45.45 0 0 1-.1-.09 2.33 2.33 0 0 0 .72 2.2c.15.12.32.2.5.25a9.75 9.75 0 0 0 1.2.27c.36.03.7-.03 1.03-.21.5-.29.84-.76 1-1.3l-.02.02c-.21.13-.6.1-.71-.15z" fill="#d8974f"/><g stroke-width=".02"><path d="M7 6.8c-.08-.06-.23-.06-.26.04-.04.09-.15.13-.22.06l-.15-.15-.34.2c-.06.04-.13.01-.17-.04a.97.97 0 0 1-.14-.35.44.44 0 0 1-.25-.09l-.02.03c.02-.02 0 .03 0 .05l-.02.1-.02.2a8.92 8.92 0 0 0-.02.86A4.94 4.94 0 0 1 7 6.8z" fill="#ffd14c"/><path d="M7.57 8.5c.57-.06 1.14-.1 1.7-.14.58-.03 1.14-.03 1.7-.05.22 0 .48-.04.6-.24.05-.07.08-.15.05-.22a2.36 2.36 0 0 0-.18-.1l-.25.03-.38.02-.76.04-1.55.08-1.56.07c-.44.03-.91.05-1.34-.1l-.15.13c-.02.1.02.23.09.32.1.16.27.25.46.29.23.04.48 0 .72-.03l.85-.1zM5.72 5.8c.13.1.3.15.46.18l.54.04c1.14.06 2.28-.04 3.4-.15.26-.03.51-.06.75-.14.18-.06.45-.15.42-.38-.02-.19-.18-.36-.33-.45-.18-.1-.38-.17-.58-.21-.49-.1-1-.12-1.51-.1a8.82 8.82 0 0 0-2.38.36c-.23.06-.47.12-.66.27-.13.1-.24.26-.22.43.02.06.07.1.11.15z" fill="#d8974f"/></g><path d="M11.64 6.8v-.02.02z" fill="#ffd247"/><path d="M5.8 6.3c.09-.02.16.04.16.12 0 .09.03.17.06.24l.3-.18a.13.13 0 0 1 .16.02l.12.11a.47.47 0 0 1 .62.02l.18-.14c.05-.04.1-.05.16-.02.09.04.16.1.23.15h.05c.08-.08.2-.14.33-.14a.5.5 0 0 1 .33.16l.1-.12c.05-.05.12-.05.17-.02l.27.12a.56.56 0 0 1 .69-.03.7.7 0 0 1 .76-.17l.07-.13c.05-.07.17-.1.22-.02.05.05.1.08.17.07.06 0 .11-.07.16-.1a.31.31 0 0 1 .28-.04.47.47 0 0 1 .08-.04c.05-.02.11-.03.16-.06l.02-.02v-.02a.71.71 0 0 0-.07-.1l-.14-.2a.75.75 0 0 1-.23.17c-.48.23-1.03.25-1.55.3-.57.05-1.14.1-1.7.12-.57.02-1.14.02-1.7-.04-.25-.03-.52-.08-.7-.25-.02 0-.03-.02-.03-.02a.2.2 0 0 0 .02.17c.06.08.16.12.25.09z" fill="#8abc41"/><path d="M7.96 14.1l-.12-.7-.1-.6-.54.01-.29.03h-.05c.12.2.22.4.33.62.1.2.23.41.3.63.08.23.11.47.14.7.02.2.06.4.07.6l.4-.01-.04-.57-.1-.7z" fill="#f36e4e"/><path d="M15.32 10.7z" fill="#ffd247"/><path d="M16.11 9.6a2.1 2.1 0 0 0-.3-.47 7.61 7.61 0 0 0-.37-.43 1.72 1.72 0 0 0-.42-.34 1.6 1.6 0 0 0-.55-.16l-.6-.06h-.16c-.63.1-1.24.41-1.64.92-.14.17-.25.37-.33.57-.01.1.05.29.17.25.1-.03.17-.17.25-.24.11-.1.26-.14.4-.07.13.07.2.19.3.28.1.09.21.07.33.02.15-.08.28-.17.44-.23.25-.08.52 0 .7.17a.9.9 0 0 1 .12.1c.06.08.12.15.16.24.03.09.04.19.04.29.01.14.03.29.18.32.05.01.11.01.16-.01.05-.03.08-.08.12-.13.05-.06.12-.13.2-.13.08 0 .16.04.2.11.03.07.03.15.03.23 0 .05 0 .09.03.13.06.07.18.09.27.08.19-.03.3-.19.36-.36.03-.17.03-.34.03-.5-.01-.2-.04-.4-.12-.58z" fill="#f36e4e"/><path d="M11.31 1.8c.4.08.81.15 1.21.24.86.2 1.7.43 2.52.77l.3.14c-.03-.3-.28-.52-.55-.65-.19-.1-.39-.17-.59-.25a13.33 13.33 0 0 0-3.17-.76c-.19-.02-.42-.07-.59.03a.63.63 0 0 0-.23.3 34.12 34.12 0 0 1 1.1.17z" fill="#d8974f"/><g fill="#f36e4e"><path d="M8.5 13.4l-.02-.34c-.01-.1-.03-.21-.02-.31h-.28l-.34.02a22.9 22.9 0 0 1 .37 2.02l.05.56.31-.02a26.6 26.6 0 0 0-.07-1.93zM14.46 3.1l.06.02.3.13c.3.13.58.29.72.56l.02.07c.05.08.08.18.08.27.15-.1.18-.35.13-.52-.1-.27-.38-.43-.62-.55a11 11 0 0 0-1.74-.6c-.85-.24-1.71-.4-2.58-.56-.2-.03-.41-.08-.62-.09-.17 0-.38.03-.48.19-.08.13-.1.3 0 .43.08.12.23.22.38.22a.52.52 0 0 1 .15-.2c.18-.14.4-.13.62-.12a10.75 10.75 0 0 1 3.58.75zM9.12 13c0-.09 0-.2.02-.29l-.2.01h-.02l-.35.02c.03.1.03.2.04.31l.04.34a17.33 17.33 0 0 1 .05 1.92l.25-.03a30.07 30.07 0 0 0 .16-1.94l.01-.34z"/></g><path d="M9.44 12c-.06.18-.1.36-.18.53l.4-.01.23-1.11-.26-.05-.19.64z" fill="#ffd247"/><path d="M14.88 3.6a4.73 4.73 0 0 0-1.18-.44l-1.33-.35a11.63 11.63 0 0 0-1.59-.15c-.16 0-.38 0-.44.19-.12.39.33.7.6.87.65.42 1.4.63 2.15.75.39.06.77.1 1.16.13.2.02.41.05.61.03.17-.01.37-.06.47-.2.23-.35-.2-.68-.45-.83z" fill="#d8974f"/><path d="M9.25 12.9v.51a16.86 16.86 0 0 1-.15 1.9l.2-.01c.06-.87.21-1.72.42-2.56l-.48.02v.14zM8.75 6.7h-.01l-.16.18c-.07.08-.2.03-.23-.07a.2.2 0 0 0-.37 0c-.03.1-.16.14-.23.06l-.1-.1a4.99 4.99 0 0 0-1.01.4c-.3.14-.6.32-.87.53.41 0 .83-.03 1.24-.05l1.52-.08 1.52-.08c.26 0 .51-.02.76-.03h.04c-.2-.07-.42-.11-.63-.16a7.36 7.36 0 0 1-1.12-.35l-.16-.1c-.06-.04-.12-.1-.19-.1-.01 0-.03-.02-.02-.03l.02-.02z" fill="#f36e4e"/><path d="M11.52 6.4c-.05.1-.18.08-.23 0l-.03.02-.08.06a.44.44 0 0 1-.46.04l-.06.1c-.04.07-.13.1-.2.06a.4.4 0 0 0-.6.15c-.04.1-.19.08-.24 0-.08-.15-.33-.17-.42-.03l-.01.01.24.07c.27.08.55.14.83.2a4.9 4.9 0 0 1 1.39.43c.05-.4.07-.8.04-1.2l-.06.03c-.04.01-.09.02-.11.06z" fill="#ffd14c"/><path d="M15.58 4.4h.05c.37-.11.5-.56.37-.9a1.02 1.02 0 0 0-.41-.48c.04-.41-.25-.76-.59-.96A15 15 0 0 0 11.24 1c-.29-.04-.6-.11-.88.02-.2.09-.36.32-.33.54a.75.75 0 0 0-.46.21.66.66 0 0 0-.17.5c.01.18.11.35.26.45.13.08.27.09.41.06a.66.66 0 0 0-.01.17c.02.43.45.72.78.94.32.2.67.36 1.04.48a9.9 9.9 0 0 0 2.3.4c.38.04.84.12 1.18-.12.1-.07.17-.15.22-.25zm-5.37-2.85a.63.63 0 0 1 .24-.3c.17-.1.4-.06.58-.03a13.97 13.97 0 0 1 3.77 1c.26.13.51.36.55.66l-.31-.14c-.81-.34-1.66-.58-2.51-.77-.4-.1-.81-.17-1.22-.25l-.62-.1c-.16-.04-.32-.07-.48-.07zm.05.9a.49.49 0 0 0-.15.2c-.15 0-.3-.1-.38-.22-.1-.13-.08-.3 0-.43.1-.16.3-.19.48-.19.2 0 .42.06.62.1.86.15 1.73.31 2.58.54.59.17 1.18.36 1.74.62.24.11.53.27.62.54.05.17.02.42-.13.53 0-.1-.03-.2-.08-.28l-.03-.06c-.13-.28-.42-.44-.7-.56l-.31-.14-.06-.02a10.39 10.39 0 0 0-3.58-.75c-.21 0-.44-.02-.62.12zm4.6 2.1a15.62 15.62 0 0 1-1.77-.17 5.47 5.47 0 0 1-2.14-.73c-.28-.18-.73-.48-.61-.88.06-.19.28-.19.44-.18a14.04 14.04 0 0 1 1.59.15c.44.1.89.22 1.33.35.4.1.82.22 1.18.44.26.15.68.48.45.82-.1.15-.3.2-.47.2zM7.03 8.8a34.5 34.5 0 0 1 3.41-.25c.45 0 1.02.07 1.33-.32.11-.13.15-.3.1-.46l.01-.02a6.18 6.18 0 0 0 .03-1.56l-.02-.05a.31.31 0 0 0 0-.29c-.04-.1-.13-.18-.22-.26l-.1-.1a.6.6 0 0 0 .02-.18c0-.23-.14-.45-.3-.6-.32-.29-.78-.37-1.2-.42a9.16 9.16 0 0 0-3.96.43c-.14.05-.28.1-.4.18-.19.1-.34.26-.4.49-.03.15 0 .3.1.43a.43.43 0 0 0-.08.4l.03.04c-.12.05-.14.2-.16.3a4.53 4.53 0 0 0-.09 1.36c0 .09.07.14.14.15-.03.23.1.49.29.63.19.15.45.19.7.19.25 0 .51-.06.77-.09zm4.67-2.51c.03.4 0 .8-.05 1.2a14.76 14.76 0 0 1-2.46-.7v-.02c.1-.14.36-.11.44.03.05.08.2.1.24 0 .1-.23.4-.3.6-.15.06.05.16.01.2-.05.01-.03.03-.07.06-.1.07.03.16.05.25.04a.43.43 0 0 0 .2-.08l.08-.07.03-.01c.06.07.18.1.23 0 .02-.04.07-.05.12-.07l.06-.02zm-2.95.46c.07 0 .13.07.19.1a1.97 1.97 0 0 0 .51.25c.25.09.51.15.77.2l.63.16h-.04l-.76.04-1.52.07-1.52.09c-.42.02-.83.05-1.24.04a5.3 5.3 0 0 1 1.88-.92l.1.1c.07.08.2.03.23-.06a.2.2 0 0 1 .37 0c.03.1.16.14.23.06l.16-.18v.02c-.02.01 0 .03.01.03zm2.52-.41v0zm-5.44-1.2c.19-.14.43-.2.66-.26a8.2 8.2 0 0 1 2.38-.37 7.2 7.2 0 0 1 1.51.11c.2.04.4.1.58.2.15.1.31.27.33.46.03.23-.25.32-.42.38-.24.08-.5.11-.74.14-1.13.1-2.27.21-3.41.15-.18 0-.36-.02-.54-.04a.88.88 0 0 1-.45-.18.5.5 0 0 1-.12-.15c-.02-.17.09-.33.22-.43zm-.3.81l.02.02c.2.18.46.22.7.25.57.07 1.14.06 1.7.04.57-.02 1.14-.07 1.71-.12.52-.05 1.07-.07 1.55-.3.09-.04.17-.1.23-.17l.14.2.07.1V6l-.02.02-.16.07a.47.47 0 0 0-.08.04.31.31 0 0 0-.28.03c-.05.03-.1.1-.16.1-.07.02-.12-.02-.17-.07-.05-.07-.17-.04-.22.03l-.07.13a.7.7 0 0 0-.76.16.56.56 0 0 0-.69.03l-.27-.12c-.05-.02-.12-.03-.17.02l-.1.12a.5.5 0 0 0-.34-.15.44.44 0 0 0-.32.14h-.05a1.3 1.3 0 0 0-.23-.16c-.06-.03-.11-.02-.16.02l-.18.15a.47.47 0 0 0-.62-.02 6.9 6.9 0 0 0-.12-.12c-.04-.04-.1-.05-.16-.02l-.3.18a.7.7 0 0 1-.06-.23c0-.08-.07-.15-.16-.13-.09.03-.2 0-.24-.08a.2.2 0 0 1-.04-.18zm-.14 1.2a6.77 6.77 0 0 1 .05-.6l.01-.09c0-.02.03-.07 0-.05a.1.1 0 0 0 .03-.03c.07.06.16.09.25.1.02.11.06.23.13.34.04.05.12.08.18.04l.33-.2.15.14c.08.08.18.04.22-.05.04-.1.19-.1.27-.04a5.4 5.4 0 0 0-1.61.9 4 4 0 0 1-.01-.46zm.6 1.42a.68.68 0 0 1-.45-.28.48.48 0 0 1-.1-.33l.16-.13c.43.15.9.13 1.34.1l1.56-.07 1.55-.08.77-.04.38-.02c.08 0 .16-.02.24-.04l.18.1c.03.09 0 .17-.04.24-.12.2-.39.22-.6.23-.57.02-1.13.02-1.7.06a34.88 34.88 0 0 0-2.56.23c-.24.04-.48.07-.72.03z" fill="#601511"/><path d="M3.58 9.52c-.07 0-.18.01-.22.08-.02.04-.03.08-.02.11.13-.02.26.04.31.16.05.11 0 .23-.08.3h.13c.08 0 .18-.01.2-.1 0-.06-.07-.11-.09-.17-.04-.12.08-.21.18-.26-.06-.12-.3-.12-.41-.12z" fill="#d8974f"/><path d="M2.31 10.29a.3.3 0 0 0-.35.21c.2-.01.37.02.56.1 0-.14-.08-.28-.2-.31z" fill="#f36e4e"/><path d="M3.4 10.72c-.1-.06-.26-.05-.37 0-.05.01-.25.1-.16.2a.2.2 0 0 0 .07.04H3l.1.02c.05 0 .08.03.08.07v.02c.07.07-.02.2 0 .28 0 .07.1.01.12-.01a.17.17 0 0 0 .05-.13c0-.1-.1-.19-.06-.28.02-.06.05-.1.1-.12.03 0 .05 0 .05-.03a.06.06 0 0 0-.03-.06z" fill="#d8974f"/><path d="M2.17 11.15H2.08a.3.3 0 0 0-.21.4c.11.15.34.16.45-.01.05-.08.09-.2.03-.29a.24.24 0 0 0-.18-.1z" fill="#f36e4e"/><path d="M4.57 9.72a2.85 2.85 0 0 0-.44-.51c-.13-.1-.26-.19-.4-.27a2.28 2.28 0 0 0-1.19-.43c-.1 0-.22 0-.32-.03-.2.77-.43 1.54-.65 2.31l-.2.7-.1.37c-.03.1-.07.22-.08.33 0 .08 0 .2.09.24.06.03.1.01.14-.03.09-.11.14-.27.27-.33.2-.08.32.13.33.3 0 .22-.05.44-.1.65-.04.28-.07.68.18.86.14-.2.13-.48.1-.72-.01-.27-.07-.57.02-.84.08-.24.28-.43.55-.4.18.01.35.12.44.29.03-.04.04-.1.04-.14 0-.1-.08-.16-.1-.25-.03-.1 0-.19.06-.27l.02-.03c-.04 0-.09 0-.12-.03a.18.18 0 0 1-.07-.16v-.05-.15c-.1 0-.22-.02-.29-.1a.26.26 0 0 1 .02-.36.64.64 0 0 1 .45-.16c.14 0 .34.04.38.2.03.06.02.14-.03.2a.19.19 0 0 1-.08.05c-.04.01-.03.02-.02.06.02.05.04.1.04.16l.13-.14c.13-.12.34-.22.52-.11.15.09.17.26.18.42 0 .04.01.11.05.12.04 0 .08-.07.09-.1.05-.16-.12-.34-.14-.5a.63.63 0 0 1 .15-.52c.1-.12.23-.21.36-.29-.14-.05-.2-.22-.28-.34zm-2.11 1.92a.45.45 0 0 1-.43.19.44.44 0 0 1-.33-.29.36.36 0 0 1 .03-.3.43.43 0 0 1 .34-.27c.17-.02.36.05.44.2.08.16.04.34-.05.47zm.18-.93c-.02.05-.06.07-.1.04-.19-.09-.4-.15-.6-.18-.03.06-.14.05-.13-.03.03-.24.27-.45.52-.39.24.06.39.33.3.56zm0-1.2a.4.4 0 0 1-.49-.45c.05-.25.34-.44.57-.28.02 0 .02.03.01.04l.07.05c.2.2.12.57-.16.64zm1.47.27c-.04 0-.1.02-.13.04-.04.03-.01.06 0 .1.05.04.07.1.06.17-.03.14-.15.22-.3.23-.1.01-.32.02-.32-.15 0-.07.04-.12.07-.18.02-.03.04-.06 0-.09a.07.07 0 0 0-.08 0c-.02 0-.05 0-.06-.02a.08.08 0 0 1-.08 0c-.1-.07-.13-.2-.09-.31.06-.14.19-.2.32-.22.26-.02.65.02.67.34 0 .04-.03.08-.06.09z" fill="#ffd14c"/><path d="M5.26 9.87l-.05.05a.27.27 0 0 0 .05-.05z" fill="#ffd247"/><path d="M5.26 9.56c-.06-.11-.14-.2-.22-.3l-.2-.27c-.12-.16-.25-.32-.39-.47s-.3-.27-.48-.36c-.2-.1-.41-.16-.62-.22-.2-.06-.42-.12-.63-.12-.17 0-.39.04-.49.2-.03.05-.06.12-.02.19.04.05.11.06.17.07.2.01.38 0 .57.05.23.06.44.15.64.27l.1.05a2.83 2.83 0 0 1 .95.8l.1.15.14.23c.02.02.04.05.07.03l.11-.1c.03-.03.22-.17.2-.2z" fill="#d8974f"/><path d="M2.66 8.96a.24.24 0 0 0-.3 0 .24.24 0 0 0-.04.12c-.01.15.11.3.28.25.14-.05.18-.27.06-.37z" fill="#f36e4e"/><g fill="#601511"><path d="M5.41 9.4l-.12-.16a.54.54 0 0 1-.02-.04l-.02-.01a2.73 2.73 0 0 1-.06-.08c-.25-.34-.5-.69-.82-.95-.34-.27-.77-.4-1.19-.5-.39-.1-.87-.13-1.14.22a.38.38 0 0 0-.02.46c-.27.92-.5 1.86-.77 2.79l-.2.7c-.05.21-.13.44-.02.65.08.16.3.24.46.14.12-.08.17-.23.27-.33l.01-.02c.02.02.02.05.03.07.02.08 0 .2-.01.28-.03.22-.09.42-.1.64-.03.32.08.7.39.85.03.01.09.02.12-.02.35-.42.17-.98.18-1.47 0-.19.06-.47.28-.5.1 0 .19.02.26.07l.01.05c.01.06.02.12.05.17.05.11.21.1.3.05.1-.06.14-.15.15-.25a.47.47 0 0 0 .03-.12.45.45 0 0 0-.07-.25c-.02-.03-.05-.07-.04-.1 0-.06.06-.1.09-.14l.22-.26c.07-.08.13-.16.22-.2.06-.04.13-.04.18 0 .05.04.04.13.05.18 0 .16.04.32.22.38s.33-.12.38-.27c.06-.2-.07-.38-.13-.55-.06-.17.03-.33.13-.46.08-.11.18-.2.29-.3.16.03.32 0 .43-.14.1-.13.1-.28.04-.41a.33.33 0 0 0-.06-.17zM3.4 10.81a.17.17 0 0 0-.1.12c-.04.1.05.19.05.29 0 .04-.02.08-.05.12-.02.02-.12.08-.13.01 0-.07.08-.2.02-.28v-.01c0-.05-.03-.08-.08-.08l-.1-.01a.7.7 0 0 0-.06-.01.21.21 0 0 1-.08-.05c-.09-.08.11-.18.17-.2.11-.04.26-.05.37.01.02.01.04.04.04.06 0 .02-.03.03-.05.03zm1.08-.46a.63.63 0 0 0-.15.52c.03.17.2.34.14.51 0 .02-.05.1-.08.1-.04-.01-.05-.09-.05-.13-.02-.16-.03-.33-.19-.42-.17-.1-.38 0-.51.11l-.13.14c0-.05-.03-.1-.04-.16-.02-.04-.02-.04.01-.06a.2.2 0 0 0 .09-.05c.05-.06.05-.14.03-.2-.05-.16-.25-.2-.38-.2a.64.64 0 0 0-.45.16c-.1.1-.11.26-.02.36.06.08.19.1.29.1a.58.58 0 0 1 0 .2c-.01.06.01.13.06.16.04.03.08.04.12.03l-.02.03a.31.31 0 0 0-.06.27c.02.09.1.16.1.25a.2.2 0 0 1-.04.14.57.57 0 0 0-.44-.29c-.27-.03-.47.16-.55.4-.08.27-.03.57 0 .85.01.24.02.5-.11.72-.25-.19-.23-.58-.18-.86.04-.22.1-.44.09-.66 0-.16-.13-.38-.32-.3-.14.07-.19.22-.28.33-.04.04-.08.07-.14.04-.08-.05-.1-.16-.08-.25 0-.1.05-.22.08-.32l.1-.37.2-.7.65-2.32c.1.03.22.03.32.03.44 0 .83.2 1.2.43l.39.27.08.08c.13.13.25.28.35.44.08.11.15.29.28.34-.13.07-.26.17-.36.28zm.58-.6l-.11.11c-.03.02-.05-.01-.07-.04l-.14-.22-.1-.15a2.88 2.88 0 0 0-.95-.81l-.1-.04a2.4 2.4 0 0 0-.64-.27c-.2-.05-.38-.04-.57-.06-.06 0-.14-.02-.17-.07-.05-.06-.01-.13.02-.18.1-.16.32-.2.49-.2.21 0 .42.05.63.11.2.06.42.13.61.22.19.1.35.23.49.37s.27.3.4.47l.2.27c.06.1.15.19.2.3.03.03-.16.17-.19.2zm.15.17l.05-.05a.2.2 0 0 1-.05.05z"/><path d="M2.73 8.82v-.04c-.24-.16-.53.03-.58.28a.4.4 0 0 0 .5.45c.27-.07.35-.45.15-.64a.26.26 0 0 0-.07-.05zm-.13.51c-.17.06-.29-.1-.28-.25 0-.04.01-.09.04-.12a.25.25 0 0 1 .3 0c.12.1.08.32-.06.37zM2.07 10.97a.43.43 0 0 0-.34.27.36.36 0 0 0-.03.3c.05.15.18.26.33.29.17.03.33-.06.43-.19.1-.13.13-.31.05-.46-.08-.16-.27-.23-.44-.2zm.25.57c-.11.17-.34.15-.45 0a.3.3 0 0 1 .2-.39h.1c.07 0 .14.04.18.1.06.09.02.2-.03.29zM3.5 9.36c-.13.01-.26.08-.31.21-.05.12-.02.24.08.31.02.02.06.02.08 0 .01.02.04.03.07.02.02-.02.05-.02.08 0 .03.03.01.06 0 .09-.04.06-.08.1-.08.19 0 .16.22.16.33.15.14-.02.26-.1.29-.24a.21.21 0 0 0-.05-.17c-.02-.03-.05-.06-.01-.1.03-.02.09-.03.13-.04.04 0 .07-.04.06-.08-.02-.33-.41-.37-.66-.34zm.3.54c.03.06.1.1.1.17-.03.08-.12.1-.2.1h-.13c.08-.07.12-.2.08-.3-.05-.12-.19-.18-.31-.16-.01-.03 0-.07.02-.1.04-.08.14-.09.21-.09.12 0 .35 0 .42.12-.1.05-.22.13-.18.26zM2.33 10.15c-.25-.06-.5.15-.52.39 0 .08.1.09.13.03.2.03.41.09.6.18.04.02.08 0 .1-.04a.44.44 0 0 0-.3-.56zm-.37.35a.3.3 0 0 1 .35-.21c.13.03.21.17.2.3-.18-.07-.36-.1-.55-.09z"/></g><path d="M9.98 11.2c-.13 0-.26-.03-.38-.08-.04-.01-.08.01-.1.05l-.1.03-.03.01c-.05-.05-.1-.07-.15-.1l-.11-.06a.06.06 0 0 0-.06-.05 1 1 0 0 1-.47-.13c-.02-.02-.06-.01-.07.02-.08.18-.15.36-.2.55l-.01-.01c-.02-.03-.04-.08-.07-.1h-.1l-.48-.03v-.23a.07.07 0 0 0-.07-.07c-.15 0-.3-.02-.45-.05a.06.06 0 0 0-.08.05c-.03 0-.05.02-.08.04l-.12.09a1 1 0 0 0-.18.17l-.13-.02c-.03 0-.06.03-.06.07v.46a.92.92 0 0 1-.03-.2.06.06 0 0 0-.04-.05c-.1-.03-.16-.13-.27-.12a.14.14 0 0 0-.07.03h-.02l-.44.13c-.04.02-.06.06-.04.1.17.28.32.57.47.85-.03.03-.04.08-.03.12.23.77.48 1.55.76 2.32l.1.27c.02.09.05.18.11.24.06.07.15.08.24.09l.3-.01 1.22-.08.24-.03a29.68 29.68 0 0 0 .42-.05c.06 0 .1-.04.1-.1.07-.93.23-1.84.47-2.74.02-.06-.03-.14-.1-.13H9.8l.24-1.16a.08.08 0 0 0-.07-.09zm-.57.1c.02 0 .05-.01.07-.03l-.16.6-.1.35-.07.25h-.13l.07-.46c.03-.2.08-.4.13-.6l.19-.1zm-.32-.15l.08.06.06.05-.07.02c-.03.02-.06.02-.07.06a2.83 2.83 0 0 0-.08.35l-.09.47-.04.3-.17-.32c.02 0 .05 0 .06-.03a4.5 4.5 0 0 0 .32-.97zm-.72.38c.06-.18.13-.36.21-.53.12.06.26.1.4.12l-.12.44-.2.5-.24-.42-.06-.1v-.01zm-.22-.06l.34.53c.1.16.2.33.31.48l-.46.01c-.17-.36-.36-.7-.58-1.04l.4.02zm-.57-.04c.23.34.44.7.63 1.07h-.36c-.08-.2-.17-.39-.28-.57-.06-.1-.12-.18-.08-.3l.06-.13a.14.14 0 0 0 .03-.07zm.15 1.08h-.1c-.01-.06-.03-.12-.03-.19v-.1.02l.13.27zm-.56-1.41c.11.02.23.04.35.04v.2c0 .02 0 .04.02.05l-.02.02-.04.06-.08.13a.3.3 0 0 0 0 .3l.13.22c-.02.12-.03.27 0 .4h-.27l.05-.3.04-.36c.02-.1.01-.2-.04-.29a.22.22 0 0 0-.2-.1.05.05 0 0 0-.02-.03c.05-.11.07-.23.08-.34zm-.1.97c.03-.17.05-.35.05-.53.18.04.1.32.1.44l-.04.29-.04.26h-.18l.05-.16.06-.3zm-.15-.88l.1-.1.03-.03c.02.11-.01.23-.04.34a1.62 1.62 0 0 0-.21-.07l.12-.14zm-.34 1.13a11.75 11.75 0 0 0 .03-.9c.13.03.26.07.38.12a4.83 4.83 0 0 1-.07.8l-.04.2-.32.02.02-.24zm-.4-.77c.05.03.1.08.15.1.01.15.05.29.14.4l-.02.24v.08c-.11-.28-.3-.53-.32-.83h.05zm-.09.97a4.5 4.5 0 0 0-.37-.82c.1-.03.2-.05.29-.09.06.34.28.62.38.94a8.5 8.5 0 0 1-.3-.03zm1.18 2.84c-.06 0-.13.01-.16-.05l-.2-.57a46.55 46.55 0 0 1-.64-1.97c.17.02.33.03.5.03.08.21.19.42.28.63.1.22.22.43.3.66.14.4.13.84.2 1.26l-.28.01zm.43-.01l-.07-.6a3.14 3.14 0 0 0-.14-.7c-.08-.22-.2-.44-.3-.64-.11-.2-.21-.42-.33-.62h.05l.29-.02.55-.03c.02.2.06.41.1.61l.1.7c.04.24.08.47.1.7.03.2.03.39.04.58l-.39.02zm.56-.03c0-.19-.03-.38-.05-.56a10.53 10.53 0 0 0-.23-1.4l-.14-.62.34-.01.28-.01.02.3.02.35a25.97 25.97 0 0 1 .07 1.92l-.31.03zm.7-.06l-.26.03a17.5 17.5 0 0 0-.05-1.92l-.04-.34c0-.1-.01-.22-.04-.32l.35-.01h.03l.19-.01c-.02.09-.01.2-.02.29a26.46 26.46 0 0 0-.05 1.05l-.12 1.23zm.34-.04l-.2.03a16.8 16.8 0 0 0 .15-1.9V13v-.17l-.01-.14.48-.02c-.21.84-.36 1.69-.42 2.55zm.36-2.77l-.4.02.18-.54.19-.64c.09.03.18.04.27.05l-.24 1.11zM15.83 8.8c-.25-.29-.5-.57-.86-.71-.19-.08-.4-.1-.59-.13l-.6-.05c-.4-.01-.78.06-1.12.28a2.2 2.2 0 0 0-.44.4c-.33.27-.57.63-.71 1.02l-.01.03a2.54 2.54 0 0 0 .43 2.46 1.75 1.75 0 0 0 .97.6c.4.11.8.23 1.23.25.73.04 1.4-.35 1.83-.94a2.95 2.95 0 0 0 .46-2.21 2.3 2.3 0 0 0-.59-1zm-.75 3.7c-.31.17-.67.23-1.03.2-.2 0-.41-.05-.62-.1l-.58-.16a1.5 1.5 0 0 1-.85-.64 2.34 2.34 0 0 1-.36-1.81.4.4 0 0 0 .1.08c.13.1.3.04.4-.05.09-.07.15-.2.26-.23.03-.01.07.01.1.04l.14.15c.1.11.23.2.4.19a.6.6 0 0 0 .22-.06.74.74 0 0 0-.03.61c.08.18.2.3.39.37.18.06.39.1.57.03a.67.67 0 0 0 .35-.3c.02.05.06.08.1.12.11.08.27.09.4.05a.4.4 0 0 0 .17-.12l.07-.08.03-.04v.1c0 .08.01.15.05.22.11.24.5.28.7.15l.03-.02c-.16.53-.5 1-1 1.3zm-1.5-2.42c.06-.05.13-.08.2-.12h.02c.07-.02.16 0 .24 0a.3.3 0 0 1 .2.1l.14.18v.02c.04.08.03.17.02.25-.03.16-.12.32-.27.38a.43.43 0 0 1-.24.02 1.15 1.15 0 0 1-.26-.07c-.14-.07-.2-.24-.21-.38-.01-.15.05-.28.16-.38zm1.74.66c.01 0 .01 0 0 0zm.88-.04c-.07.18-.17.34-.36.36-.1.01-.22 0-.27-.08-.03-.04-.03-.08-.03-.13 0-.08 0-.15-.04-.23-.03-.07-.11-.1-.19-.1s-.15.06-.2.12c-.04.05-.07.1-.13.13a.25.25 0 0 1-.15.01c-.16-.03-.17-.18-.19-.32.01-.1 0-.2-.03-.28a.89.89 0 0 0-.17-.24.8.8 0 0 0-.1-.1.7.7 0 0 0-.72-.17c-.15.05-.29.15-.43.22-.12.05-.23.07-.33-.02-.1-.09-.17-.21-.3-.27-.14-.08-.29-.03-.4.07-.08.07-.14.2-.25.23-.13.04-.18-.15-.17-.24.08-.21.18-.4.33-.58.4-.5 1-.81 1.63-.91l.07-.01h.1l.6.06c.18.03.37.07.55.16.16.09.29.21.41.34l.37.43a1.56 1.56 0 0 1 .42 1.05c.01.17 0 .34-.02.5z" fill="#601511"/><g><g fill="#aa7139"><path d="M3.85 3.46c.07.05.25.14.28.01.02-.05-.1-.08-.1-.14 0-.04.02-.07.06-.1.02-.02.07-.04.05-.09l-.02-.03c-.03-.03-.06-.05-.1-.05l-.03.04v.07c0 .05-.04.07-.08.07-.06 0-.13-.14-.19-.04-.05.1.07.21.13.26zM2.57 4.11l.06.03c.02.02.05.06.03.1-.03.04-.15.1-.08.16.08.08.24-.03.3-.09.06-.05.14-.14.09-.22-.05-.07-.13.06-.19.04a.12.12 0 0 1-.09-.07c-.01-.04-.02-.1-.07-.08H2.6a.16.16 0 0 0-.08.1c.01.02.03.03.06.03zM2.87 3.35c.04 0 .07.02.1.05.02.03.03.1.08.08v-.01l.03-.01a.19.19 0 0 0 .07-.07c0-.04 0-.06-.04-.06l-.08-.01c-.04-.02-.05-.06-.05-.1 0-.06.2-.13.03-.18-.09-.02-.18.05-.23.1-.06.06-.14.18-.1.26.05.08.13-.05.19-.05zM3.57 4.01l.06.03c.02.02.05.06.03.1-.03.04-.15.09-.08.16.08.08.24-.03.3-.09.06-.05.14-.14.09-.22-.05-.07-.13.06-.19.04a.12.12 0 0 1-.09-.08c-.01-.03-.02-.08-.07-.07H3.6a.16.16 0 0 0-.08.1c.01.02.03.03.06.03z"/></g><path d="M2.05 5.08c.06 0 .12 0 .17-.02l.08-.03c-.18 0-.37-.02-.55-.04.03.1.22.09.3.09z" fill="#648e2f"/><path d="M1.52 4.95c.05.08.1.14.18.2.1.07.23.1.36.1.13 0 .27-.04.39-.1l.2-.1.03-.03h-.31c-.03.14-.28.14-.38.14-.12 0-.32-.02-.32-.18l-.15-.03z" fill="#8abc41"/><path d="M5.31 2.14c.01.23 0 .47-.04.7a2.5 2.5 0 0 1-.52 1.2 2 2 0 0 1-1.17.66c-.46.1-.93.15-1.39.14a3.42 3.42 0 0 1-1.5-.34c.12.13.35.2.49.25.23.08.47.14.72.16.27.03.54.03.82.03a2.51 2.51 0 0 0 2.62-2.02c.1-.44.11-.94-.09-1.35v.03c.05.18.06.36.06.54z" fill="#f2b53d"/><path d="M5.48 2.36l.1-.1A.42.42 0 0 0 5.66 2a.26.26 0 0 0-.1-.2c-.04-.05-.1-.05-.16-.05.07.19.09.4.08.6z" fill="#463200"/><path d="M5.41 3.5c.04-.02.05-.06.08-.1s.07-.02.1-.07c.04-.08.03-.2-.01-.29L5.5 2.9c-.02-.03-.04-.03-.07-.04-.05.24-.12.47-.23.7.08 0 .15-.01.21-.06z" fill="#ce403e"/><path d="M4.84 4.31a.48.48 0 0 0 .1-.2v-.1c-.13.18-.3.34-.47.48.14 0 .28-.06.37-.18z" fill="#648e2f"/><path d="M4.12 2.41c.04 0 .07.03.1.06.02.03.03.09.08.07l.03-.02a.19.19 0 0 0 .07-.06c0-.05 0-.07-.05-.06-.02 0-.05 0-.07-.02-.04-.01-.05-.05-.05-.09 0-.07.2-.14.03-.18-.09-.03-.18.04-.24.1-.05.05-.13.17-.09.25.05.08.13-.04.19-.05z" fill="#aa7139"/><path d="M1.42 4.93a2.66 2.66 0 0 1-.5-.16c-.05.13.04.23.16.26s.24-.04.34-.1z" fill="#463200"/><path d="M4.98 3.94c.03.05.03.13.02.18a.52.52 0 0 1-.1.24.54.54 0 0 1-.51.2h-.02l-.3.19c.29.04.58-.03.8-.22.23-.19.4-.53.25-.8l-.14.21z" fill="#8abc41"/><path d="M2.75 5.06l-.07.06c-.07.05-.13.09-.2.12a.9.9 0 0 1-.45.1c-.22 0-.52-.13-.6-.35a.64.64 0 0 1-.11.08c.07.21.17.41.28.6a8.4 8.4 0 0 0 1.7-.5c-.2-.01-.38-.05-.53-.1h-.02z" fill="#e2c821"/><path d="M3.9 4.83c-.31.13-.65.17-.98.19.16.04.33.07.5.05.18-.01.36-.1.48-.24z" fill="#f36e4e"/><path d="M5.26 3.92v.14c-.01.06-.03.12-.06.17l.06-.07c.08-.1.14-.2.2-.3a.72.72 0 0 1-.2.06z" fill="#dda427"/><path d="M5.47 2.54l-.02.2v.05c.06 0 .1.03.14.08l.05.11c.02.05.05.08.05.13.02.13 0 .32-.14.36a.35.35 0 0 1-.38.16l-.03.06c.05.03.08.08.1.14l.02-.01a.7.7 0 0 0 .57-.57.67.67 0 0 0-.09-.43.97.97 0 0 0-.27-.28z" fill="#f36e4e"/><path d="M3.97 4.82h-.01a.52.52 0 0 1-.25.27L3.96 5c.12-.04.22-.1.33-.15-.1 0-.21 0-.32-.04zM.64 4.32c.07.07.18.11.28.16a3.9 3.9 0 0 0 1.66.24c.23-.01.45-.04.67-.07.27-.04.54-.1.79-.2.42-.18.74-.55.94-.96.15-.3.22-.64.24-.98v-.05-.01-.38l-.07-.4c-.01-.1-.03-.26-.17-.25-.1 0-.2.11-.3.16-.22.13-.48.15-.72.24-.24.1-.42.27-.6.44-.17.17-.35.32-.57.44l-.65.33c-.23.11-.44.26-.61.44-.16.17-.3.35-.5.47a.84.84 0 0 1-.27.12c-.06 0-.14.02-.18.07-.04.07.01.15.06.19zM3.93 2.2c.07-.1.18-.17.3-.17.1 0 .19.07.16.17a.1.1 0 0 1-.03.05c0 .01-.1.07-.02.08.05.01.09 0 .12.05.02.04.02.06 0 .09a.29.29 0 0 1-.1.12c-.1.07-.16 0-.2-.08-.03-.03-.14.05-.17.06a.13.13 0 0 1-.1-.05c-.09-.1-.03-.23.04-.32zm-.12.9c.02 0 .04.01.05.03.02.02.04.03.07.01V3.1c0-.03.01-.08.05-.1H4c.06-.02.13.03.18.08.03.03.05.07.05.11-.01.06-.07.08-.1.12-.03.02.07.1.07.14.01.05 0 .09-.04.12-.08.1-.24.04-.33-.02a.38.38 0 0 1-.2-.27c0-.1.08-.21.18-.18zm-.37.84c.02-.05.07-.1.12-.12.1-.06.16 0 .2.09.02.07.11-.02.17-.02.04 0 .07.03.1.06.07.09 0 .21-.07.29-.07.09-.2.17-.32.16-.1-.02-.2-.1-.16-.2.01-.03.03-.04.05-.05.01-.01.1-.04.04-.07-.04-.02-.1 0-.12-.06-.02-.03-.02-.06 0-.08zm-.76-.8c.07-.1.18-.18.3-.18.1 0 .19.08.16.18a.1.1 0 0 1-.03.05s-.1.06-.02.08c.05 0 .09 0 .12.05.02.03.02.06 0 .08a.29.29 0 0 1-.1.13c-.1.07-.16 0-.2-.08-.03-.04-.13.05-.17.05a.13.13 0 0 1-.1-.05c-.08-.1-.03-.22.04-.31zm-.24.9c.02-.05.08-.1.12-.12.1-.05.16 0 .2.09.02.07.11-.02.17-.02.04 0 .07.03.1.06.07.09 0 .22-.06.29-.08.09-.2.17-.33.16-.1-.02-.2-.1-.15-.2 0-.02.02-.04.04-.05.01-.01.1-.03.05-.07-.04-.02-.1 0-.13-.06-.02-.03-.02-.06 0-.08z" fill="#dda427"/><path d="M5.77 2.33c-.04-.02-.07-.04-.09-.08a.53.53 0 0 1-.17.2h-.03v.05c.25.07.4.34.43.6l.3-.48-.28-.19-.16-.1z" fill="#e2c821"/><path d="M.84 4.74A.9.9 0 0 1 .8 4.7C.65 4.63.52 4.52.5 4.36a.32.32 0 0 1-.05-.08.55.55 0 0 0 .1.52c.09.1.2.18.33.23a.25.25 0 0 1-.05-.29z" fill="#dda427"/><g fill="#601511"><path d="M6.3 2.58l-.33-.21-.2-.12c-.03-.02-.04-.03-.08-.02.05-.11.07-.23.03-.33a.29.29 0 0 0-.18-.2c-.05 0-.11 0-.15.03-.04-.12-.1-.22-.19-.32h-.02a.2.2 0 0 0-.14-.1c-.11-.03-.2.03-.3.09-.14.09-.27.15-.43.2-.15.04-.3.07-.45.14-.26.12-.45.33-.66.53-.18.17-.4.3-.62.42-.22.1-.45.2-.66.33-.2.12-.38.27-.54.45-.16.16-.32.37-.55.44-.1.04-.23.04-.32.11a.2.2 0 0 0-.07.15c-.06.06-.08.2-.09.28 0 .13.04.28.13.38.2.25.5.33.8.4.08.17.16.34.27.5l.03.02a6.67 6.67 0 0 0 1.77-.57c.2.04.42 0 .61-.08.18-.06.34-.15.5-.26.19-.04.37-.14.51-.28.14-.1.27-.24.37-.38.1-.11.2-.25.24-.4a.74.74 0 0 0 .34-.54v-.02-.01l.39-.58v-.05zm-.73-.78c.06.05.1.13.1.21-.01.09-.04.17-.1.24l-.09.11c0-.2-.01-.41-.08-.6.06 0 .12 0 .17.04zm-.23 1.11c-.2.93-.9 1.75-1.85 1.96-.26.05-.52.06-.77.07-.28 0-.55 0-.82-.03a3.33 3.33 0 0 1-.72-.16C1.04 4.7.8 4.63.68 4.5a3.36 3.36 0 0 0 1.5.34c.47 0 .94-.04 1.4-.14a2 2 0 0 0 1.17-.67c.28-.34.45-.76.52-1.2a3.52 3.52 0 0 0-.01-1.23l-.01-.03c.2.4.18.9.09 1.34zm.09-.05c.03 0 .05 0 .07.04l.08.15c.04.07.05.2 0 .29-.02.04-.07.04-.1.07s-.03.07-.07.1a.28.28 0 0 1-.2.05c.1-.23.18-.46.22-.7zM4.94 4v.11a.47.47 0 0 1-.1.2.47.47 0 0 1-.37.18c.17-.14.34-.3.47-.49zM1.99 5.16c.1 0 .35 0 .38-.13h.31l-.03.01-.2.12a.96.96 0 0 1-.4.09.67.67 0 0 1-.35-.1.68.68 0 0 1-.18-.2l.15.03c0 .16.2.17.32.18zm-.24-.17l.55.04c-.03 0-.05.02-.08.03a.61.61 0 0 1-.17.02c-.08 0-.27.01-.3-.1zM.58 4.13c.03-.05.11-.06.17-.07.1-.03.2-.06.28-.12.2-.12.34-.3.5-.47.17-.18.38-.33.6-.44.22-.12.45-.21.66-.33.21-.12.4-.27.57-.44.18-.17.36-.35.6-.44.24-.08.5-.1.72-.24.09-.05.2-.15.3-.16.13-.01.15.15.17.25.03.13.05.27.06.4l.01.38V2.51c-.02.34-.1.68-.24.98-.2.41-.52.78-.94.96-.25.1-.52.16-.79.2-.22.03-.44.06-.67.07a3.87 3.87 0 0 1-1.66-.24c-.1-.05-.2-.09-.29-.16-.04-.04-.1-.12-.05-.19zm-.01.67a.56.56 0 0 1-.1-.52c0 .03.02.05.04.08 0 .16.14.27.28.34l.05.03v.01c-.06.1-.02.22.05.3a.78.78 0 0 1-.32-.24zm.5.23C.98 5 .88 4.9.93 4.78v-.01a2.94 2.94 0 0 0 .5.16c-.1.06-.22.13-.34.1zm.53.64a2.96 2.96 0 0 1-.28-.6.64.64 0 0 0 .11-.08c.09.23.38.35.6.36.15 0 .31-.04.45-.1l.2-.12.07-.06h.01c.16.05.35.1.53.1a8.6 8.6 0 0 1-1.69.5zm1.82-.6c-.17.02-.34-.01-.5-.05.33-.02.67-.06.98-.2a.73.73 0 0 1-.48.25zm.54-.06c-.08.04-.17.06-.25.08.1-.06.2-.14.25-.27h.01c.1.03.22.04.33.04-.11.05-.22.11-.34.15zm.91-.48a.99.99 0 0 1-.8.22 2.91 2.91 0 0 0 .32-.18c.19.02.4-.05.51-.2.05-.08.1-.16.1-.25 0-.05.01-.13-.02-.18l.14-.22c.15.28-.02.62-.25.8zm.4-.37l-.07.07a.69.69 0 0 0 .06-.3.78.78 0 0 0 .2-.07c-.06.1-.12.2-.2.3zm.56-.91a.7.7 0 0 1-.57.57h-.02a.28.28 0 0 0-.1-.13l.03-.06c.15.04.3-.03.38-.16.15-.04.16-.23.14-.36 0-.05-.03-.08-.05-.12l-.05-.12c-.04-.05-.09-.08-.15-.08l.01-.05.02-.2c.1.08.2.17.27.29.07.12.11.27.09.42zm.08-.16c-.03-.25-.18-.52-.43-.6v-.04h.03a.52.52 0 0 0 .17-.2c.02.04.05.06.09.08l.16.1.29.19-.3.47z"/><path d="M3.99 2.57c.03 0 .14-.09.16-.06.05.09.12.16.21.08a.3.3 0 0 0 .1-.12c.02-.03.02-.05 0-.09-.03-.04-.07-.04-.12-.05-.09-.01.01-.07.02-.08.01-.01.03-.03.03-.05.02-.1-.06-.17-.15-.17a.39.39 0 0 0-.31.17c-.07.1-.13.22-.04.32.02.03.06.05.1.05zm.03-.36c.06-.06.15-.13.24-.1.16.04-.03.11-.03.18 0 .04 0 .08.04.1h.08c.04 0 .05.02.04.07a.19.19 0 0 1-.06.06l-.03.01c-.05.02-.06-.03-.09-.06-.02-.04-.05-.07-.1-.06-.05 0-.13.13-.18.05-.04-.08.04-.2.1-.25zM2.74 3.5c.04 0 .14-.08.16-.05.05.08.12.15.22.08a.3.3 0 0 0 .1-.13c.01-.02.01-.05-.01-.08-.03-.05-.07-.04-.12-.05-.09-.02.01-.07.02-.08.02-.01.03-.03.03-.05.02-.1-.06-.18-.15-.18a.39.39 0 0 0-.31.18c-.07.1-.12.21-.04.31.02.03.07.05.1.05zm.03-.35c.06-.06.15-.13.24-.1.16.04-.03.11-.03.18 0 .03 0 .07.04.09l.08.01c.04 0 .05.02.04.06a.19.19 0 0 1-.06.07l-.03.01c-.05.02-.06-.04-.09-.07-.02-.03-.05-.06-.1-.05-.05 0-.13.13-.18.05-.04-.08.04-.2.1-.25zM3.84 3.54c.09.05.24.12.32.02.04-.04.05-.08.04-.13 0-.03-.1-.1-.08-.13.04-.04.1-.06.1-.12.01-.04-.01-.08-.04-.11-.04-.05-.12-.1-.18-.08h-.02c-.04.02-.05.06-.05.1v.05c-.03.02-.05.01-.07-.01a.13.13 0 0 0-.05-.04c-.1-.03-.18.09-.17.17.02.13.1.22.2.28zm-.11-.34c.05-.1.12.05.18.04.04 0 .08-.02.08-.06V3.1l.03-.04c.04 0 .08.02.1.05l.02.03c.03.05-.03.07-.05.1a.12.12 0 0 0-.05.1c0 .05.11.08.1.13-.04.13-.22.04-.28 0-.07-.06-.19-.17-.13-.27zM2.58 4.18c.05.03-.04.06-.05.07-.02.01-.04.02-.04.04-.04.12.04.2.15.2.12.02.25-.06.33-.15.06-.08.13-.2.06-.3C3 4.03 2.97 4 2.93 4c-.06 0-.15.09-.17.01-.04-.09-.1-.14-.2-.08-.04.02-.1.07-.12.12l.01.08c.03.05.08.04.13.06zm.01-.2h.03c.05-.01.06.04.07.07.02.04.05.07.09.08.06.01.14-.12.19-.04.05.07-.03.17-.08.22-.07.06-.23.17-.32.09-.06-.07.06-.12.09-.17.02-.03 0-.07-.03-.1a.13.13 0 0 0-.06-.02.06.06 0 0 1-.06-.04.17.17 0 0 1 .08-.08zM3.57 4.08c.06.03-.03.06-.04.07l-.05.04c-.03.12.05.2.16.2.12.02.25-.06.32-.15.06-.08.14-.2.06-.3-.02-.02-.05-.05-.1-.05s-.14.08-.16.01c-.04-.09-.1-.14-.2-.08-.05.02-.1.07-.12.12v.08c.04.05.1.04.13.06zm.02-.2h.03c.05-.01.06.04.07.07.02.04.05.07.09.08.06.01.14-.12.19-.04.04.07-.03.17-.08.22-.07.06-.23.17-.32.08-.06-.06.06-.11.09-.16.02-.03 0-.07-.03-.1a.13.13 0 0 0-.06-.02.06.06 0 0 1-.06-.04.17.17 0 0 1 .08-.08z"/></g></g></svg>