<?xml version="1.0" encoding="UTF-8"?>
<svg width="64" height="64" version="1.1" viewBox="0 0 64 64" xml:space="preserve" xmlns="http://www.w3.org/2000/svg" xmlns:cc="http://creativecommons.org/ns#" xmlns:dc="http://purl.org/dc/elements/1.1/" xmlns:rdf="http://www.w3.org/1999/02/22-rdf-syntax-ns#"><metadata><rdf:RDF><cc:Work rdf:about=""><dc:format>image/svg+xml</dc:format><dc:type rdf:resource="http://purl.org/dc/dcmitype/StillImage"/><dc:title/></cc:Work></rdf:RDF></metadata><defs><clipPath id="clipPath18"><path d="M 0,841.89 H 1190.55 V 0 H 0 Z"/></clipPath></defs><g transform="matrix(1.3333 0 0 -1.3333 0 64)"><g transform="matrix(.061558 0 0 .061558 -10.922 -.16957)"><g clip-path="url(#clipPath18)"><g transform="matrix(.96388 0 0 .96388 647.44 483.23)"><path d="m0 0c-96.039 151.84 128.89 83.961 215.62 210.37 0 0 31.689-80.558-50.002-104.56 0 0 96.658-8.897-24.484-44.218 0 0 72.454-2.851-21.645-46.146 0 0 36.881-29.182-66.692-25.938" fill="#74cbef"/></g><g transform="matrix(.96388 0 0 .96388 712.96 468.41)"><path d="m0 0c-4.733 0-9.832 0.081-15.325 0.253l0.29 9.256c60.755-1.924 67.418 7.752 68.139 9.705 0.934 2.527-2.684 6.543-4.481 7.984l-5.831 4.688 6.784 3.139c46.78 21.527 45.632 30.304 45.56 30.666-0.591 2.978-11.361 6.21-22.163 6.648l-28.296 1.145 27.183 7.93c57.83 16.86 57.686 25.534 57.677 25.622-0.283 2.972-15.256 7.959-32.324 9.536l-24.108 2.231 23.228 6.826c22.561 6.627 38.094 18.355 46.168 34.853 9.884 20.192 6.44 42.995 3.413 55.045-38.48-49.596-99.01-67.584-148.1-82.176-39.624-11.777-73.844-21.947-82.376-44.692-6.088-16.218 0.618-39.382 20.499-70.813l-7.828-4.951c-21.837 34.525-28.618 59.631-21.345 79.017 10.154 27.057 46.419 37.836 88.411 50.317 50.122 14.898 112.5 33.437 148.65 86.133l4.936 7.194 3.192-8.119c0.612-1.556 14.804-38.472-1.127-71.025-7.047-14.393-18.823-25.558-35.119-33.334 11.125-2.538 22.277-7.088 23.053-15.156 0.681-7.076-4.734-16.073-46.028-29.743 5.626-2.075 10.439-5.388 11.491-10.685 1.423-7.161-2.581-17.928-44.996-38.176 2.427-3.389 4.465-8.126 2.584-13.273-2.581-7.058-12.033-16.045-61.808-16.045" fill="#faea25"/></g><g transform="matrix(.96388 0 0 .96388 673.55 507.05)"><path d="m0 0c-70.651 179.52 152.88 62.544 269.86 178.37 0 0 17.166-91.359-73.836-100.19 0 0 100.15-28.889-34.747-41.696 0 0 75.842-17.628-32.14-44.302 0 0 33.009-38.221-75.574-13.898" fill="#74cbef"/></g><g transform="matrix(.96388 0 0 .96388 779.61 473.83)"><path d="m0 0c-12.431 0-30.617 2.21-57.476 8.225l2.027 9.039c63.906-14.321 73.017-5.303 74.193-3.356 1.608 2.663-1.426 7.701-3.147 9.721l-4.855 5.701 7.261 1.809c53.036 13.103 54.505 22.459 54.499 23.481-0.027 3.802-11.795 9.374-22.299 11.816l-27.684 6.434 28.295 2.686c64.682 6.142 66.277 15.307 66.313 15.694 0.311 3.343-14.077 11.643-32.414 16.94l-23.265 6.721 24.103 2.339c25.229 2.449 44.061 11.726 55.968 27.579 14.815 19.727 15.566 45.101 14.73 58.295-50.57-44.887-118.26-51.668-173.12-57.165-44.257-4.435-82.482-8.264-96.157-30.674-9.751-15.973-7.364-41.857 7.304-79.126l-8.616-3.392c-16.022 40.709-18.12 68.465-6.597 87.345 16.08 26.342 56.426 30.382 103.14 35.064 55.923 5.602 125.52 12.576 174.37 60.943l6.199 6.138 1.613-8.571c0.329-1.761 7.821-43.416-15.464-74.42-10.459-13.926-25.396-23.366-44.531-28.187 11.435-4.887 22.769-11.975 21.955-20.689-0.702-7.535-8.294-15.871-55.353-21.922 5.84-3.32 10.728-7.863 10.77-13.781 0.051-7.743-6.356-18.181-55.317-30.958 2.06-4.375 3.097-9.814 0.25-14.569-2.662-4.444-8.541-9.16-26.697-9.16" fill="#faea25"/></g><g transform="matrix(.96388 0 0 .96388 915.65 435.32)"><path d="m0 0c-0.764-1.324-1.454-2.665-2.06-4.013-2.004-4.453-4.724-12.832-0.427-18.913 2.679-3.802 5.344-5.859 6.955-5.336 2.809 0.891 6.241 7.995 6.241 15.014 0 5.569-3.926 10.166-10.709 13.248m-51.276-45.586-8.787 2.929c1.891 5.675 3.296 11.636 4.659 17.401 4.495 19.057 9.144 38.763 31.636 38.763 7.9 0 14.551-0.862 20.092-2.345 8.285 10.902 20.032 19.241 29.822 20.33l1.025-9.208c-6.676-0.742-15.175-6.723-21.738-14.566 10.378-5.333 14.538-13.525 14.538-20.966 0-9.603-4.45-21.222-12.7-23.842-4.142-1.315-10.498-0.848-17.327 8.821-5.149 7.294-5.309 17.258-0.452 28.055 0.461 1.031 0.962 2.05 1.499 3.06-4.363 0.911-9.326 1.399-14.759 1.399-14.457 0-17.858-11.43-22.625-31.63-1.404-5.964-2.861-12.129-4.883-18.201" fill="#be4894"/></g><g transform="matrix(.96388 0 0 .96388 561.93 163.9)"><path d="m0 0c0-25.15-8.639-45.539-19.296-45.539s-19.296 20.389-19.296 45.539 8.639 45.538 19.296 45.538 19.296-20.388 19.296-45.538" fill="#e3abcf"/></g><g transform="matrix(.96388 0 0 .96388 696.83 163.9)"><path d="m0 0c0-25.15-8.639-45.539-19.296-45.539-10.656 0-19.296 20.389-19.296 45.539s8.64 45.538 19.296 45.538c10.657 0 19.296-20.388 19.296-45.538" fill="#e3abcf"/></g><g transform="matrix(.96388 0 0 .96388 398.75 341.96)"><path d="m0 0c0-98.754 118.87-178.81 265.51-178.81s265.51 80.057 265.51 178.81-118.88 178.81-265.51 178.81-265.51-80.056-265.51-178.81" fill="#ba64a4"/></g><g transform="matrix(.96388 0 0 .96388 596.75 585.09)"><path d="m0 0c5.601 9.573 1.341-60.644-19.146-70.217-23.932-11.152-60.739-21.539-63.946-43.891l-1.292-0.288c-3.112 13.259-5.313 25.56-6.654 36.712l2.25 0.288s20.725 8.759 32.691 23.118 27.953 35.132 8.807 30.346c-18.906-4.739-37.094 9.955-51.358-3.542-3.398 6.988-8.233 13.162-13.977 18.523l0.144 0.144c9.573 11.966 27.953 28.719 49.492 19.145 21.539-9.572 57.437-19.911 62.989-10.338" fill="#ba64a4"/></g><g transform="matrix(.96388 0 0 .96388 551.16 562.02)"><path d="m0 0c19.146 4.786 3.159-15.987-8.807-30.346s-32.692-23.118-32.692-23.118l-2.249-0.287c-1.101 8.854-1.627 16.991-1.627 24.219 0 9.668-2.154 18.332-5.983 25.99 14.263 13.498 32.451-1.197 51.358 3.542" fill="#e6bdda"/></g><g transform="matrix(.96388 0 0 .96388 364.41 522.8)"><path d="m0 0c0 4.403-3.59 7.945-7.994 7.945-4.403 0-7.945-3.542-7.945-7.945 0-4.404 3.542-7.994 7.945-7.994 4.404 0 7.994 3.59 7.994 7.994m63.803 0c0 4.403-3.542 7.945-7.946 7.945-4.403 0-7.993-3.542-7.993-7.945 0-4.404 3.59-7.994 7.993-7.994 4.404 0 7.946 3.59 7.946 7.994m35.132-109.13c0 35.42-39.296 47.338-71.126 47.338-37.861 0-66.101-18.763-66.101-53.32 0-34.559 38.579-39.297 64.713-39.297 26.086 0 72.514 0.718 72.514 45.279m-190.88 96.447c2.058 7.275 3.398 15.029 3.398 23.836 0 8.711 3.015 17.088 8.185 24.89 4.068 6.079 9.381 11.87 15.651 17.183 25.464 21.682 65.814 36.089 93.431 36.089 29.772 0 74.19-9.524 99.701-33.648 5.744-5.361 10.579-11.535 13.977-18.523 3.829-7.659 5.983-16.322 5.983-25.991 0-7.227 0.526-15.364 1.627-24.219 1.341-11.152 3.542-23.454 6.654-36.712 3.35-14.598 7.801-30.346 13.258-46.763 15.986-47.912-38.292-90.942-69.403-90.942-31.112 0-26.326-28.336-69.404-28.336-43.077 0-35.898 18.762-59.83 30.729-23.932 11.966-86.156 23.932-88.549 74.19-1.388 28.909 5.026 48.151 12.11 64.999 4.786 11.44 9.956 21.731 13.211 33.218" fill="#da9dc7"/></g><g transform="matrix(.96388 0 0 .96388 385.91 418.03)"><path d="m0 0c0 7.659-5.936 13.833-13.211 13.833s-13.21-6.174-13.21-13.833c0-7.658 5.935-13.832 13.21-13.832s13.211 6.174 13.211 13.832m36.089-6.604c3.829 6.604 1.819 14.933-4.499 18.57-6.318 3.686-14.503 1.245-18.332-5.361-3.829-6.653-1.819-14.981 4.499-18.619 6.319-3.637 14.551-1.196 18.332 5.41m-30.585 53.511c31.83 0 71.126-11.918 71.126-47.338 0-44.561-46.428-45.279-72.514-45.279-26.134 0-64.712 4.738-64.712 39.297 0 34.558 28.24 53.32 66.1 53.32" fill="#c54593"/></g><g transform="matrix(.96388 0 0 .96388 416.36 429.56)"><path d="m0 0c6.318-3.638 8.328-11.966 4.499-18.571-3.781-6.605-12.014-9.047-18.332-5.409s-8.328 11.966-4.499 18.619c3.829 6.606 12.014 9.047 18.332 5.361" fill="#fff"/></g><g transform="matrix(.96388 0 0 .96388 418.25 530.46)"><path d="m0 0c4.403 0 7.945-3.542 7.945-7.945 0-4.404-3.542-7.994-7.945-7.994-4.404 0-7.993 3.59-7.993 7.994 0 4.403 3.589 7.945 7.993 7.945" fill="#1d1d1b"/></g><g transform="matrix(.96388 0 0 .96388 373.17 431.36)"><path d="m0 0c7.275 0 13.211-6.174 13.211-13.833 0-7.658-5.936-13.832-13.211-13.832s-13.21 6.174-13.21 13.832c0 7.659 5.935 13.833 13.21 13.833" fill="#fff"/></g><g transform="matrix(.96388 0 0 .96388 356.7 530.46)"><path d="m0 0c4.404 0 7.994-3.542 7.994-7.945 0-4.404-3.59-7.994-7.994-7.994-4.403 0-7.945 3.59-7.945 7.994 0 4.403 3.542 7.945 7.945 7.945" fill="#1d1d1b"/></g><g transform="matrix(.96388 0 0 .96388 300.6 576.6)"><path d="m0 0 1.483-2.584c-6.27-5.313-11.583-11.105-15.651-17.184l-1.005 0.622c-14.359 14.359-32.691-0.766-51.837 4.021-19.146 4.786-3.207-15.987 8.759-30.346 11.296-13.593 30.442-22.161 32.5-23.023-3.255-11.487-8.424-21.778-13.211-33.217l-0.957 0.43c-1.58 12.732-29.484 28.719-53.416 39.871-20.486 9.573-24.746 79.79-19.146 70.217 5.552-9.573 41.45 0.766 62.989 10.339s39.919-7.18 49.492-19.146" fill="#ba64a4"/></g><g transform="matrix(.96388 0 0 .96388 285.98 558.14)"><path d="m0 0 1.005-0.623c-5.169-7.801-8.184-16.178-8.184-24.889 0-8.807-1.341-16.561-3.399-23.836-2.058 0.861-21.204 9.429-32.5 23.022-11.965 14.36-27.904 35.133-8.759 30.347 19.146-4.787 37.478 10.338 51.837-4.021" fill="#e6bdda"/></g><g transform="matrix(.96388 0 0 .96388 642.9 154.97)"><path d="m0 0c0-30.266-10.396-54.801-23.221-54.801-12.824 0-23.22 24.535-23.22 54.801s10.396 54.8 23.22 54.8c12.825 0 23.221-24.534 23.221-54.8" fill="#e3abcf"/></g><g transform="matrix(.96388 0 0 .96388 766.89 154.97)"><path d="m0 0c0-30.266-10.396-54.801-23.221-54.801-12.824 0-23.22 24.535-23.22 54.801s10.396 54.8 23.22 54.8c12.825 0 23.221-24.534 23.221-54.8" fill="#e3abcf"/></g></g></g></g></svg>
