<?xml version="1.0" encoding="UTF-8"?>
<svg width="412.7" height="370.8" version="1.1" xmlns="http://www.w3.org/2000/svg"><g><title>Layer 1</title><g stroke-width="1.027"><path d="m287.1 18.59c5.961 12.44-1.65 29.2 1.918 43.49 3.055 12.22 12.13 25.07 7.993 37.89-2.963 9.174-14.98 11.63-17.9 19.9-3.062 8.668 7.389 23.73 9.752 32.21 5.318 19.08 5.689 42.13 3.516 61.71-2.036 18.35-14.88 26.2-27.02 37.57-18.3 17.14-29.21 36.8-40.45 56.43-13.47 23.54-30.8 53.23-66.35 58.03-22.67 3.06-51.54-24.27-49.4-45.72 3.038-30.34 11.44-41.04 26.38-66.03 12.89-21.56 19.64-40.17 23.26-65.47 2.002-14 6.363-26.6 6.315-41.65-0.0842-26.79-6.817-11.89-19.82-24.62-11.85-11.6-0.8082-46.57-1.439-61.71-1.184-28.45-7.796-47.68 28.62-48.76 23.68-0.7014 47.98-3.358 71.62-3.358 11.84 0 26.18-6.269 36.77 1.918 2.829 2.186 4.876 4.87 6.234 8.153"/><path d="m279.4 23.23c2.112 8.027-2.563 19.9-1.598 29.42 1.295 12.78 7.079 24.08 10.47 36.29 6.024 21.69-49.08 24.51-65.15 24.14-17.8-0.4108-32.46-1.992-49.72 4.476-23.67 8.874-23.5-8.989-22.54-26.38 0.9622-17.45-9.599-62.14 7.674-70.18 14.26-6.637 47.09-0.19 63.47-1.599 13.93-1.198 50.31-12.88 57.39 3.837" fill="#007fff"/><path d="m271 26.27c-4.673 9.399-18.63 11.95-28.3 13.59-10.9 1.844-23.65 2.186-34.69 2.558-12.22 0.4098-30.13 3.542-42.13 0.799-14.3-3.27-16-18.42-4.396-16.95-2.553-0.3245-1.144 7.556 4.476 9.272 9.602 2.932 11.11-3.385 12.15-9.272-1.845 16.11 22.37 11.38 17.59-3.838h3.198c-6.372 20.89 22.19 9.396 32.13 9.113-0.8965-2.276-1.176-6.305-2.24-9.113h2.24c1.028 14.12 14.77 11.08 24.62 6.075 5.968-3.03 16.18-17.21 15.35-2.238"/><path d="m247.2 21.63c-0.1654 3.721 2.062 5.316-1.599 6.874-1.318-3.566 1.623-7.245 1.599-6.874"/><path d="m161.1 45.45c2.744 15.89 9.556 42.04 3.198 56.75-3.955-6.304 0.9037-10.56 0.3194-18.7-0.915-12.77-12.18-27.05-3.517-38.05"/><path d="m208 56.96c-0.7363 9.679-0.0503 20.16 3.358 29.26 1.264 3.376 6.874 21.97 0 13.59-10.26-12.5-2.196-38.34-10.23-52.12 4.546 1.43 5.048 4.651 6.873 9.272"/><path d="m188 85.26c1.654 4.764 2.449 9.852 3.837 14.71-7.935-0.6562-13.91-43.28-9.912-50.68 3.578 11.76 3.061 24.12 6.075 35.97"/><path d="m235.5 59.84c2.073 11.47 4.998 29.19 4.796 37.73-12.73-8.31-4.95-32.77-9.272-46.04 6.086 0.6768 4.052 3.758 4.476 8.314"/><path d="m260.3 63.04c2.144 8.043 5.94 25.7 3.038 32.29-5.847-12.41-5.921-28.98-9.271-43.8 3.687 3.285 4.74 6.861 6.234 11.51"/><path d="m271 115.3c1.768 13.83 5.759 26.36 9.272 37.73 5.218 16.89-0.8236 13.81-16.87 20.94-35.97 15.99-23.11 53.79-6.953 74.82-25.97 16.37-27.51 53.58-49.88 72.9-19.89-25.7-49.41-37.56-82.17-36.13 9.566-20.01 24.23-35.46 34.21-58.35 7.237-16.59 9.536-35.02 12.31-52.12 0.877-5.403 1.292-14.84 1.918-21.74 1.603-17.66-8.381-25.14 11.35-31.01 15.51-4.618 33.79 0.4642 49.56-0.1592 12.92-0.5104 24.34-5.995 37.25-6.874" fill="#aad4ff"/><path d="m284.7 181.2c0.8893 26.71-1.738 46.23-23.82 63.79-10.26-11.64-24.11-34.56-12.23-49.56 3.493-4.413 38.59-36.25 36.05-14.23" fill="#007fff"/><path d="m144.4 291.8c15.99 3.474 55.26 12.39 57.71 31.97 2.36 18.8-40.78 37.13-58.19 31.17-27.54-9.419-42.61-78.96 0.4796-63.15" fill="#007fff"/></g></g></svg>
