<svg xmlns="http://www.w3.org/2000/svg" viewBox="0 0 16.9 16.9" height="64" width="64"><g transform="translate(0 -280)"><path d="M2 284l13 .8c.2.2 1.2 2.2.7 6.7s-.2 4.2-.8 4.6c-.6.4-13-.7-13-.7l-.4-9z" fill="#3d3d3d"/><path d="M14.8 288.8c.1-1.9-1.2-2.2-1.8-2.3-.6 0-9.6-.1-10.5-.6-.9-.5-.9-1.2-.3-1.6.6-.5 12 1 12.5.9.4 0 .6-.7.1-.7s-12.6-.9-12.9-.7c-.3.1-1.2 4-1.3 7.5 0 3.4.2 3.6.5 3.9.3.2 12.8 2 13.2 1.1.4-.8.5-7.5.5-7.5z" fill="#910fb0" class="colorable" stroke="#000" stroke-width=".4"/><path d="M5 286l4.2-3.6 1.7-1.6a27.6 27.6 0 0 0 3.4 3.7l-2.6 1.8" fill="#3c6c3e" stroke="#000" stroke-width=".4"/><path d="M3.7 286s2.5-2.3 3.5-3.5l1.4-2a29 29 0 0 0 4.3 3l-2.5 2.7" fill="#3c6c3e" stroke="#000" stroke-width=".4"/><path d="M13.3 290.5c-1.1 0-3.6 0-3.6 1 0 1.2.6 2 2 2 1.3 0 3.1.3 3.6.1.5-.2.9-3.7.6-4.4-.3-.8-.5-.3-.6.4-.1.8-2 .9-2 .9z" fill="#910fb0" class="colorable" stroke="#000" stroke-width=".4"/><circle transform="rotate(3.8)" r=".6" cy="290.5" cx="30.6" style="marker:none" fill="#010101"/><path d="M7.8 283l2.6 2M8.4 282.4l2.5 1.9M9.6 282.5c-.6.2-2 1-1.5 1.6.6.6 1.7-1.2 2.1-1.1.5 0 0 1.4-.6 2" fill="none" stroke="#000" stroke-width=".4"/></g></svg>
