<?xml version="1.0" encoding="UTF-8"?>
<svg width="64" height="64" version="1.1" viewBox="0 0 16.93 16.93" xmlns="http://www.w3.org/2000/svg"><g><path d="m7.391 2.653c0.3479-0.4721 2.485-0.9939 3.454 0.6957 0.969 1.69 0.5715 3.603 0.7206 4.448 0.1491 0.8448 0.4224 1.864 0.6957 2.013 0.5218-0.1491 0.9909-0.3574 1.913-0.1491 1.41 0.3185 2.261 1.118 2.236 2.286-0.02484 1.168-0.5715 2.062-1.416 2.187-0.8448 0.1242-4.597-0.2982-4.597-0.2982s-2.435 1.193-3.802 1.217c-1.367 0.02482-2.982-0.7206-2.982-0.7206s-1.491 0.02482-2.659-0.82c-1.903-1.377 1.118-3.106 1.118-3.106s0.7206 0.1739 0.7703 0c0.04969-0.1739 1.292-1.963 2.584-3.379 1.292-1.416 1.739-1.59 1.839-2.733 0.09939-1.143 0.1242-1.64 0.1242-1.64z" fill="#fed2b9"/><path d="m10.05 2.529s0.4721 6.063-1.143 8.175c-1.615 2.112-3.131 2.808-5.044 2.36-1.913-0.4472-1.565-0.3727-1.565-0.3727s-0.2982 0.1491-0.8448 0.1491c-0.5466 0-1.044-0.1988-1.044-0.1988l0.646 0.9939s0.3338 0.4805 1.438 0.5437c1.425 0.0816 1.384 0.3786 1.384 0.3786s1.278 0.7672 3.29 0.4691c2.013-0.2982 3.18-1.193 3.18-1.193s1.143 0.2236 2.286 0.2733c1.143 0.0497 2.336 0.0497 2.336 0.0497s1.118-0.8448 1.292-1.168c0.1739-0.323-0.3727 0.5963-1.888 0.3479-1.516-0.2485-1.441-0.646-2.112-0.8199-0.6709-0.1739-0.4969-1.217-0.4472-1.491 0.0497-0.2733 0.5218-1.168 0.5218-1.168s-0.5963-0.323-0.6709-1.441c-0.07454-1.118-0.1242-3.503-0.4224-4.299-0.2982-0.7951-1.193-1.59-1.193-1.59z" fill="#ecc6b1"/><path d="m2.709 10.42c-1.68-0.06679-3.047 1.577-1.757 3.127" fill="none" stroke="#000" stroke-linecap="round" stroke-width=".3339"/><path d="m12.06 10.03s1.335-0.8785 2.846-0.07026c1.511 0.8082 1.546 1.827 1.476 2.53-0.07028 0.7028-1.37 1.757-1.37 1.757" fill="none" stroke="#000" stroke-linecap="round" stroke-width=".3339"/><path d="m2.858 13.56c-0.313 0.02362-0.5906 0.1181-0.691 0.313-0.1004 0.1949-0.2362 0.254-0.04134 0.2953 0.1949 0.04134 1.376 0.1831 1.376 0.1831z" fill="#45342e"/><path d="m7.348 2.723s0.03514 1.722-0.5622 2.706c-0.5974 0.9839-2.917 3.092-3.9 4.779-0.9839 1.687-0.3162 3.9 1.23 4.357" fill="none" stroke="#000" stroke-linecap="round" stroke-width=".4174"/><path d="m2.111 14.06c0.01242-0.5342 0.7703-0.5466 0.7703-0.5466" fill="none" stroke="#000" stroke-linecap="round" stroke-width=".3061"/><path d="m10.4 13.81s0.3758 0.1002 0.8519 0.1837c0.4761 0.08352 0.8853 0.1002 0.8853 0.1002s0.426-0.5763-0.1503-0.6932c-0.5763-0.1169-1.587 0.4093-1.587 0.4093z" fill="#45342e" style="font-variant-east_asian:normal"/><path d="m10.32 13.86c0.0064-0.0386 0.9853-0.5226 1.515-0.5128 0.3214 0.0063 0.7878 0.3802 0.1499 0.7737" fill="none" stroke="#000" stroke-linecap="round" stroke-width=".3061"/></g></svg>
