<?xml version="1.0" encoding="UTF-8"?>
<svg width="64" height="64" version="1.1" viewBox="0 0 16.93 16.93" xmlns="http://www.w3.org/2000/svg"><g><path d="m14.84 9.6s-2.464 1.503-3.032 1.771c-0.5679 0.2673-1.755 1.033-2.03 0.8269-0.3675-0.2756-1.064-3.795-1.164-4.53-0.1002-0.735-0.3776-1.755-0.4332-2.404-0.07319-0.8533 0.1047-0.9991 0.03434-1.772-0.0415-0.4558-0.4079-1.114-1.636-0.8402-0.9628 0.2149-1.016 1.08-1.001 1.541 0.0284 0.8707 0.5501 1.366 0.617 1.733 0.06682 0.3675 0.1837 1.002-0.08352 1.036-0.2673 0.03341-0.4844-0.7851-0.6014-1.119-0.1169-0.3341-0.2589-0.5888-0.6473-0.5763-0.2196 0.007084-0.7058 0.2297-0.7225 0.5638-0.02506 0.5638 0.5847 1.199 0.6682 1.432 0.08352 0.2339 0.1211 0.4051-0.02923 0.4218-0.1503 0.0167-0.4552-0.1545-0.6556-0.4886-0.2005-0.3341-0.152-0.5345-0.5095-0.6598-0.4399-0.1542-0.7559 0.2756-0.7893 0.5596-0.03341 0.284 0.1023 0.4904 0.2673 0.6932 0.2547 0.3132 0.7642 0.6097 0.6974 0.7099-0.06682 0.1002-0.4928-0.05011-0.8102-0.2339-0.3174-0.1837-0.837-0.2963-1.015 0.1921-0.1668 0.4581 0.1026 0.8987 0.4218 0.9271 0.6496 0.05782 1.086 0.1503 1.086 0.2506 0 0.1002-0.4635 0.2088-0.9187 0.2005-0.3173-0.00582-0.6018 0.23-0.5345 0.5471 0.1145 0.5401 0.7016 0.5721 1.002 0.522 0.3007-0.05011 0.7308-0.2673 0.8477-0.1336 0.1169 0.1336 0.3884 0.7851 1.073 1.704s1.62 1.67 1.837 2.105 0.3397 1.44 0.7935 1.804c0.534 0.4289 1.261 0.5846 1.863 0.2172 0.6014-0.3675 0.3341-0.3842 1.019-0.6014 0.6849-0.2172 1.971-0.5847 2.907-0.7016 0.9354-0.1169 3.374-0.6348 3.374-0.6348s0.3113-0.8701-0.3171-2.673c-0.6284-1.802-1.579-2.389-1.579-2.389z" fill="#fac8a3"/><path d="m14.84 9.6s-2.464 1.503-3.032 1.771c-0.5679 0.2673-1.755 1.033-2.03 0.8269-0.3675-0.2756-1.064-3.795-1.164-4.53-0.1002-0.735-0.3776-1.755-0.4332-2.404-0.07319-0.8533 0.1047-0.9991 0.03434-1.772-0.0415-0.4558-0.4079-1.114-1.636-0.8402-0.9628 0.2149-1.016 1.08-1.001 1.541 0.0284 0.8707 0.5501 1.366 0.617 1.733 0.06682 0.3675 0.1837 1.002-0.08352 1.036-0.2673 0.03341-0.4844-0.7851-0.6014-1.119-0.1169-0.3341-0.2589-0.5888-0.6473-0.5763-0.2196 0.007084-0.7058 0.2297-0.7225 0.5638-0.02506 0.5638 0.5847 1.199 0.6682 1.432 0.08352 0.2339 0.1211 0.4051-0.02923 0.4218-0.1503 0.0167-0.4552-0.1545-0.6556-0.4886-0.2005-0.3341-0.152-0.5345-0.5095-0.6598-0.4399-0.1542-0.7559 0.2756-0.7893 0.5596-0.03341 0.284 0.1023 0.4904 0.2673 0.6932 0.2547 0.3132 0.7642 0.6097 0.6974 0.7099-0.06682 0.1002-0.4928-0.05011-0.8102-0.2339-0.3174-0.1837-0.837-0.2963-1.015 0.1921-0.1668 0.4581 0.1026 0.8987 0.4218 0.9271 0.6496 0.05782 1.086 0.1503 1.086 0.2506 0 0.1002-0.4635 0.2088-0.9187 0.2005-0.3173-0.00582-0.6018 0.23-0.5345 0.5471 0.1145 0.5401 0.7016 0.5721 1.002 0.522 0.3007-0.05011 0.7308-0.2673 0.8477-0.1336 0.1169 0.1336 0.3884 0.7851 1.073 1.704s1.62 1.67 1.837 2.105 0.3397 1.44 0.7935 1.804c0.534 0.4289 1.261 0.5846 1.863 0.2172 0.6014-0.3675 0.3341-0.3842 1.019-0.6014 0.6849-0.2172 1.971-0.5847 2.907-0.7016 0.9354-0.1169 3.374-0.6348 3.374-0.6348" fill="none" stroke="#e9967a" stroke-linecap="round" stroke-width=".2117"/><path transform="translate(0 -280.1)" d="m8.235 294.6c0.1535 0.3396 0.3768 0.3936 0.5519 0.4098 0.2315 0.0214 0.3021-0.0403 0.2979-0.0988-0.00418-0.0585-0.1304-0.0458-0.3646-0.1572-0.2021-0.0962-0.3498-0.286-0.3724-0.5088-0.02747-0.2706-0.02953-0.5524-0.02953-0.5524s-0.2717 0.4904-0.08322 0.9075z" fill="#e9967a"/><g fill="#feddc2" stroke="#d59c77"><path d="m6.691 3.551c0.05223-0.1042 0.2474-0.08106 0.5162-0.07253 0.2688 0.00853 0.5087 5e-3 0.5684 0.07326 0.05973 0.06826 0.1355 0.5112-0.1802 0.7544-0.2835 0.2183-0.7039 0.1024-0.8362-0.08959-0.1323-0.192-0.1461-0.5102-0.06826-0.6655z" stroke-width=".2703px"/><g><path transform="translate(0 -280.1)" d="m4.834 286.1c-0.08352-0.0585-0.1441-0.1587-0.0877-0.2151 0.05638-0.0564 0.3195-0.19 0.3821-0.2192 0.06264-0.0292 0.1462 0.0376 0.1733 0.1211 0.02714 0.0835 0.03581 0.1897-0.1076 0.3058-0.1274 0.1032-0.2766 0.0659-0.3601 7e-3z" stroke-width=".1588" style="font-variant-east_asian:normal"/><path d="m3.352 7.019c0.05638-0.0564 0.3195-0.1807 0.3821-0.2099 0.06264-0.0292 0.1179 0.07194 0.145 0.1554 0.02714 0.0835 0.00657 0.1459-0.1202 0.239-0.1321 0.0971-0.2327 0.09304-0.3162 0.03452-0.08352-0.05852-0.1471-0.1627-0.09074-0.2191z" stroke-width=".1588" style="font-variant-east_asian:normal"/><path d="m2.47 8.625c0.00616-0.1938 0.1367-0.3585 0.1763-0.4151 0.03964-0.0566 0.1368-0.01537 0.202 0.04337 0.06526 0.05874 0.08551 0.1804 0.0337 0.3275-0.05445 0.1546-0.1609 0.1603-0.2625 0.1513-0.1016-0.008919-0.1521-0.02741-0.1496-0.1071z" stroke-width=".1323" style="font-variant-east_asian:normal"/><path d="m2.693 9.812c0.08058 0.03487 0.05818 0.1086 0.05892 0.2442 8.908e-4 0.1639-0.02828 0.2412-0.1128 0.2593-0.09972 0.02135-0.1441 0.01668-0.1588-0.07925-0.02064-0.1353 0.03324-0.3256 0.03663-0.3927 0.00339-0.06712 0.09544-0.06631 0.176-0.03145z" stroke-width=".1058" style="font-variant-east_asian:normal"/></g></g><g fill="none" stroke="#fff49e" stroke-linecap="round" stroke-width=".2646px"><path d="m5.192 1.785c0.03508 0.04677 0.3917 0.3976 0.3917 0.3976"/><path d="m6.174 0.7677s0.2105 0.8477 0.2046 0.8711"/><path d="m7.659 0.3877-0.2163 1.245"/><path d="m8.998 1.411-0.6256 0.6724"/></g></g></svg>
