<svg xmlns="http://www.w3.org/2000/svg" viewBox="0 0 16.93 16.93" height="64" width="64"><path d="M5.78 2.9c-1.52.53-3.76 1.34-3.99 3.13-.22 1.79.18 1.74.68 2.19.49.45 3.57 2.01 4.92 1.92 1.46 0 1.83-1.12 1.96-1.88.14-.76.72-2.77 1.66-3.35.94-.58.94-.76.58-.94-.36-.18-4.87-1.2-5.23-1.16a8.8 8.8 0 0 0-.58.09z" fill="#1f7514" class="colorable" stroke="#000" stroke-width=".35"/><path d="M2.78 9.47c-.58-.54-.9-.9-1.16-.76-.27.13-.16 3.67.06 4.7.22 1.03 1.01 1.79 1.86 2.32.85.54 3.73 1.04 4.71.77.98-.26.86-.09.86-.44 0-.36.19-4.82-.34-5.38-1.16.58-3.4.09-4.47-.4-1.07-.5-1.52-.8-1.52-.8zM12.26 6.47c-.09-1.2-.13-1.6-.58-1.43-.45.18-1.8 3.54-1.89 4.03.07 2.01-.3 7.14.05 7.1.35-.02.56-.01 1.08-.21.62-.24.9-1.08.98-1.8.1-.7.59-.57.76-1.02.18-.45-.4-6.67-.4-6.67z" fill="#1f7514" class="colorable" stroke="#000" stroke-width=".35"/><path d="M3.66 11.38c.13.25.67.44 1.07.33.4-.1.56-2.23.62-2.78.1-.81.42-1.22-.03-1.55-.45-.34-.97-.32-1.1-.16-.5.58-.73 3.08-.56 4.16z" fill="#fefefe" stroke="#000" stroke-width=".35"/><path d="M10.75 3.1c.4-.76 2.17-1.49 2.63-1.43.46.07 1.42.16 1.72 1.11.3.95.29 5.55.5 6.79.2 1.23 1.12 2.72.01 3.43-1.1.71-2.28.42-2.28.42l-.04-1.17s.83.24 1.3-.3c.48-.53.15-1.25.09-2.02-.07-.78-.29-3.8-.22-4.52.06-.73-.3-2.08-.72-2.44-.77-.47-1.7.52-1.7.52zM7.75 2.55S7.9.93 8.16.52c.28-.41 1.67-.48 2.24.1.54.55.13 2.48.13 2.48l-.84-.24s.83-1.7-.43-1.82C8.3.9 8.4 2.7 8.4 2.7zM7.32 2.45L6.2 2.3s.51-.2.18-.74c-.33-.51-.44-.4-.67-.3-.58.25-.36 1.3-.62 1.38-.3.09-.36.15-.9.43C4.21 3.04 4.65.5 5.6.45 6.15.43 7.37.48 7.4 1.56c0 .38-.07.89-.07.89z"/></svg>
