<?xml version="1.0" encoding="UTF-8"?>
<!-- Created with Inkscape (http://www.inkscape.org/) -->
<svg width="64" height="64" version="1.1" viewBox="0 0 16.933 16.933" xmlns="http://www.w3.org/2000/svg" xmlns:cc="http://creativecommons.org/ns#" xmlns:dc="http://purl.org/dc/elements/1.1/" xmlns:rdf="http://www.w3.org/1999/02/22-rdf-syntax-ns#">
 <defs>
  <clipPath id="clipPath1166">
   <path d="m34 354.56h306v-328.67h-306z"/>
  </clipPath>
  <clipPath id="clipPath1134">
   <path d="m96 284.75h182v-220.86h-182z"/>
  </clipPath>
  <clipPath id="clipPath1118">
   <path d="m73.794 317.89h226.41v-263.76h-226.41z"/>
  </clipPath>
 </defs>
 <metadata>
  <rdf:RDF>
   <cc:Work rdf:about="">
    <dc:format>image/svg+xml</dc:format>
    <dc:type rdf:resource="http://purl.org/dc/dcmitype/StillImage"/>
    <dc:title/>
   </cc:Work>
  </rdf:RDF>
 </metadata>
 <g transform="translate(0 -280.07)">
  <g transform="matrix(.050464 0 0 -.050464 -.81897 298.13)">
   <g clip-path="url(#clipPath1118)" opacity=".28">
    <g transform="translate(161.33 54.135)">
     <path d="m0 0c0 49.624-87.54 35.274-87.54 147.45 0 71.336 48.074 116.31 113.21 116.31 65.132 0 113.21-44.973 113.21-116.31 0-111.66-88.873-97.822-88.873-147.45" fill="#ffed00"/>
    </g>
   </g>
  </g>
  <g transform="matrix(.050464 0 0 -.050464 -.81897 298.13)">
   <g clip-path="url(#clipPath1134)" opacity=".58">
    <g transform="translate(166,63.89)">
     <path d="m0 0c0 39.891-70 37.199-70 127.37 0 57.343 38.644 93.493 91 93.493s91-36.15 91-93.493c0-89.754-70-87.477-70-127.37" fill="#ffed00"/>
    </g>
   </g>
  </g>
  <g transform="matrix(.050464 0 0 -.050464 7.5581 296.11)">
   <path d="m0 0v32.875c0 32-52 37.667-52 110 0 46 31 75 73 75s73-29 73-75c0-72-52-78-52-110v-32.5z" fill="#ffed00"/>
  </g>
  <g transform="matrix(.050464 0 0 -.050464 8.6178 285.19)">
   <path d="m0 0c-42.766 0-71.5-29.537-71.5-73.5 0-42.833 18.473-61.938 33.316-77.288 10.025-10.368 18.684-19.323 18.684-32.712v-31.361l39 0.347v31.014c0 13.405 8.677 22.415 18.724 32.849 14.825 15.395 33.276 34.556 33.276 77.151 0 43.963-28.734 73.5-71.5 73.5m-22.5-217.89v34.389c0 12.176-7.873 20.318-17.841 30.627-15.219 15.738-34.159 35.326-34.159 79.373 0 22.649 7.327 41.948 21.189 55.811 13.342 13.341 32.275 20.689 53.311 20.689s39.969-7.348 53.311-20.689c13.862-13.863 21.189-33.162 21.189-55.811 0-43.805-18.916-63.448-34.116-79.232-9.991-10.376-17.884-18.573-17.884-30.768v-33.986z" fill="#1d1d1b"/>
  </g>
  <g transform="matrix(.050464 0 0 -.050464 9.1645 296.79)">
   <path d="m0 0h-21c-6.6 0-12 5.399-12 12v8.5c0 6.6 5.4 12 12 12h21c6.6 0 12-5.4 12-12v-8.5c0-6.601-5.4-12-12-12" fill="#4d4c4c"/>
  </g>
  <g transform="matrix(.050464 0 0 -.050464 8.1157 295.43)">
   <path d="m0 0-15.875 80.675c-0.408 2.186-3.84 21.407 0.375 27.506 0.793 1.147 1.813 1.84 3.032 2.057 0.869 0.156 1.727-0.052 2.478-0.601 3.083-2.255 4.354-10.383 6.081-23.501 0.949-7.207 2.528-19.204 4.451-20.262 1.629 1.227 2.754 11.6 3.503 18.501 1.515 13.97 2.946 27.165 9.041 27.165 1.075 0 2.07-0.43 2.879-1.242 3.399-3.416 3.612-13.684 3.541-27.817-0.032-6.483-0.076-15.285 0.978-16.98 2.121 0.756 5.945 12.744 8.246 19.957 4.155 13.026 6.931 21.04 10.431 22.498 0.888 0.369 1.803 0.336 2.647-0.095 1.538-0.786 2.8-2.755-0.056-17.108-1.429-7.183-3.281-14.252-3.3-14.322l-20.62-75.737-2.895 0.789 20.617 75.723c3.058 11.641 5.67 25.336 4.754 27.959-0.381-0.142-1.559-1-3.585-5.81-1.693-4.019-3.443-9.504-5.135-14.809-4.746-14.879-7.65-23.232-12.048-21.955-2.872 0.834-3.103 5.833-3.034 19.906 0.049 9.659 0.114 22.889-2.668 25.685-0.314 0.315-0.556 0.358-0.752 0.358-3.403 0-5.065-15.329-6.059-24.488-1.542-14.218-2.539-21.639-6.737-21.194-4.021 0.407-5.285 8.542-7.174 22.886-1.1 8.361-2.608 19.812-4.877 21.471-0.112 0.082-0.147 0.074-0.179 0.07-0.261-0.047-0.657-0.181-1.091-0.809-2.973-4.302-0.934-19.675 0.102-25.236l15.872-80.66z" fill="#1d1d1b"/>
  </g>
  <g transform="matrix(.050464 0 0 -.050464 -.81897 298.13)">
   <g clip-path="url(#clipPath1166)" opacity=".2">
    <g transform="translate(152.31 25.89)">
     <path d="m0 0c-19.645 9.445-118.31 29.562-118.31 181.16 0 96.411 64.973 147.5 153 147.5s153-51.091 153-147.5c0-150.9-104.33-171.05-120.11-181.16" fill="#ffed00"/>
    </g>
   </g>
  </g>
 </g>
</svg>
