<svg version="1.1" viewBox="0 0 64 64" xmlns="http://www.w3.org/2000/svg">
  <path d="m32.34 31.032 1.8757 7.0003" fill="none" stroke="#85848c" stroke-width="4.5266"/>
  <circle cx="29.042" cy="16.233" r="14.126" fill="#50d3f0" fill-opacity=".43889" stroke="#554f63" stroke-linejoin="round" stroke-width="2.829"/>
  <g>
    <path d="m17.871 17.188c0.24891-5.4407 3.2679-9.0543 7.3271-11.924 0 0-2.5686 3.0657-4.3157 5.6912-1.7471 2.6255-3.0114 6.2333-3.0114 6.2333z" fill="#f3fcfe"/>
    <path d="m38.632 18.434c-0.1505 3.2896-1.9759 5.4745-4.4302 7.2099 0 0 1.5531-1.8536 2.6094-3.4411 1.0564-1.5874 1.8208-3.7688 1.8208-3.7688z" fill="#f3fcfe"/>
    <path d="m37.719 37.073c-3.202-0.17228-5.0053 0.85079-6.8527 1.8362l6.9121 24.402c1.9449 0.22037 3.9293 0.15645 6.1555-1.6494z" fill="#9c6054"/>
    <path d="m33.568 37.637 7.1599 25.611c-1.0096 0.20897-1.9834 0.17186-2.9488 0.06248l-6.9139-24.402c0.85983-0.45863 1.7165-0.92044 2.7027-1.2711z" fill="#7a575c"/>
    <rect transform="rotate(-15)" x="19.783" y="48.49" width="7.0076" height="1.7321" fill="#585570"/>
  </g>
</svg>
