<?xml version="1.0" encoding="UTF-8"?>
<svg width="64" height="64" version="1.1" viewBox="0 0 16.93 16.93" xmlns="http://www.w3.org/2000/svg"><g><circle cx="8.5" cy="8.578" r="8.092" fill="#f8b326"/><circle cx="5.646" cy="8.547" r="1.056" fill="#2a251d"/><circle cx="11.35" cy="8.547" r="1.056" fill="#2a251d"/><circle cx="5.646" cy="8.108" r=".501" fill="#fff"/><circle cx="11.36" cy="8.108" r=".501" fill="#fff"/><path d="m6.303 4.571c-0.7871-0.2534-1.788 0.1291-2.514 0.8895-0.5262 0.5512-0.9677 1.348-1.023 1.833-0.01948 0.1706 0.163 0.1485 0.2255 0.02923 0.1378-0.2631 0.6176-0.8238 1.265-1.403s1.219-0.842 1.954-0.9062c0.3391-0.02963 0.3342-0.3647 0.09187-0.4427z" fill="#6b4003"/><path d="m8.528 11.94c-1.427 0-2.383 1.338-2.445 1.441-0.1476 0.248 0.07087 0.5197 0.2953 0.3898 0.2244-0.1299 0.9804-0.626 2.268-0.626s1.772 0.5433 1.996 0.6142c0.2244 0.07087 0.4252-0.1772 0.2599-0.437-0.1654-0.2599-0.9472-1.382-2.374-1.382z" fill="#6b4003" style="font-variant-east_asian:normal"/><path d="m12.46 9.823c-0.1299 0-0.3307 0.07087-0.3898 0.2717-0.1191 0.4049-0.3603 0.9154-0.8209 1.736-0.4345 0.7743-0.8977 1.414-0.9213 1.911-0.02866 0.6018-0.03543 1.249 0.6556 1.846 0.501 0.4325 0.8741 0.5197 1.536 0.5197s0.9568-0.1949 1.382-0.5197c0.3446-0.2633 0.8777-1.032 0.6851-1.846-0.196-0.828-0.6251-1.241-0.9568-1.911-0.4151-0.8385-0.6573-1.405-0.7678-1.725-0.08564-0.248-0.2432-0.2835-0.4016-0.2835z" fill="#34abcc"/><path d="m10.56 4.571c0.7871-0.2534 1.788 0.1291 2.514 0.8895 0.5262 0.5512 0.9677 1.348 1.023 1.833 0.01948 0.1706-0.163 0.1485-0.2255 0.02923-0.1378-0.2631-0.6176-0.8238-1.265-1.403-0.6477-0.5793-1.219-0.842-1.954-0.9062-0.3391-0.02963-0.3342-0.3647-0.09187-0.4427z" fill="#6b4003"/></g></svg>
