<svg xmlns="http://www.w3.org/2000/svg" width="1500" height="1200" viewBox="0 0 396.9 317.5"><path d="M346.3.2S307.4 18.7 298 25.3C288.6 32 253.2 50 253.2 50s1.6-4.3 4-9c2.3-4.7 11.8-17.2 11.8-17.2s-7.1.7-11 2.3c-4 1.7-25.1 17-31.7 22.5a332 332 0 0 1-27.9 17.7 33 33 0 0 1-2.8-11.8c-.8-8.3-7.4-37.7-7.4-37.7s-5.9 8.3-8.3 15.3c-2.3 7.1-6.6 29.8-6.6 29.8s-5.9-2.7-8.7-6.2c-2.7-3.6-25.1-30.3-25.1-30.3s-1.6 9.1-1.6 13.8c0 4.7 1.2 25.5 1.2 25.5s-10.6-10.6-16.5-15.3c-5.9-4.7-60.5-41.6-60.5-41.6s2.8 18 5.9 29.8c3.3 11.8 28.5 73 28.5 73s-28.2-11.4-38-17.2c-9.8-6-40-17-40-17s29.4 29.1 33.7 37c4.3 7.7 21 20.5 21 20.5l-24-.8L84.4 168s-12.5 1.2-24.3 3.2-33.4 9.4-33.4 9.4a60 60 0 0 1 8.3 4c3.1 2 13.3 12.1 13.3 12.1s-22.8-5-29.1-6.7c-6.2-1.5-19.2-.4-19.2-.4s15.8 27.1 18.6 32.6a569 569 0 0 0 22 32.3L10 257s10 6.6 14.2 10.4c4.2 3.8 19.2 11.7 19.2 11.7s-16.7 19.6-24.6 23.4a78.6 78.6 0 0 0-17.5 13.8s36.3-7.1 45.5-6.7c9.2.4 13.3 0 13.3 0l-23.3 11.7 350.3 2s-4.5-12.5-15-17.5c-10.4-5-28-11.3-30.9-14.6-3-3.3-11.3-11.3-11.3-11.3s38.9 13.8 49.3 12.6c10.5-1.3 20.5-.5 20.5-.5s-8.8-19.6-21.7-25.4c-13-5.9-33-13.8-33-13.8s15.8-3.8 21.3-9.2c5.4-5.4 20-17.1 20-17.1s-49.3 11.3-55.1 9.2a108 108 0 0 0-14.6-3.3 485 485 0 0 0 16.4-7.9c10.6-5.9 63.3-19.6 63.3-19.6s-4.3-7.5-19.3-12.2c-14.9-4.7-74.6-4.3-74.6-4.3s6.7-8.3 16.9-18.4c10.2-10.3 25.9-19.3 33.8-24 7.9-4.9 38.4-32.7 38.4-32.7s-45.9 14.8-56.1 20.8c-10.2 6-51 22-51 22s4.6-5 8.6-11c4-5.8 20.7-21.2 20.7-21.2l-40.8 6.2 5.1-20a177 177 0 0 1 25.5-48.7A1370 1370 0 0 0 346.3.2z" fill="#fdfe00"/><path d="M195.3 258.3c2.4-6.1 4.1-13 4.7-26 .5-13-5.6-27.3-7.2-34-1.7-6.6-5.3-10-5.9-13.8-.5-4-1-5-3.3-9.2-2.2-4.2 8-1 8-1l44.5-7.6 24.1-41.6s4.2 13 7.8 25.2c3.6 12.2 7 26.4 8.6 37 1.7 10.5 8.9 22.4 8.9 34.4 0 0-2.3 24.8-.3 37 3.9 23.8 23.4 68.8 23.4 68.8l-147.4-2.7s18.6-26.5 34.1-66.5z" fill="#ff017e" stroke="black" stroke-width="2.7"/><path d="M245 175.1s-20 11.6-24.5 10.5c-4.4-1-18.8.5-21.9-1-3-1.8-15.3-3.7-18.3-11-3-7.2-5.9-16.9-9-20-3-3-10.5-15.8-10.5-15.8s-2.2-10-2.2-13.9c0-3.8 4.7-26 4.7-26s5.3-6.4 9.2-9a96 96 0 0 1 26.7-6.6c2.5.6 21 0 25.2-2.8 4.2-2.8 24.7 11.1 24.7 11.1s7 7 8.4 13.4c1.3 6.3 8.3 17 5.5 23-2.8 6.1-3 3.6-4.4 9.7-1.4 6.1 2.2 4.7-1.7 14.4-3.9 9.8-7.5 20-7.5 20z" fill="white" stroke="black" stroke-width="2.5"/><path d="M172.8 89.5s-6.2-4-9.5-6.6c-3.4-2.5-14-6.4-14-6.4s3.7-3.9 14-6a66 66 0 0 1 19.1-2.6c4.4.4 13.1 3 15.8 7.7 2.6 4.5 3 7.4 3 7.4z" fill="#feff99" stroke="black" stroke-width="2.5"/><path d="M172 156.4L67.2 219.6" fill="none" stroke="black" stroke-width="2.2"/><path d="M264.3 122.1L276.5 5.4l-9.2-1 2.5 8h3.5l.4-5.6" fill="none" stroke="black" stroke-width="2.5"/><path d="M236.4 157.8l-3.7.8s-.2 3.2-2.5 5.5l-3.8 4s-6.7 1-10.9 1c-4.1 0-5.5 1-8.2.6-2.6-.4-15.6-6.8-15.6-6.8s-.9-16-.6-15c.3.7-2-4.8-5.8-7.9l-18.6-15.2s.5-4.3 1-5.6c.4-1.2 5.4-6.2 6-7.5.7-1.2 2.7-2.5 5.9-4 3.2-1.8 19.3-11.5 26.2-12.4 7-.8 13.3-.4 15.4 1a55.5 55.5 0 0 1 11.7 19.6 368 368 0 0 1 3.7 20.8z"/><path d="M168.8 122.2l6.2-7.3.3-3 5.2-2.9 2.2 2.7.2 1c0 .6-.5 1-.5 1l-4.1 2.3.4 3.2-4.6 2.1-.7 4.3s-2-.7-2.7-1.4zm14.5-13.8l3.6-1.2 1.3-1.6 2.7.1s1.1-2.3 3.3-3c2.3-1 4.4-1.5 4.4-1.5s2.3-2.2 2.8-2.4c.4 0 1.3 0 1.6.2l2.7 2.3s-1.4 1.7-2.4 2.2c-1.1.4-3.2.6-3.2.6s-1.2 2.1-3.4 3c-2.3 1-4.9 1-4.9 1l-.4 1.8-5.7 3c-.4 0-1-.3-1.3-.4l-.8-1.5zm37.2-6.5s-6 .3-8 .6a87 87 0 0 0-5.3.8s-1.3-.5-1.3-2.8.8-2.3.8-2.3 1.7-.2 2.6 0h1.6l3.1-1 1.6 1.1s1.7-.8 2.6-.8c1 0 2.2 0 2.3 1.5v3zm-21.4 61.8s-1.6-.3-3-.8-2.2-1-2.2-1l-.5-3.2 4 1 1 2 .7 2zm.4-1.7v3.2s2.2-.4 5-.3c2.8.2 13.6 1.5 17.2 1 3.6-.4 5.2-1.3 7.5-5.5l2.3-4 4.3-2.8s-.4-1.2-1-1.8l-1.2-.8-2 .4s-1.9 2.4-2.8 3.3c-.8.8-1.4 1.2-2 2.2l-1 2.1s-7 4.3-8 4.5c-1 .3-11.7.5-11.7.5s-1.3-1.3-3.2-1.7c-1.8-.3-3.4-.3-3.4-.3zm34.5-14.7c1 .1 1.6.6 1.7 1.2.1.6 0 1.6-1.1 1.6a2 2 0 0 1-1.8-1c-.3-.6.1-1.9 1.1-1.8zm-.9-4.4l3.2.8s.1 1.3-1.6 2c-1.6.8-2.2.4-2.2.4z" fill="white"/><circle cx="158.8" cy="108.3" r="11.7" fill="white" stroke="black" stroke-width="2.7"/><circle r="13" cy="84.3" cx="236.5" fill="white" stroke="black" stroke-width="2.7"/><path d="M152.7 107.1h2.2v2h-2.2z"/><ellipse cx="240.9" cy="82.2" rx="1.4" ry="1.6"/></svg>
