<svg xmlns="http://www.w3.org/2000/svg" viewBox="0 0 396.9 264.6" height="1000" width="1500"><path d="M320.5 264.4H41.3s-20-27.9-22.7-33.4C15.8 225.5 0 198.4 0 198.4s13-1.1 19.2.4c6.3 1.6 29.1 6.7 29.1 6.7s-10.2-10.2-13.3-12.2a60 60 0 0 0-8.3-3.9s21.6-7.4 33.4-9.4c11.8-2 24.3-3.2 24.3-3.2L49.2 142l24 .8S56.5 130 52.2 122.3c-4.3-7.9-33.7-37-33.7-37s30.2 11 40 17c9.8 5.8 38 17.2 38 17.2S71.3 58.3 68 46.5c-3.1-11.8-5.9-29.8-5.9-29.8s54.6 36.9 60.5 41.6c5.9 4.7 16.5 15.3 16.5 15.3s-1.2-20.8-1.2-25.5c0-4.7 1.6-13.8 1.6-13.8s22.4 26.7 25.1 30.3c2.8 3.5 8.7 6.2 8.7 6.2s4.3-22.7 6.6-29.8c2.4-7 8.3-15.3 8.3-15.3s6.6 29.4 7.4 37.7a33 33 0 0 0 2.8 11.8s21.2-12.2 27.9-17.7C232.9 52 254 36.7 258 35c3.9-1.6 11-2.3 11-2.3s-9.5 12.5-11.8 17.2c-2.4 4.7-4 9-4 9s35.4-18 44.8-24.7c9.4-6.6 48.3-25.1 48.3-25.1s-33 49.5-42.8 61.2a177 177 0 0 0-25.5 48.7l-5.1 20 40.8-6.2S297 148.2 293 154c-4 5.9-8.6 11-8.6 11s40.8-16.1 51-22c10.2-6 56.1-20.8 56.1-20.8S361 150 353.1 154.9c-7.9 4.7-23.6 13.7-33.8 24-10.2 10.1-16.9 18.4-16.9 18.4s59.7-.4 74.6 4.3c15 4.7 19.3 12.2 19.3 12.2s-52.7 13.7-63.3 19.6a484.9 484.9 0 0 1-30.2 14.5z" fill="#fdfe00"/><path d="M195.3 267.2c.6-1.4 4.1-13 4.7-26 .5-13.1-5.6-27.3-7.2-34-1.7-6.6-5.3-10-5.9-13.8-.5-4-1-5-3.3-9.2-2.2-4.2 8-1.1 8-1.1l44.5-7.5 24.1-41.6s4.2 13 7.8 25.2c3.6 12.2 7 26.4 8.6 37 1.7 10.5 8.9 22.4 8.9 34.4l-.3 36.9z" fill="#ff017e" stroke="black" stroke-width="2.7"/><path d="M245 184s-20 11.6-24.5 10.5c-4.4-1.1-18.8.5-21.9-1.1-3-1.7-15.3-3.6-18.3-10.9-3-7.2-5.9-16.9-9-20-3-3-10.5-15.8-10.5-15.8s-2.2-10-2.2-13.9c0-3.8 4.7-26 4.7-26s5.3-6.4 9.2-9a96 96 0 0 1 26.7-6.6c2.5.6 21 0 25.2-2.8 4.2-2.8 24.7 11.1 24.7 11.1s7 7 8.4 13.4c1.3 6.3 8.3 16.9 5.5 23-2.8 6.1-3 3.6-4.4 9.7-1.4 6.1 2.2 4.7-1.7 14.4-3.9 9.8-12 24-12 24z" fill="white" stroke="black" stroke-width="2.5"/><path d="M172.8 98.4s-6.2-4-9.5-6.6c-3.4-2.5-14-6.4-14-6.4s3.7-3.9 14-6a66 66 0 0 1 19.1-2.6c4.4.4 13.1 3 15.8 7.7 2.6 4.5 3 7.4 3 7.4z" fill="#feff99" stroke="black" stroke-width="2.5"/><path d="M172 165.3L67.2 228.5" fill="none" stroke="black" stroke-width="2.2"/><path d="M264.3 131l12.2-116.7-9.2-1 2.5 7.9h3.5l.4-5.5" fill="none" stroke="black" stroke-width="2.5"/><path d="M236.4 166.7l-3.7.8s-.2 3.2-2.5 5.5l-3.8 4s-6.7 1-10.9 1c-4.1 0-5.5 1-8.2.6-2.6-.4-15.6-6.8-15.6-6.8s-.9-16-.6-15c.3.7-2-4.8-5.8-7.9l-18.6-15.2s.5-4.3 1-5.6c.4-1.2 5.4-6.2 6-7.5.7-1.2 2.7-2.5 5.9-4.1 3.2-1.7 19.3-11.4 26.2-12.3 7-.8 13.3-.4 15.4.9 2.1 1.2 10.4 13.7 11.7 19.7a368 368 0 0 1 3.7 20.8l-.2 21.1z"/><path d="M168.8 131.1l6.2-7.3.3-3 5.2-2.9 2.2 2.7.2 1c0 .6-.5 1-.5 1l-4.1 2.3.4 3.2-4.6 2.1-.7 4.3s-2-.7-2.7-1.4l-1.9-2zM183.3 117.3l3.6-1.2 1.3-1.6 2.7.1s1.1-2.3 3.3-3.1c2.3-1 4.4-1.4 4.4-1.4s2.3-2.2 2.8-2.4c.4-.1 1.3 0 1.6.2l2.7 2.3s-1.4 1.7-2.4 2.2c-1.1.4-3.2.6-3.2.6s-1.2 2.1-3.4 3c-2.3 1-4.9 1-4.9 1l-.4 1.8-5.7 2.9c-.4.1-1-.2-1.3-.3l-.8-1.5zM220.5 110.8s-6 .3-8 .6a87 87 0 0 0-5.3.8s-1.3-.5-1.3-2.8.8-2.3.8-2.3 1.7-.2 2.6-.1h1.6l3.1-1 1.6 1.2s1.7-.8 2.6-.8c1 0 2.2 0 2.3 1.5v3zM199.1 172.6s-1.6-.3-3-.8-2.2-1-2.2-1l-.5-3.2 4 .9 1 2 .7 2zM199.5 170.9v3.2s2.2-.4 5-.3c2.8.2 13.6 1.5 17.2 1 3.6-.4 5.2-1.3 7.5-5.5l2.3-4 4.3-2.8s-.4-1.2-1-1.8l-1.2-.8-2 .4s-1.9 2.4-2.8 3.3c-.8.8-1.4 1.2-2 2.2l-1 2.1s-7 4.3-8 4.5c-1 .3-11.7.5-11.7.5s-1.3-1.3-3.2-1.7c-1.8-.3-3.4-.3-3.4-.3zM234 156.2c1 .1 1.6.6 1.7 1.2.1.6 0 1.6-1.1 1.6-1 0-1.5-.5-1.8-1-.3-.6.1-1.9 1.1-1.8zM233.1 151.8l3.2.8s.1 1.3-1.6 2c-1.6.8-2.2.4-2.2.4z" fill="white"/><circle r="11.7" cy="117.2" cx="158.8" fill="white" stroke="black" stroke-width="2.7"/><circle cx="236.5" cy="93.2" r="13" fill="white" stroke="black" stroke-width="2.7"/><path d="M152.7 116h2.2v2h-2.2z"/><ellipse ry="1.6" rx="1.4" cy="91.1" cx="240.9"/></svg>
