<?xml version="1.0" encoding="UTF-8" standalone="no"?>
<svg
   xmlns:dc="http://purl.org/dc/elements/1.1/"
   xmlns:cc="http://creativecommons.org/ns#"
   xmlns:rdf="http://www.w3.org/1999/02/22-rdf-syntax-ns#"
   xmlns:svg="http://www.w3.org/2000/svg"
   xmlns="http://www.w3.org/2000/svg"
   id="svg8"
   version="1.1"
   viewBox="0 0 396.87499 264.58334"
   height="1000"
   width="1500">
  <defs
     id="defs2" />
  <metadata
     id="metadata5">
    <rdf:RDF>
      <cc:Work
         rdf:about="">
        <dc:format>image/svg+xml</dc:format>
        <dc:type
           rdf:resource="http://purl.org/dc/dcmitype/StillImage" />
        <dc:title></dc:title>
      </cc:Work>
    </rdf:RDF>
  </metadata>
  <g
     style="display:inline"
     id="layer2">
    <path
       id="path827"
       d="M 320.48411,264.4014 H 41.332838 c 0,0 -20.023508,-27.87586 -22.771833,-33.37251 -2.748326,-5.49665 -18.45303789,-32.58728 -18.45303789,-32.58728 0,0 12.95638789,-1.17785 19.23827289,0.39261 6.281886,1.57048 29.053719,6.67451 29.053719,6.67451 0,0 -10.208064,-10.20806 -13.349006,-12.17115 -3.140942,-1.9631 -8.244974,-3.92619 -8.244974,-3.92619 0,0 21.59398,-7.45973 33.372515,-9.42282 11.778535,-1.96309 24.342305,-3.14095 24.342305,-3.14095 l -35.335604,-34.94298 23.949688,0.78524 c 0,0 -16.489949,-12.56377 -20.808746,-20.41613 -4.318796,-7.85236 -33.765132,-36.906074 -33.765132,-36.906074 0,0 30.231572,10.9933 40.047019,16.882574 9.815444,5.88925 38.083929,17.27518 38.083929,17.27518 0,0 -25.520161,-61.248383 -28.661102,-73.026917 -3.140943,-11.778536 -5.889269,-29.838955 -5.889269,-29.838955 0,0 54.573878,36.906074 60.463148,41.617489 5.88927,4.711415 16.48995,15.312094 16.48995,15.312094 0,0 -1.17785,-20.808745 -1.17785,-25.520159 0,-4.711415 1.57046,-13.741624 1.57046,-13.741624 0,0 22.37921,26.698013 25.12755,30.231573 2.74832,3.53356 8.63759,6.281884 8.63759,6.281884 0,0 4.3188,-22.771833 6.6745,-29.838952 2.35572,-7.067122 8.24497,-15.312096 8.24497,-15.312096 0,0 6.67451,29.446338 7.45974,37.691312 0.78524,8.244973 2.74833,11.778533 2.74833,11.778533 0,0 21.20136,-12.17115 27.87586,-17.667801 6.67451,-5.496649 27.87587,-20.808745 31.80205,-22.379218 3.92617,-1.57047 10.99328,-2.355705 10.99328,-2.355705 0,0 -9.42282,12.56377 -11.77852,17.275185 -2.3557,4.711414 -3.92617,9.030208 -3.92617,9.030208 0,0 35.3356,-18.060418 44.75842,-24.734923 9.42282,-6.674501 48.29199,-25.1275399 48.29199,-25.1275399 0,0 -32.97989,49.4698469 -42.79534,61.2483789 -9.81545,11.778538 -23.16445,38.869163 -25.52015,48.684613 -2.3557,9.81545 -5.10402,20.0235 -5.10402,20.0235 l 40.83224,-6.28188 c 0,0 -16.88257,15.31209 -20.80874,21.20137 -3.92618,5.88926 -8.6376,10.99329 -8.6376,10.99329 0,0 40.83227,-16.09732 51.04031,-21.9866 10.20808,-5.88926 56.14435,-20.80874 56.14435,-20.80874 0,0 -30.62417,27.87587 -38.47654,32.58729 -7.85235,4.7114 -23.55709,13.74161 -33.76512,23.94968 -10.20808,10.20807 -16.88259,18.45304 -16.88259,18.45304 0,0 59.67794,-0.39262 74.5974,4.31879 14.91948,4.71142 19.23828,12.17115 19.23828,12.17115 0,0 -52.6108,13.74163 -63.21148,19.6309 -10.60067,5.88927 -30.23157,14.52685 -30.23157,14.52685 z"
       style="fill:#fdfe00;fill-opacity:1;stroke:none;stroke-width:0.27483246px;stroke-linecap:butt;stroke-linejoin:miter;stroke-opacity:1" />
    <path
       id="path830"
       d="m 195.29624,267.21831 c 0.55525,-1.38811 4.13329,-13.05766 4.68854,-26.10593 0.55525,-13.04826 -5.55246,-27.20702 -7.2182,-33.86998 -1.66574,-6.66294 -5.27483,-9.99441 -5.83008,-13.88114 -0.55524,-3.8867 -1.11049,-4.9972 -3.33148,-9.16153 -2.22096,-4.16435 8.05107,-1.1105 8.05107,-1.1105 l 44.41963,-7.49581 24.15318,-41.64341 c 0,0 4.16435,13.04827 7.77344,25.26366 3.60909,12.21541 6.94056,26.37417 8.60629,36.92383 1.66576,10.54966 8.88393,22.48744 8.88393,34.42521 0,11.93778 -0.27761,36.93322 -0.27761,36.93322 z"
       style="display:inline;fill:#ff017e;fill-opacity:1;stroke:#000000;stroke-width:2.74832487;stroke-linecap:butt;stroke-linejoin:miter;stroke-miterlimit:4;stroke-dasharray:none;stroke-opacity:1" />
    <path
       id="path833"
       d="m 244.95965,183.9221 c 0,0 -19.98883,11.66015 -24.4308,10.54966 -4.44196,-1.11049 -18.87834,0.55524 -21.93219,-1.11049 -3.05386,-1.66574 -15.26926,-3.6091 -18.3231,-10.82727 -3.05385,-7.2182 -5.83008,-16.93501 -8.88394,-19.98885 -3.05384,-3.05385 -10.54966,-15.82449 -10.54966,-15.82449 0,0 -2.22098,-9.99442 -2.22098,-13.88114 0,-3.88672 4.7196,-26.09653 4.7196,-26.09653 0,0 5.27483,-6.38533 9.16154,-8.883936 3.88672,-2.498603 24.15318,-7.218188 26.65178,-6.662945 2.49861,0.555247 21.09933,0 25.26367,-2.776226 4.16435,-2.776227 24.70842,11.104905 24.70842,11.104905 0,0 6.94057,6.940572 8.32869,13.325892 1.3881,6.38533 8.32867,16.935 5.55245,23.04268 -2.77623,6.10771 -3.05385,3.60911 -4.44195,9.71681 -1.38813,6.1077 2.22096,4.71958 -1.66574,14.43637 -3.88672,9.71681 -11.93779,23.87556 -11.93779,23.87556 z"
       style="display:inline;fill:#ffffff;fill-opacity:1;stroke:#000000;stroke-width:2.47349215;stroke-linecap:butt;stroke-linejoin:miter;stroke-miterlimit:4;stroke-dasharray:none;stroke-opacity:1" />
    <path
       id="path890"
       d="m 172.84715,98.414304 c 0,0 -6.24651,-4.094939 -9.57799,-6.593543 -3.33147,-2.498604 -14.01994,-6.454726 -14.01994,-6.454726 0,0 3.7479,-3.817314 14.08936,-6.038296 10.34144,-2.220981 14.71399,-2.845632 19.08655,-2.498604 4.37255,0.347029 13.11767,3.053849 15.75509,7.634625 2.63741,4.580776 2.98445,7.426406 2.98445,7.426406 z"
       style="fill:#feff99;fill-opacity:1;stroke:#000000;stroke-width:2.47349215;stroke-linecap:butt;stroke-linejoin:miter;stroke-miterlimit:4;stroke-dasharray:none;stroke-opacity:1" />
    <path
       id="path893"
       d="M 172.08369,165.32137 67.142297,228.48054"
       style="fill:none;stroke:#000000;stroke-width:2.19865966;stroke-linecap:butt;stroke-linejoin:miter;stroke-miterlimit:4;stroke-dasharray:none;stroke-opacity:1" />
    <path
       id="path895"
       d="m 264.33976,130.91134 12.17116,-116.607491 -9.22652,-1.079698 2.55202,7.950511 3.48448,-0.04909 0.34354,-5.447572"
       style="fill:none;stroke:#000000;stroke-width:2.47349215;stroke-linecap:butt;stroke-linejoin:miter;stroke-miterlimit:4;stroke-dasharray:none;stroke-opacity:1" />
    <path
       id="path845"
       d="m 236.35334,166.70949 -3.60909,0.83287 c 0,0 -0.27762,3.19266 -2.4986,5.41365 -2.22098,2.22097 -3.88672,4.02552 -3.88672,4.02552 0,0 -6.66294,0.97168 -10.82729,0.97168 -4.16434,0 -5.55245,1.11049 -8.18986,0.69406 -2.63742,-0.41643 -15.68569,-6.80175 -15.68569,-6.80175 0,0 -0.83287,-15.96331 -0.55525,-15.13045 0.27763,0.83288 -2.08217,-4.71958 -5.83008,-7.77343 -3.74791,-3.05385 -18.60072,-15.26926 -18.60072,-15.26926 0,0 0.55525,-4.30314 0.97168,-5.55244 0.41644,-1.24932 5.41364,-6.24652 6.10771,-7.49582 0.69405,-1.24931 2.63741,-2.4986 5.83008,-4.16434 3.19266,-1.66574 19.29478,-11.38253 26.23535,-12.2154 6.94056,-0.83287 13.32588,-0.41644 15.40805,0.83287 2.08218,1.2493 10.41085,13.74232 11.66015,19.7112 1.2493,5.9689 3.74791,19.5724 3.74791,20.82172 0,1.2493 -0.27763,21.09932 -0.27763,21.09932 z"
       style="display:inline;opacity:1;fill:#000000;fill-opacity:1;stroke:none;stroke-width:0.27483246px;stroke-linecap:butt;stroke-linejoin:miter;stroke-opacity:1" />
    <path
       id="path848"
       d="m 168.81094,131.13219 6.20827,-7.3125 0.24539,-3.0428 5.25125,-2.87101 2.1594,2.65017 c 0,0 0.26993,0.5153 0.22085,1.10424 -0.0491,0.58892 -0.53985,0.957 -0.53985,0.957 l -4.09795,2.30663 0.39262,3.16549 -4.58871,2.1594 -0.61347,4.29425 c 0,0 -1.96309,-0.7607 -2.77286,-1.47231 -0.80978,-0.71162 -1.86494,-1.93856 -1.86494,-1.93856 z"
       style="display:inline;opacity:1;fill:#ffffff;fill-opacity:1;stroke:none;stroke-width:0.27483246px;stroke-linecap:butt;stroke-linejoin:miter;stroke-opacity:1" />
    <path
       id="path850"
       d="m 183.34476,117.29265 3.55704,-1.19725 1.30136,-1.56162 2.65477,0.0694 c 0,0 1.14519,-2.25567 3.38352,-3.1406 2.23833,-0.88492 4.40726,-1.38811 4.40726,-1.38811 0,0 2.27304,-2.16893 2.70683,-2.34245 0.43378,-0.17351 1.37076,-0.0868 1.64837,0.17352 0.27763,0.26027 2.68948,2.29038 2.68948,2.29038 0,0 -1.3534,1.73514 -2.4292,2.18628 -1.07579,0.45114 -3.17531,0.5726 -3.17531,0.5726 0,0 -1.16254,2.16892 -3.43558,3.08855 -2.27304,0.91963 -4.8237,0.98903 -4.8237,0.98903 l -0.45113,1.80455 c 0,0 -5.32688,2.72417 -5.72597,2.84564 -0.39908,0.12146 -1.00638,-0.13882 -1.2146,-0.31233 -0.20822,-0.17352 -0.86756,-1.42281 -0.86756,-1.42281 z"
       style="display:inline;opacity:1;fill:#ffffff;fill-opacity:1;stroke:none;stroke-width:0.27483246px;stroke-linecap:butt;stroke-linejoin:miter;stroke-opacity:1" />
    <path
       id="path852"
       d="m 220.4768,110.83792 c 0,0 -5.93419,0.29497 -8.03371,0.52054 -2.09952,0.22558 -5.25748,0.81551 -5.25748,0.81551 0,0 -1.28401,-0.50319 -1.26665,-2.81092 0.0173,-2.30775 0.78081,-2.25569 0.78081,-2.25569 0,0 1.71779,-0.17351 2.62006,-0.15616 0.90228,0.0174 1.59633,0.0521 1.59633,0.0521 l 3.12327,-1.00638 1.56163,1.2146 c 0,0 1.71779,-0.85021 2.63741,-0.85021 0.91962,0 2.11688,0 2.22099,1.50956 0.1041,1.50957 0.0173,2.9671 0.0173,2.9671 z"
       style="display:inline;opacity:1;fill:#ffffff;fill-opacity:1;stroke:none;stroke-width:0.27483246px;stroke-linecap:butt;stroke-linejoin:miter;stroke-opacity:1" />
    <path
       id="path862"
       d="m 199.13455,172.57427 c 0,0 -1.68308,-0.26027 -3.07121,-0.76346 -1.3881,-0.5032 -2.13421,-1.05844 -2.13421,-1.05844 l -0.52054,-3.12325 3.92141,0.83286 c 0,0 0.5032,0.6073 1.02374,1.96072 0.52055,1.3534 0.78081,2.15157 0.78081,2.15157 z"
       style="display:inline;opacity:1;fill:#ffffff;fill-opacity:1;stroke:none;stroke-width:0.27483246px;stroke-linecap:butt;stroke-linejoin:miter;stroke-opacity:1" />
    <path
       id="path864"
       d="m 199.51628,170.85648 -0.0347,3.27942 c 0,0 2.20363,-0.46849 5.03191,-0.29497 2.82829,0.17351 13.56882,1.45751 17.16056,1.02373 3.59175,-0.43378 5.25748,-1.37077 7.53051,-5.58715 2.27304,-4.2164 2.29039,-4.0429 2.29039,-4.0429 l 4.32051,-2.72416 c 0,0 -0.38174,-1.1799 -1.0758,-1.7872 -0.69404,-0.6073 -1.16253,-0.85021 -1.16253,-0.85021 l -1.97807,0.39907 c 0,0 -1.89131,2.41185 -2.75888,3.27942 -0.86756,0.86757 -1.47487,1.24931 -1.97805,2.22099 -0.5032,0.97167 -1.09316,2.13422 -1.09316,2.13422 0,0 -7.06201,4.28581 -7.98163,4.52872 -0.91963,0.24292 -11.71222,0.41644 -11.71222,0.41644 0,0 -1.284,-1.30137 -3.1406,-1.61368 -1.85661,-0.31233 -3.41824,-0.38174 -3.41824,-0.38174 z"
       style="display:inline;opacity:1;fill:#ffffff;fill-opacity:1;stroke:none;stroke-width:0.27483246px;stroke-linecap:butt;stroke-linejoin:miter;stroke-opacity:1" />
    <path
       id="path866"
       d="m 233.9415,156.19453 c 0.97168,0.12146 1.68309,0.57259 1.76985,1.17989 0.0868,0.60731 -0.0347,1.6484 -1.11049,1.59634 -1.07579,-0.0521 -1.52693,-0.43378 -1.8219,-1.00638 -0.29497,-0.5726 0.15616,-1.82191 1.16254,-1.76985 z"
       style="display:inline;opacity:1;vector-effect:none;fill:#ffffff;fill-opacity:1;stroke:none;stroke-width:0.27483246px;stroke-linecap:butt;stroke-linejoin:miter;stroke-miterlimit:4;stroke-dasharray:none;stroke-dashoffset:0;stroke-opacity:1" />
    <path
       id="path882"
       d="m 233.12599,151.80462 3.19266,0.78081 c 0,0 0.10411,1.31871 -1.57899,2.04746 -1.68308,0.72878 -2.25567,0.36439 -2.25567,0.36439 z"
       style="display:inline;opacity:1;vector-effect:none;fill:#ffffff;fill-opacity:1;stroke:none;stroke-width:0.27483246px;stroke-linecap:butt;stroke-linejoin:miter;stroke-miterlimit:4;stroke-dasharray:none;stroke-dashoffset:0;stroke-opacity:1" />
    <circle
       r="11.72956"
       cy="117.22324"
       cx="158.75778"
       id="path836"
       style="display:inline;opacity:1;vector-effect:none;fill:#ffffff;fill-opacity:1;stroke:#000000;stroke-width:2.74832487;stroke-linecap:round;stroke-linejoin:miter;stroke-miterlimit:4;stroke-dasharray:none;stroke-dashoffset:0;stroke-opacity:1;marker:none" />
    <circle
       style="display:inline;opacity:1;vector-effect:none;fill:#ffffff;fill-opacity:1;stroke:#000000;stroke-width:2.74832487;stroke-linecap:round;stroke-linejoin:miter;stroke-miterlimit:4;stroke-dasharray:none;stroke-dashoffset:0;stroke-opacity:1;marker:none"
       id="circle838"
       cx="236.49216"
       cy="93.20887"
       r="12.978863" />
    <rect
       y="115.96732"
       x="152.71361"
       height="2.036705"
       width="2.2084751"
       id="rect840"
       style="display:inline;opacity:1;vector-effect:none;fill:#000000;fill-opacity:1;stroke:none;stroke-width:2.74832487;stroke-linecap:round;stroke-linejoin:miter;stroke-miterlimit:4;stroke-dasharray:none;stroke-dashoffset:0;stroke-opacity:1;marker:none" />
    <ellipse
       ry="1.5582019"
       rx="1.4477782"
       cy="91.146515"
       cx="240.85628"
       id="path842"
       style="display:inline;opacity:1;vector-effect:none;fill:#000000;fill-opacity:1;stroke:none;stroke-width:2.74832487;stroke-linecap:round;stroke-linejoin:miter;stroke-miterlimit:4;stroke-dasharray:none;stroke-dashoffset:0;stroke-opacity:1;marker:none" />
  </g>
</svg>
