<?xml version="1.0" encoding="UTF-8"?>
<!-- Created with Inkscape (http://www.inkscape.org/) -->
<svg width="64" height="64" version="1.1" viewBox="0 0 16.933 16.933" xmlns="http://www.w3.org/2000/svg" xmlns:cc="http://creativecommons.org/ns#" xmlns:dc="http://purl.org/dc/elements/1.1/" xmlns:rdf="http://www.w3.org/1999/02/22-rdf-syntax-ns#">
 <defs>
  <clipPath id="clipPath1034">
   <path d="m892.96 295.97h22.789v-23.147h-22.789z"/>
  </clipPath>
  <clipPath id="clipPath1018">
   <path d="m921.97 159.08h23.149v-22.786h-23.149z"/>
  </clipPath>
  <clipPath id="clipPath1002">
   <path d="m954.27 215.97h22.384v-23.268h-22.384z"/>
  </clipPath>
  <clipPath id="clipPath986">
   <path d="m912.77 197.97h22.384v-23.268h-22.384z"/>
  </clipPath>
  <clipPath id="clipPath970">
   <path d="m725.43 179.04h22.384v-23.268h-22.384z"/>
  </clipPath>
  <clipPath id="clipPath954">
   <path d="m794.93 159.04h22.384v-23.268h-22.384z"/>
  </clipPath>
  <clipPath id="clipPath938">
   <path d="m762.93 194.54h22.384v-23.268h-22.384z"/>
  </clipPath>
  <clipPath id="clipPath922">
   <path d="m785.93 273.04h22.384v-23.268h-22.384z"/>
  </clipPath>
  <clipPath id="clipPath906">
   <path d="m865.93 218.54h22.384v-23.268h-22.384z"/>
  </clipPath>
  <clipPath id="clipPath890">
   <path d="m806.43 234.04h22.384v-23.268h-22.384z"/>
  </clipPath>
  <clipPath id="clipPath874">
   <path d="m862.43 267.04h22.384v-23.268h-22.384z"/>
  </clipPath>
  <clipPath id="clipPath858">
   <path d="m879.65 147.71h23.215v-22.629h-23.215z"/>
  </clipPath>
  <clipPath id="clipPath842">
   <path d="m850.15 178.21h23.215v-22.629h-23.215z"/>
  </clipPath>
 </defs>
 <metadata>
  <rdf:RDF>
   <cc:Work rdf:about="">
    <dc:format>image/svg+xml</dc:format>
    <dc:type rdf:resource="http://purl.org/dc/dcmitype/StillImage"/>
    <dc:title/>
   </cc:Work>
  </rdf:RDF>
 </metadata>
 <g transform="translate(0 -280.07)">
  <g transform="matrix(.046041 0 0 -.046041 9.3833 291.8)">
   <path d="m0 0c-1.695 5.424-8.558 94.6-36.667 141.33-32.82 54.567-97.833 27.667-99.333-13.833 0 0 63.779 76.994 69.535-132.21" fill="#66b32e" stroke="#1d1d1b" stroke-miterlimit="10" stroke-width="3"/>
  </g>
  <g transform="matrix(.046041 0 0 -.046041 4.9863 291.79)">
   <path d="m0 0c0 7 1.718 39.724-33 42-30.5 2-42-22-48.5-45 0 0-17.5 21-3.5 54 17.944 42.298 109.33 90.834 154.67-46.5" fill="#e2de00" stroke="#1d1d1b" stroke-miterlimit="10" stroke-width="3"/>
  </g>
  <g transform="matrix(.046041 0 0 -.046041 13.124 291.72)">
   <path d="m0 0c-8.386 13.57-16.417 35.75-9.198 54.816 10.823 28.585 43.894 17.926 65.667 8.068 0 0-10.284 34.046-43.219 48.199-40.333 17.334-98-24.666-88.333-110" fill="#3562ac" stroke="#1d1d1b" stroke-miterlimit="10" stroke-width="3"/>
  </g>
  <g transform="matrix(.046041 0 0 -.046041 8.2476 291.62)">
   <path d="m0 0c0 6-30.271 81.379-12 137.33 21.334 65.334 123.83 71.834 123.17 19.167 0 0-120.5 55.5-39.833-157.17" fill="#e52520" stroke="#1d1d1b" stroke-miterlimit="10" stroke-width="3"/>
  </g>
  <g transform="matrix(.046041 0 0 -.046041 14.103 284.83)">
   <path d="m0 0c0-7.732-6.268-14-14-14s-14 6.268-14 14 6.268 14 14 14 14-6.268 14-14" fill="#f3e600"/>
  </g>
  <g transform="matrix(.046041 0 0 -.046041 14.103 284.83)">
   <path d="m0 0c0-7.732-6.268-14-14-14s-14 6.268-14 14 6.268 14 14 14 14-6.268 14-14z" fill="none" stroke="#1d1d1b" stroke-miterlimit="10" stroke-width="3"/>
  </g>
  <g transform="matrix(.046041 0 0 -.046041 16.428 289.41)">
   <path d="m0 0c0-7.732-6.268-14-14-14s-14 6.268-14 14 6.268 14 14 14 14-6.268 14-14" fill="#f3e600"/>
  </g>
  <g transform="matrix(.046041 0 0 -.046041 16.428 289.41)">
   <path d="m0 0c0-7.732-6.268-14-14-14s-14 6.268-14 14 6.268 14 14 14 14-6.268 14-14z" fill="none" stroke="#1d1d1b" stroke-miterlimit="10" stroke-width="3"/>
  </g>
  <g transform="matrix(.046041 0 0 -.046041 1.9016 292.35)">
   <path d="m0 0c0-7.732-6.268-14-14-14s-14 6.268-14 14 6.268 14 14 14 14-6.268 14-14" fill="#f3e600"/>
  </g>
  <g transform="matrix(.046041 0 0 -.046041 1.9016 292.35)">
   <path d="m0 0c0-7.732-6.268-14-14-14s-14 6.268-14 14 6.268 14 14 14 14-6.268 14-14z" fill="none" stroke="#1d1d1b" stroke-miterlimit="10" stroke-width="3"/>
  </g>
  <g transform="matrix(.046041 0 0 -.046041 3.536 286.3)">
   <path d="m0 0c0-7.732-6.268-14-14-14s-14 6.268-14 14 6.268 14 14 14 14-6.268 14-14" fill="#f3e600"/>
  </g>
  <g transform="matrix(.046041 0 0 -.046041 3.536 286.3)">
   <path d="m0 0c0-7.732-6.268-14-14-14s-14 6.268-14 14 6.268 14 14 14 14-6.268 14-14z" fill="none" stroke="#1d1d1b" stroke-miterlimit="10" stroke-width="3"/>
  </g>
  <g transform="matrix(.046041 0 0 -.046041 12.978 293.14)">
   <path d="m0 0h-170.99c-6.6 0-12 16.326-12 22.926s5.4 12 12 12h170.99c6.601 0 12-5.4 12-12s-5.399-22.926-12-22.926" fill="#1d1d1b"/>
  </g>
  <g transform="matrix(.046041 0 0 -.046041 -31.064 296.88)">
   <g clip-path="url(#clipPath842)" opacity=".35001">
    <g transform="translate(862.4 155.58)">
     <path d="m0 0-4.145 6.992-8.109 0.551 5.369 6.102-1.982 7.882 7.463-3.22 6.884 4.321-0.757-8.093 6.237-5.212-7.931-1.78z" fill="#fff"/>
    </g>
   </g>
  </g>
  <g transform="matrix(.046041 0 0 -.046041 -31.064 296.88)">
   <g clip-path="url(#clipPath858)" opacity=".35001">
    <g transform="translate(891.9 125.08)">
     <path d="m0 0-4.145 6.992-8.109 0.551 5.369 6.102-1.982 7.882 7.463-3.22 6.884 4.321-0.757-8.093 6.237-5.212-7.931-1.78z" fill="#fff"/>
    </g>
   </g>
  </g>
  <g transform="matrix(.046041 0 0 -.046041 -31.064 296.88)">
   <g clip-path="url(#clipPath874)" opacity=".35001">
    <g transform="translate(875.95 243.77)">
     <path d="m0 0-5.464 6.018-8.055-1.09 4.035 7.056-3.526 7.325 7.958-1.658 5.876 5.617 0.884-8.08 7.157-3.854-7.412-3.337z" fill="#fff"/>
    </g>
   </g>
  </g>
  <g transform="matrix(.046041 0 0 -.046041 -31.064 296.88)">
   <g clip-path="url(#clipPath890)" opacity=".35001">
    <g transform="translate(819.95 210.77)">
     <path d="m0 0-5.464 6.018-8.055-1.09 4.035 7.056-3.526 7.325 7.958-1.658 5.876 5.617 0.884-8.08 7.157-3.854-7.412-3.337z" fill="#fff"/>
    </g>
   </g>
  </g>
  <g transform="matrix(.046041 0 0 -.046041 -31.064 296.88)">
   <g clip-path="url(#clipPath906)" opacity=".35001">
    <g transform="translate(879.45 195.27)">
     <path d="m0 0-5.464 6.018-8.055-1.09 4.035 7.056-3.526 7.325 7.958-1.658 5.876 5.617 0.884-8.08 7.157-3.854-7.412-3.337z" fill="#fff"/>
    </g>
   </g>
  </g>
  <g transform="matrix(.046041 0 0 -.046041 -31.064 296.88)">
   <g clip-path="url(#clipPath922)" opacity=".35001">
    <g transform="translate(799.45 249.77)">
     <path d="m0 0-5.464 6.018-8.055-1.09 4.035 7.056-3.526 7.325 7.958-1.658 5.876 5.617 0.884-8.08 7.157-3.854-7.412-3.337z" fill="#fff"/>
    </g>
   </g>
  </g>
  <g transform="matrix(.046041 0 0 -.046041 -31.064 296.88)">
   <g clip-path="url(#clipPath938)" opacity=".35001">
    <g transform="translate(776.45 171.27)">
     <path d="m0 0-5.464 6.018-8.055-1.09 4.035 7.056-3.526 7.325 7.958-1.658 5.876 5.617 0.884-8.08 7.157-3.854-7.412-3.337z" fill="#fff"/>
    </g>
   </g>
  </g>
  <g transform="matrix(.046041 0 0 -.046041 -31.064 296.88)">
   <g clip-path="url(#clipPath954)" opacity=".35001">
    <g transform="translate(808.45 135.77)">
     <path d="m0 0-5.464 6.018-8.055-1.09 4.035 7.056-3.526 7.325 7.958-1.658 5.876 5.617 0.884-8.08 7.157-3.854-7.412-3.337z" fill="#fff"/>
    </g>
   </g>
  </g>
  <g transform="matrix(.046041 0 0 -.046041 -31.064 296.88)">
   <g clip-path="url(#clipPath970)" opacity=".35001">
    <g transform="translate(738.95 155.77)">
     <path d="m0 0-5.464 6.018-8.055-1.09 4.035 7.056-3.526 7.325 7.958-1.658 5.876 5.617 0.884-8.08 7.157-3.854-7.412-3.337z" fill="#fff"/>
    </g>
   </g>
  </g>
  <g transform="matrix(.046041 0 0 -.046041 -31.064 296.88)">
   <g clip-path="url(#clipPath986)" opacity=".35001">
    <g transform="translate(926.29 174.7)">
     <path d="m0 0-5.464 6.018-8.055-1.09 4.035 7.056-3.526 7.325 7.958-1.658 5.876 5.617 0.884-8.08 7.157-3.854-7.412-3.337z" fill="#fff"/>
    </g>
   </g>
  </g>
  <g transform="matrix(.046041 0 0 -.046041 -31.064 296.88)">
   <g clip-path="url(#clipPath1002)" opacity=".35001">
    <g transform="translate(967.79 192.7)">
     <path d="m0 0-5.464 6.018-8.055-1.09 4.035 7.056-3.526 7.325 7.958-1.658 5.876 5.617 0.884-8.08 7.157-3.854-7.412-3.337z" fill="#fff"/>
    </g>
   </g>
  </g>
  <g transform="matrix(.046041 0 0 -.046041 -31.064 296.88)">
   <g clip-path="url(#clipPath1018)" opacity=".35001">
    <g transform="translate(942.16 137.83)">
     <path d="m0 0-7.558 2.992-6.749-4.529 0.51 8.112-6.393 5.02 7.873 2.021 2.797 7.632 4.356-6.863 8.123-0.303-5.181-6.263z" fill="#fff"/>
    </g>
   </g>
  </g>
  <g transform="matrix(.046041 0 0 -.046041 -31.064 296.88)">
   <g clip-path="url(#clipPath1034)" opacity=".35001">
    <g transform="translate(908.59 272.83)">
     <path d="m0 0-6.268 5.176-7.817-2.23 2.985 7.561-4.535 6.745 8.113-0.503 5.013 6.398 2.03-7.871 7.633-2.791-6.859-4.362z" fill="#fff"/>
    </g>
   </g>
  </g>
 </g>
</svg>
