<?xml version="1.0" encoding="UTF-8"?>
<!-- Created with Inkscape (http://www.inkscape.org/) -->
<svg width="64" height="64" version="1.1" viewBox="0 0 16.933 16.933" xmlns="http://www.w3.org/2000/svg" xmlns:cc="http://creativecommons.org/ns#" xmlns:dc="http://purl.org/dc/elements/1.1/" xmlns:rdf="http://www.w3.org/1999/02/22-rdf-syntax-ns#">
 <defs>
  <clipPath id="clipPath742">
   <path d="m117.92 432.34h244.51v-36.306h-244.51z"/>
  </clipPath>
  <clipPath id="clipPath410">
   <path d="m152.42 751.89h341.58v-335.7h-341.58z"/>
  </clipPath>
 </defs>
 <metadata>
  <rdf:RDF>
   <cc:Work rdf:about="">
    <dc:format>image/svg+xml</dc:format>
    <dc:type rdf:resource="http://purl.org/dc/dcmitype/StillImage"/>
    <dc:title/>
   </cc:Work>
  </rdf:RDF>
 </metadata>
 <g transform="translate(0 -280.07)">
  <g transform="matrix(.042092 0 0 -.042092 -4.2323 312.11)">
   <g clip-path="url(#clipPath410)">
    <g transform="translate(484.92 551.5)">
     <path d="m0 0c-4.23-5.3-13.27-14.67-25.7-17.05-9.99-1.9-20.33 1.07-30.75 8.85l-9.96 7.42-1.12-0.45c-0.83 2.16-2.17 4.44-3.65 6.56 8.86-2.67 17.19-2.5 24.83 0.53 2.36 0.94 4.54 2.1 6.54 3.43 12.19-5.45 25.43-9.12 39.81-9.29" fill="#74cbef"/>
    </g>
    <g transform="translate(457.1 581.49)">
     <path d="m0 0c-2.2-4.1-6.28-10.45-12.5-15.22-10.72 5.05-20.64 11.48-29.79 17.96 13.34-3.66 27.54-5.32 42.29-2.74" fill="#74cbef"/>
    </g>
    <g transform="translate(449.48,564.1)">
     <path d="m0 0c-0.68-0.6-1.39-1.17-2.12-1.73-0.85 0.36-1.69 0.73-2.52 1.11 0.76 0.54 1.49 1.1 2.19 1.68 0.81-0.37 1.63-0.72 2.45-1.06" fill="#faea25"/>
    </g>
    <g transform="translate(447.36 562.37)">
     <path d="m0 0c-0.73-0.55-1.47-1.08-2.25-1.58-0.87 0.38-1.73 0.78-2.58 1.18 0.8 0.48 1.57 0.99 2.31 1.51 0.83-0.38 1.67-0.75 2.52-1.11" fill="#faea25"/>
    </g>
    <g transform="translate(444.6 566.27)">
     <path d="m0 0c0.8-0.38 1.61-0.75 2.43-1.11-0.7-0.58-1.43-1.14-2.19-1.68-0.84 0.39-1.67 0.78-2.49 1.18 0.78 0.51 1.53 1.04 2.25 1.61" fill="#faea25"/>
    </g>
    <g transform="translate(442.35 564.66)">
     <path d="m0 0c0.82-0.4 1.65-0.79 2.49-1.18-0.74-0.52-1.51-1.03-2.31-1.51-0.87 0.41-1.74 0.83-2.6 1.26 0.83 0.45 1.64 0.92 2.42 1.43" fill="#faea25"/>
    </g>
    <g transform="translate(444.6 566.27)">
     <path d="m0 0c-0.72-0.57-1.47-1.1-2.25-1.61-12.57 6.09-24.03 14-34.56 21.7 2.31-0.77 4.65-1.48 7.02-2.13 9.15-6.48 19.07-12.91 29.79-17.96" fill="#faea25"/>
    </g>
    <g transform="translate(402.34 593.34)">
     <path d="m0 0c17.97-6.8 37.8-11.11 58.39-6.26l4.35 1.03-1.58-4.18c-0.23-0.6-4.49-11.56-14.02-19.83-0.82 0.34-1.64 0.69-2.45 1.06 9.88 8.11 14.25 19.61 14.25 19.61-18.43-4.35-36.02-1.66-52.32 3.67-2.26 1.66-4.46 3.29-6.62 4.9" fill="#faea25"/>
    </g>
    <g transform="translate(400.08 589.1)">
     <path d="m0 0c11.8-8.74 25.02-18.49 39.85-25.87-1-0.53-2.04-1.02-3.12-1.45-8.75-3.48-18.7-2.57-29.55 2.7l-11.17 5.42 8.38-9.16c5.94-6.49 9.9-13.55 8.98-14.78-0.02-0.03-2.96-3.37-30.73 10.18l-13.05 6.37 10.34-10.2c3.95-3.89 6.93-8.83 6.12-10.17-0.09-0.16-2.61-3.78-26.76 3.74-7.25 11.58-16.67 22.92-28.04 33.26-0.78 0.71-1.57 1.41-2.36 2.11 6.8 16.97 14.24 26.66 22.68 29.56 6.46-2.46 13.48-5.84 20.89-9.41 8.51-4.1 17.74-8.54 27.54-12.3" fill="#74cbef"/>
    </g>
    <g transform="translate(418.51 550.72)">
     <path d="m0 0 6.51-10.57c5.13-8.34 7.73-16.45 6.46-17.62-0.15-0.13-3.91-3.06-30.58 16.92l-10.52 7.89c19.68-8.65 24.72-7.1 26.88-4.22 1.39 1.86 1.17 4.42 0.13 7.15z" fill="#74cbef"/>
    </g>
    <g transform="translate(408.96 588.44)">
     <path d="m0 0c16.3-5.33 33.89-8.02 52.32-3.67 0 0-4.37-11.5-14.25-19.61-0.82 0.36-1.63 0.73-2.43 1.11 6.22 4.77 10.3 11.12 12.5 15.22-14.75-2.58-28.95-0.92-42.29 2.74-1.99 1.41-3.94 2.82-5.85 4.21" fill="#faea25"/>
    </g>
    <g transform="translate(402.34 593.34)">
     <path d="m0 0c2.16-1.61 4.36-3.24 6.62-4.9-2.61 0.86-5.18 1.77-7.72 2.75-2.67 1.98-5.28 3.91-7.83 5.77 2.92-1.26 5.89-2.47 8.92-3.62z" fill="#faea25"/>
    </g>
    <g transform="translate(401.24 591.19)">
     <path d="m0 0c2.54-0.98 5.11-1.89 7.72-2.75 1.91-1.39 3.86-2.8 5.85-4.21-2.37 0.65-4.71 1.36-7.02 2.13-2.22 1.62-4.4 3.24-6.55 4.83" fill="#faea25"/>
    </g>
    <g transform="translate(407.79 586.36)">
     <path d="m0 0c10.53-7.7 21.99-15.61 34.56-21.7-0.78-0.51-1.59-0.98-2.42-1.43-14.83 7.38-28.05 17.13-39.85 25.87 2.53-0.97 5.1-1.89 7.71-2.74" fill="#faea25"/>
    </g>
    <g transform="translate(401.24 591.19)">
     <path d="m0 0c2.15-1.59 4.33-3.21 6.55-4.83-2.61 0.85-5.18 1.77-7.71 2.74-0.2 0.15-0.39 0.29-0.58 0.43-2.44 1.81-4.84 3.59-7.19 5.3 2.93-1.27 5.9-2.49 8.93-3.64" fill="#faea25"/>
    </g>
    <g transform="translate(386.31 472.94)">
     <path d="m0 0c1.64 1.8 1.72 4.44 0.43 7.43-0.63-0.2-1.25-0.43-1.84-0.69-1.96-0.85-5.3-2.76-5.7-5.99-0.25-2.02 0.01-3.47 0.68-3.77 1.17-0.54 4.37 0.75 6.43 3.02m18.15 9.93-2.38-3.28c-2.38 1.72-6.88 2.29-11.31 1.68 1.79-4.78 0.73-8.65-1.46-11.06-2.83-3.1-7.68-5.55-11.12-3.97-1.73 0.79-3.64 2.81-3.01 7.94 0.48 3.88 3.36 7.15 8.1 9.21 0.45 0.2 0.92 0.38 1.39 0.55-1.15 1.58-2.61 3.19-4.37 4.79-1.22 1.11-2.43 1.75-3.68 1.99 0.05 1.36 0.06 2.74 0.01 4.13 2.13-0.24 4.26-1.18 6.4-3.12 2.55-2.33 4.45-4.56 5.81-6.67 5.88 1.09 12.13 0.33 15.62-2.19" fill="#be4894"/>
    </g>
    <g transform="translate(393.41 596.96)">
     <path d="m0 0c2.55-1.86 5.16-3.79 7.83-5.77-3.03 1.15-6 2.37-8.93 3.64-3.82 2.78-7.52 5.39-11.1 7.68 3.94-1.87 8.01-3.75 12.2-5.55" fill="#faea25"/>
    </g>
    <g transform="translate(390.38 547.34)">
     <path d="m0 0c-0.26 0.11-0.52 0.22-0.79 0.35l-0.36 0.51z" fill="#faea25"/>
    </g>
    <g transform="translate(381.21 602.51)">
     <path d="m0 0c3.58-2.29 7.28-4.9 11.1-7.68-13.34 5.76-25.59 12.35-36.46 16.87 2.36 0.21 4.81-0.02 7.35-0.63 3.69-1.67 7.49-3.51 11.4-5.39 2.16-1.04 4.36-2.1 6.61-3.17" fill="#74cbef"/>
    </g>
    <g transform="translate(376.63 494.85)">
     <path d="m0 0c0.05-1.39 0.04-2.77-0.01-4.13-3.53 0.68-7.41-1.78-12.93-5.57-2.21-1.51-4.49-3.08-6.93-4.45l-1.98 3.53c2.28 1.28 4.48 2.8 6.62 4.26 4.99 3.42 10.09 6.93 15.23 6.36" fill="#ba64a4"/>
    </g>
    <g transform="translate(381.21 602.51)">
     <path d="m0 0c-2.25 1.07-4.45 2.13-6.61 3.17-3.91 1.88-7.71 3.72-11.4 5.39 5.59-1.32 11.6-4.44 18.01-8.56" fill="#74cbef"/>
    </g>
    <g transform="translate(363.69 485.15)">
     <path d="m0 0c5.52 3.79 9.4 6.25 12.93 5.57-0.41-11.99-4.17-22.67-11.62-30.86-16.32-17.96-46.18-19.44-77.04-6.73-2.11 6.72-5.52 11.1-9.16 10.92-2-0.09-3.79-1.54-5.25-3.97-6.53 3.6-13.01 7.82-19.33 12.65 1.38 3.79 1.35 6.94-0.41 8.54-1.85 1.69-5.24 1.3-9.13-0.69-0.54 0.48-1.08 0.96-1.62 1.45-18.51 16.82-31.84 36.31-39.07 55.18 4.74 7.47 6.18 14.46 3.04 17.31-1.75 1.59-4.64 1.64-8.07 0.43-0.21 1.15-0.39 2.29-0.54 3.42 2.47 1.72 3.83 3.7 3.61 5.65-0.21 1.83-1.79 3.36-4.3 4.46 0.03 7.9 1.48 15.27 4.44 21.79 1.19-0.61 2.41-1.45 3.68-2.61 10.06-9.14 40.27-11.18 49.18 9.01 2.9 6.56 5.92 12.66 8.97 18.13 14.4-2.7 29.76-8.9 44.64-18.33-1.62-4.77-2.99-10.33-4.11-16.74l2.34-0.42 16.41-22.19-1.65-1.71c2.03-1.96 3.94-3.75 5.73-5.38 10.75-9.77 17.55-13.93 22.04-15.37 2.28-2.6 4.32-4.69 6.15-6.35 6.89-6.26 10.75-6.5 13.29-5.74 0.66 0.2 1.24 0.5 1.76 0.86 3.73-9.86 5.78-19.54 6.03-28.58-5.14 0.57-10.24-2.94-15.23-6.36-2.14-1.46-4.34-2.98-6.62-4.26l1.98-3.53c2.44 1.37 4.72 2.94 6.93 4.45" fill="#ba64a4"/>
    </g>
    <g transform="translate(381.21 602.51)">
     <path d="m0 0c-6.41 4.12-12.42 7.24-18.01 8.56-2.38 1.1-4.72 2.12-7 3.05 11.03 0.72 23.25-7.01 37.21-17.16-4.19 1.8-8.26 3.68-12.2 5.55" fill="#faea25"/>
    </g>
    <g transform="translate(390.2 539.69)">
     <path d="m0 0c-1.84-3.07-6.7-5.67-27.28 0.17-0.55 0.99-1.12 1.98-1.7 2.97 45.66-13.61 20.46 11.17 20.46 11.17 58.16-28.38 24.55 8.34 24.55 8.34 15.69-7.62 27.62-5.57 36.3-0.37 0.85-0.4 1.71-0.8 2.58-1.18-2-1.33-4.18-2.49-6.54-3.43-7.64-3.03-15.97-3.2-24.83-0.53 1.48-2.12 2.82-4.4 3.65-6.56 1.04-2.73 1.26-5.29-0.13-7.15-2.16-2.88-7.2-4.43-26.88 4.22l-1.15 0.86 0.36-0.51c-0.02 0-0.04 0.01-0.06 0.02 1.42-2.73 2.1-5.65 0.67-8.02" fill="#74cbef"/>
    </g>
    <g transform="translate(373.77 528.19)">
     <path d="m0 0c-0.55-1.8-1.54-3.63-3.17-4.76-0.29 0.77-0.59 1.54-0.9 2.32 2.19 1.99 2.29 6.08 2.29 6.08 50.19-27.13 27.48 5.72 27.48 5.72 55.62-41.67 27.58 3.84 27.58 3.84 37.58-28.04 62.58 12.55 62.58 12.55-15.35-0.66-29.38 2.83-42.27 8.43 0.73 0.56 1.44 1.13 2.12 1.73 12.31-5.19 25.64-8.4 40.05-7.78l4.47 0.19-2.34-3.81c-0.49-0.78-12.01-19.18-31.55-22.91-8.77-1.68-17.7-0.11-26.62 4.66 2.65-5.8 4.51-12.4 1.19-15.42-2.86-2.62-8.62-3.16-28.57 10.77 1.07-3.27 1.36-6.68-0.67-8.94-2.65-2.96-8.68-4.71-31.67 7.33" fill="#faea25"/>
    </g>
    <g transform="translate(368.67 528.23)">
     <path d="m0 0c0.64 1.11 0.92 2.75 0.95 3.67l0.12 3.83 3.38-1.81c24.65-13.33 28.44-10.28 28.79-9.89 1.3 1.45-1.25 7.62-4.39 12.17l-7.93 11.49c0.27-0.13 0.53-0.24 0.79-0.35l10.52-7.89c26.67-19.98 30.43-17.05 30.58-16.92 1.27 1.17-1.33 9.28-6.46 17.62l-6.51 10.57 9.96-7.42c10.42-7.78 20.76-10.75 30.75-8.85 12.43 2.38 21.47 11.75 25.7 17.05-14.38 0.17-27.62 3.84-39.81 9.29 0.78 0.5 1.52 1.03 2.25 1.58 12.89-5.6 26.92-9.09 42.27-8.43 0 0-25-40.59-62.58-12.55 0 0 28.04-45.51-27.58-3.84 0 0 22.71-32.85-27.48-5.72 0 0-0.1-4.09-2.29-6.08-0.33 0.82-0.67 1.65-1.03 2.48" fill="#faea25"/>
    </g>
    <g transform="translate(369.62 531.9)">
     <path d="m0 0c-0.03-0.92-0.31-2.56-0.95-3.67-1.67 3.87-3.58 7.76-5.75 11.63 20.58-5.84 25.44-3.24 27.28-0.17 1.43 2.37 0.75 5.29-0.67 8.02 0.02-0.01 0.04-0.02 0.06-0.02l7.93-11.49c3.14-4.55 5.69-10.72 4.39-12.17-0.35-0.39-4.14-3.44-28.79 9.89l-3.38 1.81z" fill="#74cbef"/>
    </g>
    <g transform="translate(372.54 601.4)">
     <path d="m0 0c-7.41 3.57-14.43 6.95-20.89 9.41 0.26 0.09 0.51 0.17 0.77 0.25 1.12 0.33 2.26 0.54 3.43 0.64 10.87-4.52 23.12-11.11 36.46-16.87 2.35-1.71 4.75-3.49 7.19-5.3 0.19-0.14 0.38-0.28 0.58-0.43-9.8 3.76-19.03 8.2-27.54 12.3" fill="#74cbef"/>
    </g>
    <g transform="translate(368.67 528.23)">
     <path d="m0 0c-0.32-0.54-0.71-0.96-1.21-1.11-0.74-0.22-3.88-0.42-11.53 7.48 0.15 0.06 0.29 0.13 0.43 0.2 2.49 1.3 3.35 3.8 3.59 5.93 1.03-0.31 2.02-0.6 2.97-0.87 2.17-3.87 4.08-7.76 5.75-11.63" fill="#ba64a4"/>
    </g>
    <g transform="translate(369.7 525.75)">
     <path d="m0 0c-2.33-2.14-7.04-1.89-16.53 8.26 1.12 0.02 2.02 0.25 2.76 0.59 7.65-7.9 10.79-7.7 11.53-7.48 0.5 0.15 0.89 0.57 1.21 1.11 0.36-0.83 0.7-1.66 1.03-2.48" fill="#ba64a4"/>
    </g>
    <g transform="translate(368.84 522.57)">
     <path d="m0 0c-2.54-0.76-6.4-0.52-13.29 5.74-1.83 1.66-3.87 3.75-6.15 6.35 1.49-0.48 2.73-0.66 3.77-0.65 9.49-10.15 14.2-10.4 16.53-8.26 0.31-0.78 0.61-1.55 0.9-2.32-0.52-0.36-1.1-0.66-1.76-0.86" fill="#ba64a4"/>
    </g>
    <g transform="translate(359.37 545.88)">
     <path d="m0 0c24.15-7.52 26.67-3.9 26.76-3.74 0.81 1.34-2.17 6.28-6.12 10.17l-10.34 10.2 13.05-6.37c27.77-13.55 30.71-10.21 30.73-10.18 0.92 1.23-3.04 8.29-8.98 14.78l-8.38 9.16 11.17-5.42c10.85-5.27 20.8-6.18 29.55-2.7 1.08 0.43 2.12 0.92 3.12 1.45 0.86-0.43 1.73-0.85 2.6-1.26-8.68-5.2-20.61-7.25-36.3 0.37 0 0 33.61-36.72-24.55-8.34 0 0 25.2-24.78-20.46-11.17-0.6 1.02-1.22 2.03-1.85 3.05" fill="#74cbef"/>
    </g>
    <g transform="translate(357.55 543.96)">
     <path d="m0 0c1.27-0.4 2.5-0.78 3.67-1.13 0.58-0.99 1.15-1.98 1.7-2.97-0.95 0.27-1.94 0.56-2.97 0.87-0.24-2.13-1.1-4.63-3.59-5.93-0.14-0.07-0.28-0.14-0.43-0.2-0.57 0.59-1.17 1.22-1.8 1.91 4.5 0.88 3.42 7.45 3.42 7.45" fill="#ba64a4"/>
    </g>
    <g transform="translate(351.82 615.82)">
     <path d="m0 0c15 3.85 31.48-8.37 50.51-22.48-3.03 1.15-6 2.36-8.92 3.62-13.96 10.15-26.18 17.88-37.21 17.16-1.48 0.61-2.94 1.18-4.38 1.7" fill="#faea25"/>
    </g>
    <g transform="translate(357.55 543.96)">
     <path d="m0 0s1.08-6.57-3.42-7.45c-0.67 0.74-1.37 1.53-2.09 2.38 1.22-0.22 1.85-0.02 2.11 0.11 1.22 0.64 1.23 3.41 1.05 4.58l-0.6 3.79 3.66-1.15c0.38-0.12 0.75-0.23 1.11-0.34 0.63-1.02 1.25-2.03 1.85-3.05-1.17 0.35-2.4 0.73-3.67 1.13" fill="#ba64a4"/>
    </g>
    <g transform="translate(351.72 613.33)">
     <path d="m0 0c1.47 0.43 2.96 0.69 4.48 0.79 2.28-0.93 4.62-1.95 7-3.05-2.54 0.61-4.99 0.84-7.35 0.63-1.4 0.58-2.78 1.13-4.13 1.63" fill="#faea25"/>
    </g>
    <g transform="translate(356.2 614.12)">
     <path d="m0 0c-1.52-0.1-3.01-0.36-4.48-0.79-1.19 0.45-2.36 0.87-3.51 1.24 0.94 0.42 1.9 0.77 2.87 1.05 0.25 0.07 0.5 0.14 0.74 0.2 1.44-0.52 2.9-1.09 4.38-1.7" fill="#faea25"/>
    </g>
    <g transform="translate(352.03 538.89)">
     <path d="m0 0c-3.22 3.75-7.05 8.66-11.57 15.1l-1.95-1.37v0.01l-12.84 26.72 2.23-0.85c0.35 0.94 0.71 1.85 1.07 2.75 0.79-0.7 1.58-1.4 2.36-2.11 11.37-10.34 20.79-21.68 28.04-33.26-0.36 0.11-0.73 0.22-1.11 0.34l-3.66 1.15 0.6-3.79c0.18-1.17 0.17-3.94-1.05-4.58-0.26-0.13-0.89-0.33-2.11-0.11z" fill="#ba64a4"/>
    </g>
    <g transform="translate(350.7 536.77)">
     <path d="m0 0c1.4-0.38 2.53-0.43 3.43-0.26 0.63-0.69 1.23-1.32 1.8-1.91-0.74-0.34-1.64-0.57-2.76-0.59-0.78 0.85-1.61 1.77-2.47 2.76" fill="#ba64a4"/>
    </g>
    <g transform="translate(348.35 612.01)">
     <path d="m0 0c1.11 0.55 2.23 0.98 3.37 1.32 1.35-0.5 2.73-1.05 4.13-1.63-1.17-0.1-2.31-0.31-3.43-0.64-0.26-0.08-0.51-0.16-0.77-0.25-1.12 0.43-2.22 0.83-3.3 1.2" fill="#faea25"/>
    </g>
    <g transform="translate(340.46 553.99)">
     <path d="m0 0c4.52-6.44 8.35-11.35 11.57-15.1-1.05 0.19-2.52 0.68-4.58 1.77-2.67 3.32-5.64 7.28-8.94 11.96z" fill="#ba64a4"/>
    </g>
    <g transform="translate(351.72 613.33)">
     <path d="m0 0c-1.14-0.34-2.26-0.77-3.37-1.32-1.07 0.36-2.11 0.69-3.14 0.98 0.98 0.61 1.98 1.13 3 1.58 1.15-0.37 2.32-0.79 3.51-1.24" fill="#faea25"/>
    </g>
    <g transform="translate(347.45 540.66)">
     <path d="m0 0c2.06-1.09 3.53-1.58 4.58-1.77h0.01c0.72-0.85 1.42-1.64 2.09-2.38-0.9-0.17-2.03-0.12-3.43 0.26-1.03 1.19-2.11 2.48-3.25 3.89" fill="#ba64a4"/>
    </g>
    <g transform="translate(350.7 536.77)">
     <path d="m0 0c0.86-0.99 1.69-1.91 2.47-2.76-1.04-0.01-2.28 0.17-3.77 0.65-1.12 1.26-2.28 2.65-3.51 4.16 1.89-1.04 3.48-1.69 4.81-2.05" fill="#ba64a4"/>
    </g>
    <g transform="translate(348.35 612.01)">
     <path d="m0 0c1.08-0.37 2.18-0.77 3.3-1.2-8.44-2.9-15.88-12.59-22.68-29.56-0.63 0.55-1.27 1.1-1.91 1.63 6.68 16.42 13.71 25.37 21.29 29.13" fill="#faea25"/>
    </g>
    <g transform="translate(347.45 540.66)">
     <path d="m0 0c1.14-1.41 2.22-2.7 3.25-3.89-1.33 0.36-2.92 1.01-4.81 2.05-1.39 1.72-2.87 3.61-4.43 5.69 2.4-1.75 4.38-2.98 5.99-3.85" fill="#ba64a4"/>
    </g>
    <g transform="translate(325.15 584.48)">
     <path d="m0 0c6.01 14.59 12.52 23.86 20.06 28.51 1.03-0.29 2.07-0.62 3.14-0.98-7.58-3.76-14.61-12.71-21.29-29.13-0.63 0.55-1.27 1.08-1.91 1.6" fill="#faea25"/>
    </g>
    <g transform="translate(347.45 540.66)">
     <path d="m0 0c-1.61 0.87-3.59 2.1-5.99 3.85-1.54 2.06-3.17 4.31-4.89 6.75l1.94 1.36c3.3-4.68 6.27-8.64 8.94-11.96" fill="#ba64a4"/>
    </g>
    <g transform="translate(341.46 544.51)">
     <path d="m0 0c1.56-2.08 3.04-3.97 4.43-5.69-5.08 2.79-12.31 8.34-22.61 18.3l1.66 1.71c7.01-6.79 12.4-11.32 16.52-14.32" fill="#ba64a4"/>
    </g>
    <g transform="translate(345.21 612.99)">
     <path d="m0 0c-7.54-4.65-14.05-13.92-20.06-28.51-4.05 3.36-8.19 6.45-12.38 9.29 3.23 9.96 7.55 16.25 13.08 19.08 5.32 2.73 11.87 2.32 19.36 0.14" fill="#74cbef"/>
    </g>
    <g transform="translate(338.51 552.63)">
     <path d="m0 0v-0.01l-1.94-1.36c1.72-2.44 3.35-4.69 4.89-6.75-4.12 3-9.51 7.53-16.52 14.32l-1.66-1.71-16.41 22.19 2.33-0.41c0.99 5.64 2.18 10.59 3.57 14.87 4.19-2.84 8.33-5.93 12.38-9.29-0.57-1.38-1.14-2.81-1.7-4.29l2.22-0.84z" fill="#ba64a4"/>
    </g>
    <g transform="translate(323.28 557.12)">
     <path d="m0 0c10.3-9.96 17.53-15.51 22.61-18.3 1.23-1.51 2.39-2.9 3.51-4.16-4.49 1.44-11.29 5.6-22.04 15.37-1.79 1.63-3.7 3.42-5.73 5.38z" fill="#ba64a4"/>
    </g>
    <g transform="translate(327.06 582.88)">
     <path d="m0 0c0.64-0.53 1.28-1.08 1.91-1.63-0.36-0.9-0.72-1.81-1.07-2.75l-2.23 0.85c0.46 1.21 0.92 2.39 1.39 3.53" fill="#ba64a4"/>
    </g>
    <g transform="translate(325.15 584.48)">
     <path d="m0 0c0.64-0.52 1.28-1.05 1.91-1.6-0.47-1.14-0.93-2.32-1.39-3.53l-2.22 0.84c0.56 1.48 1.13 2.91 1.7 4.29" fill="#ba64a4"/>
    </g>
    <g transform="translate(325.85 612.85)">
     <path d="m0 0c-5.53-2.83-9.85-9.12-13.08-19.08-0.68 0.46-1.36 0.92-2.05 1.36 7.64 22.92 20.57 25 37.49 19.44-1.02-0.45-2.02-0.97-3-1.58-7.49 2.18-14.04 2.59-19.36-0.14" fill="#faea25"/>
    </g>
    <g transform="translate(348.21 614.57)">
     <path d="m0 0c-16.92 5.56-29.85 3.48-37.49-19.44-0.69 0.46-1.39 0.91-2.08 1.34 3.62 10.59 8.53 17.27 15.04 20.61 7.94 4.07 17.43 2.65 28.14-1.26-0.24-0.06-0.49-0.13-0.74-0.2-0.97-0.28-1.93-0.63-2.87-1.05" fill="#faea25"/>
    </g>
    <g transform="translate(310.72 595.13)">
     <path d="m0 0c0.69-0.44 1.37-0.9 2.05-1.36-1.39-4.28-2.58-9.23-3.57-14.87l-2.33 0.41c1.08 6.13 2.36 11.37 3.85 15.82" fill="#ba64a4"/>
    </g>
    <g transform="translate(308.64 596.47)">
     <path d="m0 0c0.69-0.43 1.39-0.88 2.08-1.34-1.49-4.45-2.77-9.69-3.85-15.82l-2.34 0.42c1.12 6.41 2.49 11.97 4.11 16.74" fill="#ba64a4"/>
    </g>
    <g transform="translate(273.95 628.96)">
     <path d="m0 0s9.27-3.26 17.36-2.14c8.1 1.13 19.37 3.15 11.77 7.23-7.5 4.02-9.07 14.12-17.65 13.95 0.96 3.26 1.21 6.68 0.93 10.1h0.09c6.61 1.06 17.48 1.07 21.63-8.35 4.15-9.43 12.72-23.33 17.33-21.86 4.63 1.45-17.39-20.01-26.83-17.09-11.02 3.43-25.98 10.89-33.59 4.61l-0.5 0.28c2.89 5.21 5.8 9.83 8.64 13.83z" fill="#ba64a4"/>
    </g>
    <g transform="translate(285.43 648)">
     <path d="m0 0c8.58 0.17 10.15-9.93 17.65-13.95 7.6-4.08-3.67-6.1-11.77-7.23-8.09-1.12-17.36 2.14-17.36 2.14l-0.82 0.56c2.25 3.19 4.47 5.98 6.6 8.32 2.84 3.12 4.69 6.56 5.7 10.16" fill="#e6bdda"/>
    </g>
    <g transform="translate(290.08 440.61)">
     <path d="m0 0c0.63-13.21-3.4-24.14-9-24.411-5.6-0.259-10.65 10.231-11.28 23.451-0.41 8.5 1.12 16.05 3.75 20.43 4.8-2.66 9.62-4.98 14.41-6.95 1.14-3.61 1.9-7.9 2.12-12.52" fill="#e3abcf"/>
    </g>
    <g transform="translate(264 614.8)">
     <path d="m0 0c-13.06 2.47-25.32 2.06-35.71-1.42l0.09 0.09c10.41 11.45 1.2 26.86-9.09 36.22-12.25 11.13-26.9 13.36-37.06 2.19-10.16-11.18 0.93-24.05 9.38-31.74 5.83-5.3 14.9-13.34 24.27-13.05-2.35-1.69-4.52-3.62-6.49-5.79-3-3.3-5.4-7-7.22-11.03-8.21 4.24-14.92-2.43-27.1 8.63-13.93 12.67-6.09 16.62-10.31 27.53-4.22 10.9-20.83 33.07-6.83 50.03 8.05 9.75 15.78 14.09 23.02 17.46 4.92 2.29 9.61 4.1 14.04 6.86 2.81 1.75 5.52 3.86 8.11 6.71 2.56 2.82 6 4.64 9.96 5.64 3.11 0.77 6.53 1.08 10.12 0.96 14.61-0.48 31.89-7.68 40.82-15.8 9.63-8.75 21.2-24.89 22.36-40.19 0.28-3.42 0.03-6.84-0.93-10.1-1.01-3.6-2.86-7.04-5.7-10.16-2.13-2.34-4.35-5.13-6.6-8.32-2.84-4-5.75-8.62-8.64-13.83-0.17-0.29-0.33-0.59-0.49-0.89m-40.48 62.81c1.43-1.29 3.64-1.18 4.94 0.24 1.29 1.42 1.17 3.62-0.25 4.92-1.42 1.29-3.61 1.19-4.91-0.24-1.29-1.42-1.2-3.62 0.22-4.92m20.65-18.77c1.43-1.29 3.63-1.17 4.92 0.25 1.3 1.43 1.19 3.61-0.23 4.91-1.42 1.29-3.63 1.2-4.92-0.22-1.29-1.43-1.19-3.64 0.23-4.94" fill="#da9dc7"/>
    </g>
    <g transform="translate(278.8 464.05)">
     <path d="m0 0c3.64 0.18 7.05-4.2 9.16-10.92-4.79 1.97-9.61 4.29-14.41 6.95 1.46 2.43 3.25 3.88 5.25 3.97" fill="#e3abcf"/>
    </g>
    <g transform="translate(264 614.8)">
     <path d="m0 0c-3.05-5.47-6.07-11.57-8.97-18.13-8.91-20.19-39.12-18.15-49.18-9.01-1.27 1.16-2.49 2-3.68 2.61 1.82 4.03 4.22 7.73 7.22 11.03 1.97 2.17 4.14 4.1 6.49 5.79 4.16 0.13 8.39 1.9 12.41 6.29 10.39 3.48 22.65 3.89 35.71 1.42" fill="#da9dc7"/>
    </g>
    <g transform="translate(253.81 481.27)">
     <path d="m0 0c1.76-1.6 1.79-4.75 0.41-8.54-3.23 2.46-6.41 5.08-9.54 7.85 3.89 1.99 7.28 2.38 9.13 0.69" fill="#ba64a4"/>
    </g>
    <g transform="translate(254.22 472.73)">
     <path d="m0 0c-1.31-3.64-3.93-7.87-7.56-11.86-7.39-8.13-16.18-12.18-19.62-9.05-3.45 3.13-0.25 12.26 7.14 20.4 3.43 3.76 7.15 6.65 10.5 8.36 3.13-2.77 6.31-5.39 9.54-7.85" fill="#e3abcf"/>
    </g>
    <g transform="translate(249.09 659.09)">
     <path d="m0 0c-1.29-1.42-3.49-1.54-4.92-0.25-1.42 1.3-1.52 3.51-0.23 4.94 1.29 1.42 3.5 1.51 4.92 0.22 1.42-1.3 1.53-3.48 0.23-4.91" fill="#1d1d1b"/>
    </g>
    <g transform="translate(228.46,677.85)">
     <path d="m0 0c-1.3-1.42-3.51-1.53-4.94-0.24-1.42 1.3-1.51 3.5-0.22 4.92 1.3 1.43 3.49 1.53 4.91 0.24 1.42-1.3 1.54-3.5 0.25-4.92" fill="#1d1d1b"/>
    </g>
    <g transform="translate(215.88 607.09)">
     <path d="M 0,0 C 3.72,2.69 7.89,4.78 12.41,6.29 8.39,1.9 4.16,0.13 0,0" fill="#c54593"/>
    </g>
    <g transform="translate(213.45 623.39)">
     <path d="m0 0c-3.17-1.02-6.55 0.61-7.52 3.64-0.98 3.03 0.82 6.32 4.02 7.34 3.18 1.02 6.54-0.6 7.5-3.65 0.98-3.03-0.82-6.32-4-7.33" fill="#e9b5d5"/>
    </g>
    <g transform="translate(207.03 554.52)">
     <path d="m0 0c3.14-2.85 1.7-9.84-3.04-17.31-2.31 6.01-3.99 11.96-5.03 17.74 3.43 1.21 6.32 1.16 8.07-0.43" fill="#e3abcf"/>
    </g>
    <g transform="translate(202.03 564.02)">
     <path d="m0 0c0.22-1.95-1.14-3.93-3.61-5.65-0.47 3.45-0.7 6.82-0.69 10.11 2.51-1.1 4.09-2.63 4.3-4.46" fill="#ba64a4"/>
    </g>
    <g transform="translate(203.72 636.14)">
     <path d="m0 0c-2.25-2.48-5.99-2.73-8.34-0.59-2.35 2.13-2.46 5.88-0.21 8.35 2.25 2.48 5.99 2.73 8.34 0.59s2.46-5.88 0.21-8.35" fill="#e9b5d5"/>
    </g>
    <g transform="translate(198.96 554.95)">
     <path d="m0 0c1.04-5.78 2.72-11.73 5.03-17.74-1.53-2.4-3.39-4.86-5.56-7.24-8.9-9.79-19.47-14.67-23.62-10.9s-0.3 14.76 8.6 24.55c5.15 5.67 10.85 9.68 15.55 11.33" fill="#e3abcf"/>
    </g>
    <g transform="translate(182.23 651.88)">
     <path d="m0 0c10.16 11.17 24.81 8.94 37.06-2.19 10.29-9.36 19.5-24.77 9.09-36.22l-0.09-0.09c-4.52-1.51-8.69-3.6-12.41-6.29-9.37-0.29-18.44 7.75-24.27 13.05-8.45 7.69-19.54 20.56-9.38 31.74m13.15-16.33c2.35-2.14 6.09-1.89 8.34 0.59 2.25 2.47 2.14 6.21-0.21 8.35s-6.09 1.89-8.34-0.59c-2.25-2.47-2.14-6.22 0.21-8.35m10.55-8.52c0.97-3.03 4.35-4.66 7.52-3.64 3.18 1.01 4.98 4.3 4 7.33-0.96 3.05-4.32 4.67-7.5 3.65-3.2-1.02-5-4.31-4.02-7.34" fill="#c54593"/>
    </g>
    <g transform="translate(197.73 568.48)">
     <path d="m0 0c-0.01-3.29 0.22-6.66 0.69-10.11-3.39-2.38-8.87-4.3-15.19-5.03-10.92-1.27-20.21 1.45-20.74 6.08-0.54 4.62 7.87 9.4 18.79 10.67 6.6 0.77 12.61 0.08 16.45-1.61" fill="#e3abcf"/>
    </g>
    <g transform="translate(197.34 730.17)">
     <path d="m0 0c4.78-7.18 15.16-7.68 15.58-16.54l0.14-0.5c-3.96-1-7.4-2.82-9.96-5.64-2.59-2.85-5.3-4.96-8.11-6.71-0.41 0.88-4.08 9.28-3.74 17 0.35 8.16 1.3 19.56 6.09 12.39" fill="#e6bdda"/>
    </g>
    <g transform="translate(189.67 751.28)">
     <path d="m0 0c-1.02-4.73 13.63-11.94 23.41-15.18 9.78-3.23 10.8-14.06 10.38-20.74l-0.28-1.27c-3.59 0.12-7.01-0.19-10.12-0.96l-0.14 0.5c-0.42 8.86-10.8 9.36-15.58 16.54-4.79 7.17-5.74-4.23-6.09-12.39-0.34-7.72 3.33-16.12 3.74-17-4.43-2.76-9.12-4.57-14.04-6.86l-0.18 0.42c3.23 4.58-1.09 17.95-5.55 28.6-3.81 9.12 15.45 33.08 14.45 28.34" fill="#ba64a4"/>
    </g>
   </g>
  </g>
  <g transform="matrix(.042092 0 0 -.042092 2.4721 287.79)">
   <path d="m0 0c6e-3 0.027 0.027 0.053 0.027 0.081 0 0.641-1.777 1.161-3.969 1.161-2.193 0-3.97-0.52-3.97-1.161 0-0.028 0.021-0.054 0.028-0.081h-0.028v-155.54h0.013c0.066-0.624 1.807-1.125 3.957-1.125 2.192 0 3.969 0.52 3.969 1.161 0 0.027-0.021 0.053-0.027 0.08z"/>
  </g>
  <g transform="matrix(.042092 0 0 -.042092 3.3542 287.82)">
   <path d="m0 0c-0.01 2e-3 -0.024-0.017-0.036-0.021l7e-3 0.028-56.49 13.419-2e-3 -0.012c-0.243-0.012-0.835-1.696-1.342-3.829-0.516-2.175-0.747-3.983-0.514-4.039 0.01-3e-3 0.024 0.016 0.036 0.02l56.447-13.409v1e-3c8e-3 -9e-3 0.013-0.033 0.023-0.035 0.233-0.056 0.841 1.663 1.357 3.838 0.517 2.176 0.747 3.984 0.514 4.039" fill="#f3e600"/>
  </g>
  <g transform="matrix(.042092 0 0 -.042092 -4.2323 312.11)">
   <g clip-path="url(#clipPath742)">
    <g transform="translate(190.53 396.04)">
     <path d="m0 0h-72.611c0 20.046 16.247 36.306 36.305 36.306s36.306-16.26 36.306-36.306" fill="#ca72ac"/>
    </g>
    <g transform="translate(362.43 396.04)">
     <path d="m 0,0 h -72.611 c 0,20.046 16.247,36.306 36.305,36.306 C -16.26,36.306 0,20.046 0,0" fill="#ca72ac"/>
    </g>
   </g>
  </g>
  <g transform="matrix(.042092 0 0 -.042092 11.869 294.68)">
   <path d="m0 0c-0.038 0-0.074-0.019-0.111-0.035v0.035h-231.73v-0.016c-0.86-0.165-1.549-4.578-1.549-10.011 0-5.538 0.716-10.029 1.599-10.029 0.062 0 0.122 0.028 0.182 0.07h231.43c0.06-0.042 0.12-0.07 0.182-0.07 0.883 0 1.599 4.491 1.599 10.029s-0.716 10.027-1.599 10.027" fill="#ca72ac"/>
  </g>
  <g transform="matrix(.042092 0 0 -.042092 3.6051 295.55)">
   <path d="m0 0c0-17.773-14.408-32.181-32.182-32.181-17.773 0-32.181 14.408-32.181 32.181s14.408 32.182 32.181 32.182c17.774 0 32.182-14.409 32.182-32.182" fill="#1d1d1b"/>
  </g>
  <g transform="matrix(.042092 0 0 -.042092 3.409 295.55)">
   <path d="m0 0c0-15.2-12.323-27.523-27.524-27.523s-27.523 12.323-27.523 27.523c0 15.201 12.322 27.524 27.523 27.524s27.524-12.323 27.524-27.524" fill="#d896c2"/>
  </g>
  <g transform="matrix(.042092 0 0 -.042092 3.0347 295.55)">
   <path d="m0 0c0-10.289-8.341-18.631-18.631-18.631s-18.632 8.342-18.632 18.631c0 10.29 8.342 18.632 18.632 18.632s18.631-8.342 18.631-18.632" fill="#fff"/>
  </g>
  <g transform="matrix(.042092 0 0 -.042092 10.85 295.55)">
   <path d="m0 0c0-17.773-14.408-32.181-32.182-32.181-17.773 0-32.181 14.408-32.181 32.181s14.408 32.182 32.181 32.182c17.774 0 32.182-14.409 32.182-32.182" fill="#1d1d1b"/>
  </g>
  <g transform="matrix(.042092 0 0 -.042092 10.653 295.55)">
   <path d="m0 0c0-15.2-12.322-27.523-27.523-27.523s-27.524 12.323-27.524 27.523c0 15.201 12.323 27.524 27.524 27.524s27.523-12.323 27.523-27.524" fill="#d896c2"/>
  </g>
  <g transform="matrix(.042092 0 0 -.042092 10.279 295.55)">
   <path d="m0 0c0-10.289-8.341-18.631-18.631-18.631s-18.632 8.342-18.632 18.631c0 10.29 8.342 18.632 18.632 18.632s18.631-8.342 18.631-18.632" fill="#fff"/>
  </g>
 </g>
</svg>
