<svg width="1500" height="1200" viewBox="0 0 396.9 317.5" xmlns="http://www.w3.org/2000/svg"><path d="M346 0s-39 19-48 25c-9 7-45 25-45 25l4-9c2-5 12-17 12-17l-11 2-32 23a332 332 0 01-28 17 33 33 0 01-2-12l-8-37s-6 8-8 15l-7 30s-6-3-8-6l-26-31-1 14 1 26-16-16c-5-5-61-41-61-41l6 30c3 11 29 73 29 73S68 99 59 93c-10-6-40-17-40-17s29 29 33 37c5 8 21 21 21 21l-24-1 35 35-24 3c-12 2-33 10-33 10a60 60 0 018 4l13 12-29-7c-6-2-19 0-19 0l19 32a569 569 0 0022 32l-31 3 14 10 19 12s-16 20-24 23a79 79 0 00-18 14s37-7 46-6h13l-23 11 350 2s-4-12-15-17c-10-5-28-12-31-15l-11-11s39 14 49 12h21s-9-20-22-25l-33-14s16-4 21-9l20-18s-49 12-55 10a108 108 0 00-14-4 485 485 0 0016-8c11-5 63-19 63-19s-4-8-19-12c-15-5-75-5-75-5l17-18c10-10 26-19 34-24s38-33 38-33-45 15-56 21-51 22-51 22l9-11c4-6 21-21 21-21l-41 6 5-20a177 177 0 0125-49 1370 1370 0 0043-61z" fill="#fdfe00"/></svg>