<?xml version="1.0" encoding="UTF-8" standalone="no"?>
<svg
   xmlns:dc="http://purl.org/dc/elements/1.1/"
   xmlns:cc="http://creativecommons.org/ns#"
   xmlns:rdf="http://www.w3.org/1999/02/22-rdf-syntax-ns#"
   xmlns:svg="http://www.w3.org/2000/svg"
   xmlns="http://www.w3.org/2000/svg"
   xmlns:sodipodi="http://sodipodi.sourceforge.net/DTD/sodipodi-0.dtd"
   xmlns:inkscape="http://www.inkscape.org/namespaces/inkscape"
   width="700"
   height="350"
   viewBox="0 0 700 350"
   version="1.1"
   id="svg8"
   inkscape:version="1.0 (4035a4fb49, 2020-05-01)"
   sodipodi:docname="party-line.svg">
  <defs
     id="defs2" />
  <sodipodi:namedview
     inkscape:pagecheckerboard="false"
     id="base"
     pagecolor="#002b36"
     bordercolor="#666666"
     borderopacity="1.0"
     inkscape:pageopacity="1"
     inkscape:pageshadow="2"
     inkscape:zoom="1.4142136"
     inkscape:cx="401.91346"
     inkscape:cy="198.86479"
     inkscape:document-units="px"
     inkscape:current-layer="layer1"
     showgrid="false"
     units="px"
     inkscape:window-width="1418"
     inkscape:window-height="912"
     inkscape:window-x="0"
     inkscape:window-y="0"
     inkscape:window-maximized="0"
     inkscape:document-rotation="0"
     inkscape:snap-global="false"
     showguides="false" />
  <metadata
     id="metadata5">
    <rdf:RDF>
      <cc:Work
         rdf:about="">
        <dc:format>image/svg+xml</dc:format>
        <dc:type
           rdf:resource="http://purl.org/dc/dcmitype/StillImage" />
        <dc:title></dc:title>
      </cc:Work>
    </rdf:RDF>
  </metadata>
  <g
     inkscape:label="Layer 1"
     inkscape:groupmode="layer"
     id="layer1">
    <path
       style="fill:none;stroke:#b58900;stroke-width:1.7904;stroke-linecap:butt;stroke-linejoin:miter;stroke-miterlimit:4;stroke-dasharray:none;stroke-opacity:1"
       d="m 374.99705,36.882345 v 4.87858"
       id="path973" />
    <path
       id="path969"
       d="m 357.07037,36.882345 v 4.87858"
       style="fill:none;stroke:#b58900;stroke-width:1.7904;stroke-linecap:butt;stroke-linejoin:miter;stroke-miterlimit:4;stroke-dasharray:none;stroke-opacity:1" />
    <path
       style="fill:none;stroke:#b58900;stroke-width:1.7904;stroke-linecap:butt;stroke-linejoin:miter;stroke-miterlimit:4;stroke-dasharray:none;stroke-opacity:1"
       d="m 392.90083,36.882345 v 4.87858"
       id="path967" />
    <path
       style="fill:none;stroke:#93a1a1;stroke-width:2;stroke-linecap:butt;stroke-linejoin:miter;stroke-miterlimit:4;stroke-dasharray:none;stroke-opacity:1"
       d="m 641.31275,334.6251 h 11.57227 c 6.43554,0 9.62304,-0.96778 9.62304,-9.62305 V 215.36623"
       id="path924"
       sodipodi:nodetypes="cssc" />
    <path
       id="path913"
       d="m 470.43959,334.6251 h 11.57227 c 6.43554,0 9.62304,-0.96778 9.62304,-9.62305 V 215.36623"
       style="fill:none;stroke:#93a1a1;stroke-width:2;stroke-linecap:butt;stroke-linejoin:miter;stroke-miterlimit:4;stroke-dasharray:none;stroke-opacity:1"
       sodipodi:nodetypes="cssc" />
    <path
       style="fill:none;stroke:#586e75;stroke-width:6;stroke-linecap:butt;stroke-linejoin:miter;stroke-miterlimit:4;stroke-dasharray:none;stroke-opacity:1"
       d="m 144.71578,284.88271 0,-74.21245"
       id="path834"
       sodipodi:nodetypes="cc" />
    <rect
       style="fill:#073642;fill-opacity:1;stroke:#586e75;stroke-width:3;stroke-linecap:round;stroke-opacity:1;stop-color:#000000"
       id="rect830"
       width="65.158897"
       height="43.0159"
       x="86.466499"
       y="297.88498"
       ry="2.1082699" />
    <path
       style="fill:#93a1a1;fill-opacity:1;stroke:none;stroke-width:1px;stroke-linecap:butt;stroke-linejoin:miter;stroke-opacity:1"
       d="m 81.710651,301.25489 v -13.42627 l 75.339659,-15.23665 v 29.13508 z"
       id="path832"
       sodipodi:nodetypes="ccccc" />
    <path
       style="fill:none;stroke:#586e75;stroke-width:3;stroke-linecap:butt;stroke-linejoin:miter;stroke-miterlimit:4;stroke-dasharray:none;stroke-opacity:1"
       d="m 122.54245,211.26457 h 43.68732"
       id="path836" />
    <path
       id="path846"
       d="m 331.48729,339.67226 0,-129.002"
       style="fill:none;stroke:#586e75;stroke-width:8;stroke-linecap:butt;stroke-linejoin:miter;stroke-miterlimit:4;stroke-dasharray:none;stroke-opacity:1"
       sodipodi:nodetypes="cc" />
    <path
       id="path848"
       d="m 309.31396,211.26457 h 43.68732"
       style="fill:none;stroke:#586e75;stroke-width:3;stroke-linecap:butt;stroke-linejoin:miter;stroke-miterlimit:4;stroke-dasharray:none;stroke-opacity:1" />
    <path
       style="fill:none;stroke:#586e75;stroke-width:8;stroke-linecap:butt;stroke-linejoin:miter;stroke-miterlimit:4;stroke-dasharray:none;stroke-opacity:1"
       d="m 501.65655,339.67226 0,-129.002"
       id="path858"
       sodipodi:nodetypes="cc" />
    <path
       style="fill:none;stroke:#586e75;stroke-width:3;stroke-linecap:butt;stroke-linejoin:miter;stroke-miterlimit:4;stroke-dasharray:none;stroke-opacity:1"
       d="m 479.48322,211.26457 h 43.68732"
       id="path860" />
    <path
       id="path870"
       d="m 672.50811,339.67226 v -129.002"
       style="fill:none;stroke:#586e75;stroke-width:8;stroke-linecap:butt;stroke-linejoin:miter;stroke-miterlimit:4;stroke-dasharray:none;stroke-opacity:1"
       sodipodi:nodetypes="cc" />
    <path
       id="path872"
       d="M 650.33478,211.26457 H 694.0221"
       style="fill:none;stroke:#586e75;stroke-width:3;stroke-linecap:butt;stroke-linejoin:miter;stroke-miterlimit:4;stroke-dasharray:none;stroke-opacity:1" />
    <path
       style="fill:none;stroke:#93a1a1;stroke-width:1px;stroke-linecap:butt;stroke-linejoin:miter;stroke-opacity:1"
       d="m 126.79823,217.92541 c 80.22016,32.75398 135.16465,19.33459 186.87111,0 50.34108,16.88359 85.22911,34.35733 169.86426,0 62.26418,20.14874 121.41394,27.87932 171.6329,0"
       id="path882"
       sodipodi:nodetypes="cccc" />
    <path
       sodipodi:nodetypes="cccc"
       id="path893"
       d="m 134.50632,217.92541 c 80.22016,32.75398 135.16465,19.33459 186.87111,0 50.34108,16.88359 85.22911,34.35733 169.86426,0 62.26418,20.14874 121.41394,27.87932 171.6329,0"
       style="fill:none;stroke:#93a1a1;stroke-width:1px;stroke-linecap:butt;stroke-linejoin:miter;stroke-opacity:1" />
    <path
       style="fill:none;stroke:#93a1a1;stroke-width:1px;stroke-linecap:butt;stroke-linejoin:miter;stroke-opacity:1"
       d="m 152.53685,217.92541 c 80.22016,32.75398 135.16465,19.33459 186.87111,0 50.34108,16.88359 85.22911,34.35733 169.86426,0 62.26418,20.14874 121.41394,27.87932 171.6329,0"
       id="path895"
       sodipodi:nodetypes="cccc" />
    <path
       sodipodi:nodetypes="cccc"
       id="path897"
       d="m 160.05538,217.92541 c 80.22016,32.75398 135.16465,19.33459 186.87111,0 50.34108,16.88359 85.22911,34.35733 169.86426,0 62.26418,20.14874 121.41394,27.87932 171.6329,0"
       style="fill:none;stroke:#93a1a1;stroke-width:1px;stroke-linecap:butt;stroke-linejoin:miter;stroke-opacity:1" />
    <path
       d="m 278.27195,314.6801 a 5.8159905,5.8159905 0 1 0 5.81873,5.81599 5.8159905,5.8159905 0 0 0 -5.81873,-5.81599 z m -3.07631,13.12498 a 1.5928972,1.5928972 0 1 0 0.8635,2.08007 1.5915287,1.5915287 0 0 0 -0.8635,-2.08007 z m 6.02126,-14.59882 a 1.5928972,1.5928972 0 1 0 -0.86351,-2.08008 1.5928972,1.5928972 0 0 0 0.86351,2.08008 z m 6.3687,9.44799 a 1.5928972,1.5928972 0 0 1 0.86498,2.08002 1.5928972,1.5928972 0 0 1 -2.08002,0.86497 1.5928972,1.5928972 0 0 1 -0.86497,-2.08001 1.5928972,1.5928972 0 0 1 2.08001,-0.86498 m -17.54295,-7.2455 a 1.5928972,1.5928972 0 0 1 0.86462,2.08016 1.5928972,1.5928972 0 0 1 -2.08017,0.86462 1.5928972,1.5928972 0 0 1 -0.86461,-2.08017 1.5928972,1.5928972 0 0 1 2.08016,-0.86461 m 5.88518,-4.25445 a 1.5928972,1.5928972 0 0 1 -0.83512,2.09218 1.5928972,1.5928972 0 0 1 -2.09218,-0.83512 1.5928972,1.5928972 0 0 1 0.83512,-2.09218 1.5928972,1.5928972 0 0 1 2.09218,0.83512 m 5.39307,16.60699 a 1.5928972,1.5928972 0 1 0 2.09239,0.83476 1.5928972,1.5928972 0 0 0 -2.09239,-0.83476 z m -10.37212,-4.13844 a 1.5928972,1.5928972 0 0 1 -0.83549,2.09203 1.5928972,1.5928972 0 0 1 -2.09203,-0.83548 1.5928972,1.5928972 0 0 1 0.83548,-2.09204 1.5928972,1.5928972 0 0 1 2.09204,0.83549 m 14.51037,-6.23319 a 1.5928972,1.5928972 0 1 0 0.83477,-2.09102 1.5928972,1.5928972 0 0 0 -0.83477,2.09102 z m -12.83537,-4.72229 a 1.5928972,1.5928972 0 0 1 4.1e-4,2.2527 1.5928972,1.5928972 0 0 1 -2.25269,4.1e-4 1.5928972,1.5928972 0 0 1 -4.1e-4,-2.2527 1.5928972,1.5928972 0 0 1 2.25269,-4.1e-4 m 13.4189,13.41589 a 1.5928972,1.5928972 0 0 1 4.1e-4,2.2527 1.5928972,1.5928972 0 0 1 -2.25269,4.1e-4 1.5928972,1.5928972 0 0 1 -4.1e-4,-2.2527 1.5928972,1.5928972 0 0 1 2.25269,-4.1e-4 m -13.41966,0.006 a 1.5928972,1.5928972 0 0 1 0,2.25269 1.5928972,1.5928972 0 0 1 -2.2527,0 1.5928972,1.5928972 0 0 1 0,-2.25269 1.5928972,1.5928972 0 0 1 2.2527,0 m 13.41953,-13.42309 a 1.5928972,1.5928972 0 0 1 4.1e-4,2.2527 1.5928972,1.5928972 0 0 1 -2.2527,4.1e-4 1.5928972,1.5928972 0 0 1 -4.1e-4,-2.2527 1.5928972,1.5928972 0 0 1 2.2527,-4.1e-4 m -15.73234,7.8398 a 1.5928972,1.5928972 0 1 0 -1.5929,1.59289 1.5928972,1.5928972 0 0 0 1.5929,-1.59289 z m 18.97791,0 a 1.5928972,1.5928972 0 0 1 -1.59289,1.59289 1.5928972,1.5928972 0 0 1 -1.5929,-1.59289 1.5928972,1.5928972 0 0 1 1.5929,-1.5929 1.5928972,1.5928972 0 0 1 1.59289,1.5929 m -9.48896,9.48759 a 1.5928972,1.5928972 0 0 1 -1.59289,1.59289 1.5928972,1.5928972 0 0 1 -1.5929,-1.59289 1.5928972,1.5928972 0 0 1 1.5929,-1.5929 1.5928972,1.5928972 0 0 1 1.59289,1.5929 m 0,-18.97655 a 1.5928972,1.5928972 0 0 1 -1.59289,1.59289 1.5928972,1.5928972 0 0 1 -1.5929,-1.59289 1.5928972,1.5928972 0 0 1 1.5929,-1.5929 1.5928972,1.5928972 0 0 1 1.59289,1.5929 m 12.5557,-7.89059 0.59255,-6.61381 h -4.04109 l -1.38078,6.61244 h -18.63717 l -1.38079,-6.61244 h -4.04245 l 0.59254,6.61381 -3.98634,4.93606 -7.02709,19.93996 v 11.01343 h 1.70785 v 0.57065 a 0.7608684,0.7608684 0 0 0 0.7595,0.7595 h 4.1793 a 0.7608684,0.7608684 0 0 0 0.7595,-0.7595 v -0.57065 h 35.51175 v 0.57065 a 0.7608684,0.7608684 0 0 0 0.76087,0.7595 h 4.17794 a 0.75949993,0.75949993 0 0 0 0.7595,-0.7595 v -0.57065 h 1.70921 v -11.01343 l -7.02708,-19.93996 z m -14.14859,28.86236 a 11.495134,11.495134 0 1 1 11.49513,-11.49513 11.495134,11.495134 0 0 1 -11.49513,11.49513 z m -18.03368,-29.10184 h -16.891 c -0.39959,3.44306 0.20801,4.15877 3.46907,4.16014 3.26106,0.001 6.51938,0 9.77907,0 2.87789,-0.005 3.84403,-1.10025 3.64286,-4.16014 z m 52.8653,-0.0246 h -16.86911 c -0.42012,3.87961 -0.14779,4.18615 3.58128,4.18615 q 5.03323,0 10.06372,0 c 2.97779,-0.004 3.87687,-1.15773 3.22411,-4.18615 z m -52.82561,-0.99077 a 11.163965,11.163965 0 0 1 0.83203,-1.6709 c 0.0766,-2.42219 1.89259,-4.36267 4.12045,-4.36267 h 26.11859 c 2.27713,0 4.1232,2.02396 4.1232,4.51594 v 0.13685 q 0.11495,0.21348 0.21485,0.44064 c 0.3558,0.82109 0.78139,1.01951 1.59974,1.01404 4.94701,-0.0315 9.89539,-0.0137 14.8424,-0.0205 0.36812,0 0.73761,-0.063 1.12762,-0.0985 0.0698,-4.53647 -1.46837,-8.08491 -5.37534,-10.5372 -4.2231,-2.64525 -8.91147,-3.62234 -13.72711,-3.69487 q -16.42162,-0.2518 -32.84324,0 a 25.486354,25.486354 0 0 0 -13.36035,3.96719 c -3.83445,2.41261 -4.8827,6.01579 -4.66374,10.31004 z"
       id="path44"
       style="stroke-width:0.136847;fill:#93a1a1" />
    <path
       style="stroke-width:0.136847;fill:#93a1a1"
       id="path905"
       d="m 448.73133,314.6801 a 5.8159905,5.8159905 0 1 0 5.81873,5.81599 5.8159905,5.8159905 0 0 0 -5.81873,-5.81599 z m -3.07631,13.12498 a 1.5928972,1.5928972 0 1 0 0.8635,2.08007 1.5915287,1.5915287 0 0 0 -0.8635,-2.08007 z m 6.02126,-14.59882 a 1.5928972,1.5928972 0 1 0 -0.86351,-2.08008 1.5928972,1.5928972 0 0 0 0.86351,2.08008 z m 6.3687,9.44799 a 1.5928972,1.5928972 0 0 1 0.86498,2.08002 1.5928972,1.5928972 0 0 1 -2.08002,0.86497 1.5928972,1.5928972 0 0 1 -0.86497,-2.08001 1.5928972,1.5928972 0 0 1 2.08001,-0.86498 m -17.54295,-7.2455 a 1.5928972,1.5928972 0 0 1 0.86462,2.08016 1.5928972,1.5928972 0 0 1 -2.08017,0.86462 1.5928972,1.5928972 0 0 1 -0.86461,-2.08017 1.5928972,1.5928972 0 0 1 2.08016,-0.86461 m 5.88518,-4.25445 a 1.5928972,1.5928972 0 0 1 -0.83512,2.09218 1.5928972,1.5928972 0 0 1 -2.09218,-0.83512 1.5928972,1.5928972 0 0 1 0.83512,-2.09218 1.5928972,1.5928972 0 0 1 2.09218,0.83512 m 5.39307,16.60699 a 1.5928972,1.5928972 0 1 0 2.09239,0.83476 1.5928972,1.5928972 0 0 0 -2.09239,-0.83476 z m -10.37212,-4.13844 a 1.5928972,1.5928972 0 0 1 -0.83549,2.09203 1.5928972,1.5928972 0 0 1 -2.09203,-0.83548 1.5928972,1.5928972 0 0 1 0.83548,-2.09204 1.5928972,1.5928972 0 0 1 2.09204,0.83549 m 14.51037,-6.23319 a 1.5928972,1.5928972 0 1 0 0.83477,-2.09102 1.5928972,1.5928972 0 0 0 -0.83477,2.09102 z m -12.83537,-4.72229 a 1.5928972,1.5928972 0 0 1 4.1e-4,2.2527 1.5928972,1.5928972 0 0 1 -2.25269,4.1e-4 1.5928972,1.5928972 0 0 1 -4.1e-4,-2.2527 1.5928972,1.5928972 0 0 1 2.25269,-4.1e-4 m 13.4189,13.41589 a 1.5928972,1.5928972 0 0 1 4.1e-4,2.2527 1.5928972,1.5928972 0 0 1 -2.25269,4.1e-4 1.5928972,1.5928972 0 0 1 -4.1e-4,-2.2527 1.5928972,1.5928972 0 0 1 2.25269,-4.1e-4 m -13.41966,0.006 a 1.5928972,1.5928972 0 0 1 0,2.25269 1.5928972,1.5928972 0 0 1 -2.2527,0 1.5928972,1.5928972 0 0 1 0,-2.25269 1.5928972,1.5928972 0 0 1 2.2527,0 m 13.41953,-13.42309 a 1.5928972,1.5928972 0 0 1 4.1e-4,2.2527 1.5928972,1.5928972 0 0 1 -2.2527,4.1e-4 1.5928972,1.5928972 0 0 1 -4.1e-4,-2.2527 1.5928972,1.5928972 0 0 1 2.2527,-4.1e-4 m -15.73234,7.8398 a 1.5928972,1.5928972 0 1 0 -1.5929,1.59289 1.5928972,1.5928972 0 0 0 1.5929,-1.59289 z m 18.97791,0 a 1.5928972,1.5928972 0 0 1 -1.59289,1.59289 1.5928972,1.5928972 0 0 1 -1.5929,-1.59289 1.5928972,1.5928972 0 0 1 1.5929,-1.5929 1.5928972,1.5928972 0 0 1 1.59289,1.5929 m -9.48896,9.48759 a 1.5928972,1.5928972 0 0 1 -1.59289,1.59289 1.5928972,1.5928972 0 0 1 -1.5929,-1.59289 1.5928972,1.5928972 0 0 1 1.5929,-1.5929 1.5928972,1.5928972 0 0 1 1.59289,1.5929 m 0,-18.97655 a 1.5928972,1.5928972 0 0 1 -1.59289,1.59289 1.5928972,1.5928972 0 0 1 -1.5929,-1.59289 1.5928972,1.5928972 0 0 1 1.5929,-1.5929 1.5928972,1.5928972 0 0 1 1.59289,1.5929 m 12.5557,-7.89059 0.59255,-6.61381 h -4.04109 l -1.38078,6.61244 h -18.63717 l -1.38079,-6.61244 h -4.04245 l 0.59254,6.61381 -3.98634,4.93606 -7.02709,19.93996 v 11.01343 h 1.70785 v 0.57065 a 0.7608684,0.7608684 0 0 0 0.7595,0.7595 h 4.1793 a 0.7608684,0.7608684 0 0 0 0.7595,-0.7595 v -0.57065 h 35.51175 v 0.57065 a 0.7608684,0.7608684 0 0 0 0.76087,0.7595 h 4.17794 a 0.75949993,0.75949993 0 0 0 0.7595,-0.7595 v -0.57065 h 1.70921 v -11.01343 l -7.02708,-19.93996 z m -14.14859,28.86236 a 11.495134,11.495134 0 1 1 11.49513,-11.49513 11.495134,11.495134 0 0 1 -11.49513,11.49513 z m -18.03368,-29.10184 h -16.891 c -0.39959,3.44306 0.20801,4.15877 3.46907,4.16014 3.26106,0.001 6.51938,0 9.77907,0 2.87789,-0.005 3.84403,-1.10025 3.64286,-4.16014 z m 52.8653,-0.0246 h -16.86911 c -0.42012,3.87961 -0.14779,4.18615 3.58128,4.18615 q 5.03323,0 10.06372,0 c 2.97779,-0.004 3.87687,-1.15773 3.22411,-4.18615 z m -52.82561,-0.99077 a 11.163965,11.163965 0 0 1 0.83203,-1.6709 c 0.0766,-2.42219 1.89259,-4.36267 4.12045,-4.36267 h 26.11859 c 2.27713,0 4.1232,2.02396 4.1232,4.51594 v 0.13685 q 0.11495,0.21348 0.21485,0.44064 c 0.3558,0.82109 0.78139,1.01951 1.59974,1.01404 4.94701,-0.0315 9.89539,-0.0137 14.8424,-0.0205 0.36812,0 0.73761,-0.063 1.12762,-0.0985 0.0698,-4.53647 -1.46837,-8.08491 -5.37534,-10.5372 -4.2231,-2.64525 -8.91147,-3.62234 -13.72711,-3.69487 q -16.42162,-0.2518 -32.84324,0 a 25.486354,25.486354 0 0 0 -13.36035,3.96719 c -3.83445,2.41261 -4.8827,6.01579 -4.66374,10.31004 z" />
    <path
       d="m 619.72688,314.6801 a 5.8159905,5.8159905 0 1 0 5.81873,5.81599 5.8159905,5.8159905 0 0 0 -5.81873,-5.81599 z m -3.07631,13.12498 a 1.5928972,1.5928972 0 1 0 0.8635,2.08007 1.5915287,1.5915287 0 0 0 -0.8635,-2.08007 z m 6.02126,-14.59882 a 1.5928972,1.5928972 0 1 0 -0.86351,-2.08008 1.5928972,1.5928972 0 0 0 0.86351,2.08008 z m 6.3687,9.44799 a 1.5928972,1.5928972 0 0 1 0.86498,2.08002 1.5928972,1.5928972 0 0 1 -2.08002,0.86497 1.5928972,1.5928972 0 0 1 -0.86497,-2.08001 1.5928972,1.5928972 0 0 1 2.08001,-0.86498 m -17.54295,-7.2455 a 1.5928972,1.5928972 0 0 1 0.86462,2.08016 1.5928972,1.5928972 0 0 1 -2.08017,0.86462 1.5928972,1.5928972 0 0 1 -0.86461,-2.08017 1.5928972,1.5928972 0 0 1 2.08016,-0.86461 m 5.88518,-4.25445 a 1.5928972,1.5928972 0 0 1 -0.83512,2.09218 1.5928972,1.5928972 0 0 1 -2.09218,-0.83512 1.5928972,1.5928972 0 0 1 0.83512,-2.09218 1.5928972,1.5928972 0 0 1 2.09218,0.83512 m 5.39307,16.60699 a 1.5928972,1.5928972 0 1 0 2.09239,0.83476 1.5928972,1.5928972 0 0 0 -2.09239,-0.83476 z m -10.37212,-4.13844 a 1.5928972,1.5928972 0 0 1 -0.83549,2.09203 1.5928972,1.5928972 0 0 1 -2.09203,-0.83548 1.5928972,1.5928972 0 0 1 0.83548,-2.09204 1.5928972,1.5928972 0 0 1 2.09204,0.83549 m 14.51037,-6.23319 a 1.5928972,1.5928972 0 1 0 0.83477,-2.09102 1.5928972,1.5928972 0 0 0 -0.83477,2.09102 z m -12.83537,-4.72229 a 1.5928972,1.5928972 0 0 1 4.1e-4,2.2527 1.5928972,1.5928972 0 0 1 -2.25269,4.1e-4 1.5928972,1.5928972 0 0 1 -4.1e-4,-2.2527 1.5928972,1.5928972 0 0 1 2.25269,-4.1e-4 m 13.4189,13.41589 a 1.5928972,1.5928972 0 0 1 4.1e-4,2.2527 1.5928972,1.5928972 0 0 1 -2.25269,4.1e-4 1.5928972,1.5928972 0 0 1 -4.1e-4,-2.2527 1.5928972,1.5928972 0 0 1 2.25269,-4.1e-4 m -13.41966,0.006 a 1.5928972,1.5928972 0 0 1 0,2.25269 1.5928972,1.5928972 0 0 1 -2.2527,0 1.5928972,1.5928972 0 0 1 0,-2.25269 1.5928972,1.5928972 0 0 1 2.2527,0 m 13.41953,-13.42309 a 1.5928972,1.5928972 0 0 1 4.1e-4,2.2527 1.5928972,1.5928972 0 0 1 -2.2527,4.1e-4 1.5928972,1.5928972 0 0 1 -4.1e-4,-2.2527 1.5928972,1.5928972 0 0 1 2.2527,-4.1e-4 m -15.73234,7.8398 a 1.5928972,1.5928972 0 1 0 -1.5929,1.59289 1.5928972,1.5928972 0 0 0 1.5929,-1.59289 z m 18.97791,0 a 1.5928972,1.5928972 0 0 1 -1.59289,1.59289 1.5928972,1.5928972 0 0 1 -1.5929,-1.59289 1.5928972,1.5928972 0 0 1 1.5929,-1.5929 1.5928972,1.5928972 0 0 1 1.59289,1.5929 m -9.48896,9.48759 a 1.5928972,1.5928972 0 0 1 -1.59289,1.59289 1.5928972,1.5928972 0 0 1 -1.5929,-1.59289 1.5928972,1.5928972 0 0 1 1.5929,-1.5929 1.5928972,1.5928972 0 0 1 1.59289,1.5929 m 0,-18.97655 a 1.5928972,1.5928972 0 0 1 -1.59289,1.59289 1.5928972,1.5928972 0 0 1 -1.5929,-1.59289 1.5928972,1.5928972 0 0 1 1.5929,-1.5929 1.5928972,1.5928972 0 0 1 1.59289,1.5929 m 12.5557,-7.89059 0.59255,-6.61381 h -4.04109 l -1.38078,6.61244 H 610.3433 l -1.38079,-6.61244 h -4.04245 l 0.59254,6.61381 -3.98634,4.93606 -7.02709,19.93996 v 11.01343 h 1.70785 v 0.57065 a 0.7608684,0.7608684 0 0 0 0.7595,0.7595 h 4.1793 a 0.7608684,0.7608684 0 0 0 0.7595,-0.7595 v -0.57065 h 35.51175 v 0.57065 a 0.7608684,0.7608684 0 0 0 0.76087,0.7595 h 4.17794 a 0.75949993,0.75949993 0 0 0 0.7595,-0.7595 v -0.57065 h 1.70921 v -11.01343 l -7.02708,-19.93996 z m -14.14859,28.86236 a 11.495134,11.495134 0 1 1 11.49513,-11.49513 11.495134,11.495134 0 0 1 -11.49513,11.49513 z m -18.03368,-29.10184 h -16.891 c -0.39959,3.44306 0.20801,4.15877 3.46907,4.16014 3.26106,0.001 6.51938,0 9.77907,0 2.87789,-0.005 3.84403,-1.10025 3.64286,-4.16014 z m 52.8653,-0.0246 h -16.86911 c -0.42012,3.87961 -0.14779,4.18615 3.58128,4.18615 q 5.03323,0 10.06372,0 c 2.97779,-0.004 3.87687,-1.15773 3.22411,-4.18615 z m -52.82561,-0.99077 a 11.163965,11.163965 0 0 1 0.83203,-1.6709 c 0.0766,-2.42219 1.89259,-4.36267 4.12045,-4.36267 h 26.11859 c 2.27713,0 4.1232,2.02396 4.1232,4.51594 v 0.13685 q 0.11495,0.21348 0.21485,0.44064 c 0.3558,0.82109 0.78139,1.01951 1.59974,1.01404 4.94701,-0.0315 9.89539,-0.0137 14.8424,-0.0205 0.36812,0 0.73761,-0.063 1.12762,-0.0985 0.0698,-4.53647 -1.46837,-8.08491 -5.37534,-10.5372 -4.2231,-2.64525 -8.91147,-3.62234 -13.72711,-3.69487 q -16.42162,-0.2518 -32.84324,0 a 25.486354,25.486354 0 0 0 -13.36035,3.96719 c -3.83445,2.41261 -4.8827,6.01579 -4.66374,10.31004 z"
       id="path907"
       style="stroke-width:0.136847;fill:#93a1a1" />
    <path
       style="fill:none;stroke:#93a1a1;stroke-width:2;stroke-linecap:butt;stroke-linejoin:miter;stroke-miterlimit:4;stroke-dasharray:none;stroke-opacity:1"
       d="m 300.32265,334.6251 h 11.57227 c 6.43554,0 9.62304,-0.96778 9.62304,-9.62305 V 215.36623"
       id="path911"
       sodipodi:nodetypes="cssc" />
    <text
       xml:space="preserve"
       style="font-style:normal;font-variant:normal;font-weight:normal;font-stretch:normal;font-size:20px;line-height:1.25;font-family:roboto;-inkscape-font-specification:roboto;letter-spacing:0px;word-spacing:0px;fill:#93a1a1;fill-opacity:1;stroke:none;stroke-width:0.549197;"
       x="8.362957"
       y="232.21123"
       id="text928"><tspan
         sodipodi:role="line"
         id="tspan926"
         x="8.362957"
         y="232.21123"
         style="font-size:20px;stroke-width:0.549197;fill:#93a1a1;">Party Line</tspan></text>
    <text
       id="text932"
       y="255.51463"
       x="8.90275"
       style="font-style:normal;font-variant:normal;font-weight:normal;font-stretch:normal;font-size:10.6667px;line-height:1.25;font-family:roboto;-inkscape-font-specification:roboto;letter-spacing:0px;word-spacing:0px;fill:#93a1a1;fill-opacity:1;stroke:none;stroke-width:0.248791;"
       xml:space="preserve"><tspan
         style="font-size:10.6667px;stroke-width:0.248791;fill:#93a1a1;"
         y="255.51463"
         x="8.90275"
         id="tspan930"
         sodipodi:role="line">circa mid-20th century</tspan></text>
    <text
       xml:space="preserve"
       style="font-style:normal;font-variant:normal;font-weight:normal;font-stretch:normal;font-size:13.3333px;line-height:1.25;font-family:roboto;-inkscape-font-specification:roboto;letter-spacing:0px;word-spacing:0px;fill:#93a1a1;fill-opacity:1;stroke:none;stroke-width:0.304408;"
       x="90.104713"
       y="319.10635"
       id="text936"><tspan
         sodipodi:role="line"
         id="tspan934"
         x="90.104713"
         y="319.10635"
         style="font-style:normal;font-variant:normal;font-weight:normal;font-stretch:normal;font-size:13.3333px;font-family:roboto;-inkscape-font-specification:roboto;fill:#93a1a1;fill-opacity:1;stroke-width:0.304408;">Exchange</tspan></text>
    <text
       id="text960"
       y="29.195791"
       x="8.362957"
       style="font-style:normal;font-variant:normal;font-weight:normal;font-stretch:normal;font-size:20px;line-height:1.25;font-family:roboto;-inkscape-font-specification:roboto;letter-spacing:0px;word-spacing:0px;fill:#93a1a1;fill-opacity:1;stroke:none;stroke-width:0.549197;"
       xml:space="preserve"><tspan
         style="font-size:20px;stroke-width:0.549197;fill:#93a1a1;"
         y="29.195791"
         x="8.362957"
         id="tspan958"
         sodipodi:role="line">Phone Party</tspan></text>
    <rect
       style="fill:#586e75;fill-opacity:1;stroke:none;stroke-width:2;stroke-linecap:round;stroke-miterlimit:4;stroke-dasharray:none;stroke-opacity:1;stop-color:#000000"
       id="rect962"
       width="58.669544"
       height="15.088273"
       x="345.67511"
       y="41.024097"
       ry="4.6187057" />
    <path
       id="rect964"
       style="fill:#657b83;fill-opacity:1;stroke:none;stroke-width:1.43232;stroke-linecap:round;stroke-miterlimit:4;stroke-dasharray:none;stroke-opacity:1;stop-color:#000000"
       d="m 401.83444,19.858965 2.18883,1.26373 -9.49217,17.66143 -3.24583,-1.87398 z"
       sodipodi:nodetypes="ccccc" />
    <path
       sodipodi:nodetypes="ccccc"
       d="m 348.13677,19.858965 -2.18883,1.26373 9.49217,17.66143 3.24582,-1.87398 z"
       style="fill:#657b83;fill-opacity:1;stroke:none;stroke-width:1.43232;stroke-linecap:round;stroke-miterlimit:4;stroke-dasharray:none;stroke-opacity:1;stop-color:#000000"
       id="path971" />
    <path
       id="path975"
       style="fill:#657b83;fill-opacity:1;stroke:none;stroke-width:1.43232;stroke-linecap:round;stroke-miterlimit:4;stroke-dasharray:none;stroke-opacity:1;stop-color:#000000"
       d="m 376.40814,17.471405 -2.52744,-10e-6 -0.61026,20.04134 h 3.74795 z"
       sodipodi:nodetypes="ccccc" />
    <path
       style="fill:none;stroke:#859900;stroke-width:2;stroke-linecap:butt;stroke-linejoin:miter;stroke-opacity:1;stroke-miterlimit:4;stroke-dasharray:none"
       d="m 351.27278,44.649085 v 3.65772"
       id="path977" />
    <path
       id="path979"
       d="m 356.83594,44.649085 v 3.65772"
       style="fill:none;stroke:#859900;stroke-width:2;stroke-linecap:butt;stroke-linejoin:miter;stroke-miterlimit:4;stroke-dasharray:none;stroke-opacity:1" />
    <path
       style="fill:none;stroke:#859900;stroke-width:2;stroke-linecap:butt;stroke-linejoin:miter;stroke-miterlimit:4;stroke-dasharray:none;stroke-opacity:1"
       d="m 362.39907,44.649085 v 3.65772"
       id="path981" />
    <path
       id="path983"
       d="m 367.96226,44.649085 v 3.65772"
       style="fill:none;stroke:#859900;stroke-width:2;stroke-linecap:butt;stroke-linejoin:miter;stroke-miterlimit:4;stroke-dasharray:none;stroke-opacity:1" />
    <rect
       style="fill:#586e75;fill-opacity:1;stroke:none;stroke-width:2.25839;stroke-linecap:round;stroke-miterlimit:4;stroke-dasharray:none;stroke-opacity:1;stop-color:#000000"
       id="rect985"
       width="93.365067"
       height="47.371204"
       x="146.97491"
       y="24.384758"
       ry="4.172338" />
    <path
       style="fill:none;stroke:#000000;stroke-width:7.22685;stroke-linecap:butt;stroke-linejoin:miter;stroke-miterlimit:4;stroke-dasharray:none;stroke-opacity:1"
       d="m 193.91634,71.744129 v 5.347974"
       id="path987"
       sodipodi:nodetypes="cc" />
    <rect
       style="fill:#1d1d1d;fill-opacity:1;stroke:none;stroke-width:7.22685;stroke-linecap:round;stroke-miterlimit:4;stroke-dasharray:none;stroke-opacity:1;stop-color:#000000"
       id="rect989"
       width="19.290947"
       height="1.7796952"
       x="184.79065"
       y="77.414291"
       ry="0.88984758" />
    <rect
       style="fill:#073642;fill-opacity:1;stroke:none;stroke-width:7.22685;stroke-linecap:round;stroke-miterlimit:4;stroke-dasharray:none;stroke-opacity:1;stop-color:#000000"
       id="rect991"
       width="87.196762"
       height="42.375237"
       x="149.82756"
       y="27.072187" />
    <text
       xml:space="preserve"
       style="font-style:normal;font-variant:normal;font-weight:normal;font-stretch:normal;font-size:18.6667px;line-height:1.25;font-family:roboto;-inkscape-font-specification:roboto;letter-spacing:0px;word-spacing:0px;fill:#93a1a1;fill-opacity:1;stroke:none;stroke-width:0.719028;"
       x="173.35869"
       y="54.382191"
       id="text997"><tspan
         sodipodi:role="line"
         id="tspan995"
         x="173.35869"
         y="54.382191"
         style="font-style:normal;font-variant:normal;font-weight:normal;font-stretch:normal;font-size:18.6667px;font-family:roboto;-inkscape-font-specification:roboto;stroke-width:0.719028;fill:#93a1a1;">Host</tspan></text>
    <circle
       style="fill:#d1d1d1;fill-opacity:1;stroke:none;stroke-width:13.0065;stroke-linecap:round;stroke-miterlimit:4;stroke-dasharray:none;stroke-opacity:1;stop-color:#000000"
       id="path1007"
       cx="286.92847"
       cy="166.86452"
       r="2.7534754" />
    <rect
       ry="5.2640324"
       y="102.07407"
       x="358.91602"
       height="69.820938"
       width="37.302731"
       id="rect1025"
       style="fill:#586e75;fill-opacity:1;stroke:none;stroke-width:13.0065;stroke-linecap:round;stroke-miterlimit:4;stroke-dasharray:none;stroke-opacity:1;stop-color:#000000" />
    <rect
       y="107.19157"
       x="361.52838"
       height="55.864155"
       width="31.962067"
       id="rect1027"
       style="fill:#073642;fill-opacity:1;stroke:none;stroke-width:13.0065;stroke-linecap:round;stroke-miterlimit:4;stroke-dasharray:none;stroke-opacity:1;stop-color:#000000" />
    <circle
       r="2.7534754"
       cy="167.66481"
       cx="377.48123"
       id="circle1029"
       style="fill:#073642;fill-opacity:1;stroke:none;stroke-width:13.0065;stroke-linecap:round;stroke-miterlimit:4;stroke-dasharray:none;stroke-opacity:1;stop-color:#000000" />
    <path
       id="path1031"
       d="m 373.3778,104.80384 h 9.11081"
       style="fill:#073642;stroke:#073642;stroke-width:1.13807;stroke-linecap:round;stroke-linejoin:miter;stroke-miterlimit:4;stroke-dasharray:none;stroke-opacity:1" />
    <path
       style="fill:none;stroke:#d9d9d9;stroke-width:4;stroke-linecap:butt;stroke-linejoin:miter;stroke-miterlimit:4;stroke-dasharray:none;stroke-opacity:0.45875"
       d="m 296.00754,96.835355 13.36391,13.363915"
       id="path1053"
       sodipodi:nodetypes="cc" />
    <path
       id="path1055"
       d="m 300.53123,92.311664 13.36391,13.363916"
       style="fill:none;stroke:#d9d9d9;stroke-width:4;stroke-linecap:butt;stroke-linejoin:miter;stroke-miterlimit:4;stroke-dasharray:none;stroke-opacity:1"
       sodipodi:nodetypes="cc" />
    <path
       id="path1059"
       d="m 304.92786,87.93195 13.36391,13.36392"
       style="fill:none;stroke:#d9d9d9;stroke-width:4;stroke-linecap:butt;stroke-linejoin:miter;stroke-miterlimit:4;stroke-dasharray:none;stroke-opacity:1"
       sodipodi:nodetypes="cc" />
    <path
       style="fill:none;stroke:#d9d9d9;stroke-width:4;stroke-linecap:butt;stroke-linejoin:miter;stroke-miterlimit:4;stroke-dasharray:none;stroke-opacity:1"
       d="m 309.45154,83.408262 13.36392,13.363915"
       id="path1061"
       sodipodi:nodetypes="cc" />
    <path
       id="path1063"
       d="M 314.16513,78.694674 327.52905,92.05859"
       style="fill:none;stroke:#d9d9d9;stroke-width:4;stroke-linecap:butt;stroke-linejoin:miter;stroke-miterlimit:4;stroke-dasharray:none;stroke-opacity:1"
       sodipodi:nodetypes="cc" />
    <path
       style="fill:none;stroke:#d9d9d9;stroke-width:4;stroke-linecap:butt;stroke-linejoin:miter;stroke-miterlimit:4;stroke-dasharray:none;stroke-opacity:1"
       d="M 318.99748,73.862321 332.3614,87.226236"
       id="path1065"
       sodipodi:nodetypes="cc" />
    <path
       id="path1067"
       d="m 323.52117,69.338633 13.36392,13.363916"
       style="fill:none;stroke:#d9d9d9;stroke-width:4;stroke-linecap:butt;stroke-linejoin:miter;stroke-miterlimit:4;stroke-dasharray:none;stroke-opacity:1"
       sodipodi:nodetypes="cc" />
    <path
       style="fill:none;stroke:#d9d9d9;stroke-width:4;stroke-linecap:butt;stroke-linejoin:miter;stroke-miterlimit:4;stroke-dasharray:none;stroke-opacity:1"
       d="M 328.42259,64.437217 341.7865,77.801132"
       id="path1069"
       sodipodi:nodetypes="cc" />
    <path
       id="path1071"
       d="m 333.25494,59.604863 13.36392,13.363915"
       style="fill:none;stroke:#d9d9d9;stroke-width:4;stroke-linecap:butt;stroke-linejoin:miter;stroke-miterlimit:4;stroke-dasharray:none;stroke-opacity:0.483688"
       sodipodi:nodetypes="cc" />
    <path
       style="fill:none;stroke:#d9d9d9;stroke-width:4;stroke-linecap:butt;stroke-linejoin:miter;stroke-miterlimit:4;stroke-dasharray:none;stroke-opacity:0.195713"
       d="m 337.77863,55.081176 13.36391,13.363915"
       id="path1073"
       sodipodi:nodetypes="cc" />
    <path
       sodipodi:nodetypes="cc"
       id="path1077"
       d="M 367.29167,97.114638 H 386.1911"
       style="fill:none;stroke:#d9d9d9;stroke-width:4;stroke-linecap:butt;stroke-linejoin:miter;stroke-miterlimit:4;stroke-dasharray:none;stroke-opacity:0.2415" />
    <path
       sodipodi:nodetypes="cc"
       style="fill:none;stroke:#d9d9d9;stroke-width:4;stroke-linecap:butt;stroke-linejoin:miter;stroke-miterlimit:4;stroke-dasharray:none;stroke-opacity:0.496941"
       d="M 367.29167,90.717188 H 386.1911"
       id="path1079" />
    <path
       sodipodi:nodetypes="cc"
       id="path1081"
       d="M 367.29167,83.641008 H 386.1911"
       style="fill:none;stroke:#d9d9d9;stroke-width:4;stroke-linecap:butt;stroke-linejoin:miter;stroke-miterlimit:4;stroke-dasharray:none;stroke-opacity:1" />
    <path
       sodipodi:nodetypes="cc"
       id="path1105"
       d="M 367.29167,77.304443 H 386.1911"
       style="fill:none;stroke:#d9d9d9;stroke-width:4;stroke-linecap:butt;stroke-linejoin:miter;stroke-miterlimit:4;stroke-dasharray:none;stroke-opacity:1" />
    <path
       sodipodi:nodetypes="cc"
       style="fill:none;stroke:#d9d9d9;stroke-width:4;stroke-linecap:butt;stroke-linejoin:miter;stroke-miterlimit:4;stroke-dasharray:none;stroke-opacity:0.496941"
       d="M 367.29167,70.470458 H 386.1911"
       id="path1107" />
    <path
       sodipodi:nodetypes="cc"
       id="path1109"
       d="M 367.29167,64.072998 H 386.1911"
       style="fill:none;stroke:#d9d9d9;stroke-width:4;stroke-linecap:butt;stroke-linejoin:miter;stroke-miterlimit:4;stroke-dasharray:none;stroke-opacity:0.195324" />
    <rect
       style="fill:#586e75;fill-opacity:1;stroke:none;stroke-width:13.0065;stroke-linecap:round;stroke-miterlimit:4;stroke-dasharray:none;stroke-opacity:1;stop-color:#000000"
       id="rect1003"
       width="37.302731"
       height="69.820938"
       x="268.36325"
       y="101.27377"
       ry="5.2640324" />
    <rect
       style="fill:#073642;fill-opacity:1;stroke:none;stroke-width:13.0065;stroke-linecap:round;stroke-miterlimit:4;stroke-dasharray:none;stroke-opacity:1;stop-color:#000000"
       id="rect1005"
       width="31.962067"
       height="55.864155"
       x="270.97562"
       y="106.39127" />
    <path
       style="fill:#073642;stroke:#073642;stroke-width:1.13807;stroke-linecap:round;stroke-linejoin:miter;stroke-miterlimit:4;stroke-dasharray:none;stroke-opacity:1"
       d="m 282.82498,104.00355 h 9.11081"
       id="path1009" />
    <path
       sodipodi:nodetypes="cc"
       style="fill:none;stroke:#d9d9d9;stroke-width:4;stroke-linecap:butt;stroke-linejoin:miter;stroke-miterlimit:4;stroke-dasharray:none;stroke-opacity:0.215623"
       d="m 460.43887,101.90042 -13.36391,13.36392"
       id="path1153" />
    <path
       sodipodi:nodetypes="cc"
       id="path1155"
       d="M 455.50155,96.835355 442.13764,110.19927"
       style="fill:none;stroke:#d9d9d9;stroke-width:4;stroke-linecap:butt;stroke-linejoin:miter;stroke-miterlimit:4;stroke-dasharray:none;stroke-opacity:0.45875" />
    <path
       sodipodi:nodetypes="cc"
       style="fill:none;stroke:#d9d9d9;stroke-width:4;stroke-linecap:butt;stroke-linejoin:miter;stroke-miterlimit:4;stroke-dasharray:none;stroke-opacity:1"
       d="M 450.97786,92.311664 437.61395,105.67558"
       id="path1157" />
    <path
       sodipodi:nodetypes="cc"
       style="fill:none;stroke:#d9d9d9;stroke-width:4;stroke-linecap:butt;stroke-linejoin:miter;stroke-miterlimit:4;stroke-dasharray:none;stroke-opacity:1"
       d="m 446.58123,87.93195 -13.36391,13.36392"
       id="path1159" />
    <path
       sodipodi:nodetypes="cc"
       id="path1161"
       d="M 442.05755,83.408262 428.69363,96.772177"
       style="fill:none;stroke:#d9d9d9;stroke-width:4;stroke-linecap:butt;stroke-linejoin:miter;stroke-miterlimit:4;stroke-dasharray:none;stroke-opacity:1" />
    <path
       sodipodi:nodetypes="cc"
       style="fill:none;stroke:#d9d9d9;stroke-width:4;stroke-linecap:butt;stroke-linejoin:miter;stroke-miterlimit:4;stroke-dasharray:none;stroke-opacity:1"
       d="M 437.34396,78.694674 423.98004,92.05859"
       id="path1163" />
    <path
       sodipodi:nodetypes="cc"
       id="path1165"
       d="M 432.51161,73.862321 419.14769,87.226236"
       style="fill:none;stroke:#d9d9d9;stroke-width:4;stroke-linecap:butt;stroke-linejoin:miter;stroke-miterlimit:4;stroke-dasharray:none;stroke-opacity:1" />
    <path
       sodipodi:nodetypes="cc"
       style="fill:none;stroke:#d9d9d9;stroke-width:4;stroke-linecap:butt;stroke-linejoin:miter;stroke-miterlimit:4;stroke-dasharray:none;stroke-opacity:1"
       d="M 427.98792,69.338633 414.624,82.702549"
       id="path1167" />
    <path
       sodipodi:nodetypes="cc"
       id="path1169"
       d="M 423.0865,64.437217 409.72259,77.801132"
       style="fill:none;stroke:#d9d9d9;stroke-width:4;stroke-linecap:butt;stroke-linejoin:miter;stroke-miterlimit:4;stroke-dasharray:none;stroke-opacity:1" />
    <path
       sodipodi:nodetypes="cc"
       style="fill:none;stroke:#d9d9d9;stroke-width:4;stroke-linecap:butt;stroke-linejoin:miter;stroke-miterlimit:4;stroke-dasharray:none;stroke-opacity:0.483688"
       d="M 418.25415,59.604863 404.89023,72.968778"
       id="path1171" />
    <path
       sodipodi:nodetypes="cc"
       id="path1173"
       d="M 413.73046,55.081176 400.36655,68.445091"
       style="fill:none;stroke:#d9d9d9;stroke-width:4;stroke-linecap:butt;stroke-linejoin:miter;stroke-miterlimit:4;stroke-dasharray:none;stroke-opacity:0.195713" />
    <rect
       style="fill:#586e75;fill-opacity:1;stroke:none;stroke-width:13.0065;stroke-linecap:round;stroke-miterlimit:4;stroke-dasharray:none;stroke-opacity:1;stop-color:#000000"
       id="rect1033"
       width="37.302731"
       height="69.820938"
       x="441.5379"
       y="102.37483"
       ry="5.2640324" />
    <rect
       style="fill:#073642;fill-opacity:1;stroke:none;stroke-width:13.0065;stroke-linecap:round;stroke-miterlimit:4;stroke-dasharray:none;stroke-opacity:1;stop-color:#000000"
       id="rect1035"
       width="31.962067"
       height="55.864155"
       x="444.15027"
       y="107.49233" />
    <circle
       style="fill:#073642;fill-opacity:1;stroke:none;stroke-width:13.0065;stroke-linecap:round;stroke-miterlimit:4;stroke-dasharray:none;stroke-opacity:1;stop-color:#000000"
       id="circle1037"
       cx="460.10309"
       cy="167.96558"
       r="2.7534754" />
    <path
       style="fill:#073642;stroke:#073642;stroke-width:1.13807;stroke-linecap:round;stroke-linejoin:miter;stroke-miterlimit:4;stroke-dasharray:none;stroke-opacity:1"
       d="m 455.99965,105.1046 h 9.11081"
       id="path1039" />
    <path
       sodipodi:nodetypes="cc"
       style="fill:none;stroke:#d9d9d9;stroke-width:4;stroke-linecap:butt;stroke-linejoin:miter;stroke-miterlimit:4;stroke-dasharray:none;stroke-opacity:0.215623"
       d="m 254.3455,38.168478 v 18.89943"
       id="path1175" />
    <path
       sodipodi:nodetypes="cc"
       id="path1177"
       d="M 261.41826,38.078149 V 56.977575"
       style="fill:none;stroke:#d9d9d9;stroke-width:4;stroke-linecap:butt;stroke-linejoin:miter;stroke-miterlimit:4;stroke-dasharray:none;stroke-opacity:0.45875" />
    <path
       sodipodi:nodetypes="cc"
       style="fill:none;stroke:#d9d9d9;stroke-width:4;stroke-linecap:butt;stroke-linejoin:miter;stroke-miterlimit:4;stroke-dasharray:none;stroke-opacity:1"
       d="M 267.81572,38.078149 V 56.977575"
       id="path1179" />
    <path
       sodipodi:nodetypes="cc"
       style="fill:none;stroke:#d9d9d9;stroke-width:4;stroke-linecap:butt;stroke-linejoin:miter;stroke-miterlimit:4;stroke-dasharray:none;stroke-opacity:1"
       d="m 274.02154,38.09011 -1e-5,18.899429"
       id="path1181" />
    <path
       sodipodi:nodetypes="cc"
       id="path1183"
       d="M 280.41899,38.090104 V 56.989538"
       style="fill:none;stroke:#d9d9d9;stroke-width:4;stroke-linecap:butt;stroke-linejoin:miter;stroke-miterlimit:4;stroke-dasharray:none;stroke-opacity:1" />
    <path
       sodipodi:nodetypes="cc"
       style="fill:none;stroke:#d9d9d9;stroke-width:4;stroke-linecap:butt;stroke-linejoin:miter;stroke-miterlimit:4;stroke-dasharray:none;stroke-opacity:1"
       d="M 287.08501,38.090106 V 56.98954"
       id="path1185" />
    <path
       sodipodi:nodetypes="cc"
       id="path1187"
       d="M 293.91899,38.090104 V 56.989537"
       style="fill:none;stroke:#d9d9d9;stroke-width:4;stroke-linecap:butt;stroke-linejoin:miter;stroke-miterlimit:4;stroke-dasharray:none;stroke-opacity:1" />
    <path
       sodipodi:nodetypes="cc"
       style="fill:none;stroke:#d9d9d9;stroke-width:4;stroke-linecap:butt;stroke-linejoin:miter;stroke-miterlimit:4;stroke-dasharray:none;stroke-opacity:1"
       d="M 300.31645,38.090105 V 56.989539"
       id="path1189" />
    <path
       sodipodi:nodetypes="cc"
       id="path1191"
       d="M 307.2481,38.090108 V 56.989534"
       style="fill:none;stroke:#d9d9d9;stroke-width:4;stroke-linecap:butt;stroke-linejoin:miter;stroke-miterlimit:4;stroke-dasharray:none;stroke-opacity:1" />
    <path
       sodipodi:nodetypes="cc"
       style="fill:none;stroke:#d9d9d9;stroke-width:4;stroke-linecap:butt;stroke-linejoin:miter;stroke-miterlimit:4;stroke-dasharray:none;stroke-opacity:0.483688"
       d="M 314.08208,38.090105 V 56.989539"
       id="path1193" />
    <path
       sodipodi:nodetypes="cc"
       id="path1195"
       d="M 320.47954,38.090108 V 56.989534"
       style="fill:none;stroke:#d9d9d9;stroke-width:4;stroke-linecap:butt;stroke-linejoin:miter;stroke-miterlimit:4;stroke-dasharray:none;stroke-opacity:0.195713" />
    <circle
       style="fill:#073642;fill-opacity:1;stroke:none;stroke-width:13.0065;stroke-linecap:round;stroke-miterlimit:4;stroke-dasharray:none;stroke-opacity:1;stop-color:#000000"
       id="circle943"
       cx="287.11279"
       cy="167.66481"
       r="2.7534754" />
    <rect
       y="214.21542"
       x="312.41797"
       height="3.7529297"
       width="2.7495117"
       id="rect850"
       style="fill:#eee8d5;fill-opacity:1;stroke:none;stroke-width:3;stroke-linecap:round;stroke-miterlimit:4;stroke-dasharray:none;stroke-opacity:1;stop-color:#000000" />
    <rect
       style="fill:#eee8d5;fill-opacity:1;stroke:none;stroke-width:3;stroke-linecap:round;stroke-miterlimit:4;stroke-dasharray:none;stroke-opacity:1;stop-color:#000000"
       id="rect852"
       width="2.7495117"
       height="3.7529297"
       x="320.15576"
       y="214.21542" />
    <rect
       y="214.21542"
       x="338.2793"
       height="3.7529297"
       width="2.7495117"
       id="rect854"
       style="fill:#eee8d5;fill-opacity:1;stroke:none;stroke-width:3;stroke-linecap:round;stroke-miterlimit:4;stroke-dasharray:none;stroke-opacity:1;stop-color:#000000" />
    <rect
       style="fill:#eee8d5;fill-opacity:1;stroke:none;stroke-width:3;stroke-linecap:round;stroke-miterlimit:4;stroke-dasharray:none;stroke-opacity:1;stop-color:#000000"
       id="rect856"
       width="2.7495117"
       height="3.7529297"
       x="345.78955"
       y="214.21542" />
    <rect
       style="fill:#eee8d5;fill-opacity:1;stroke:none;stroke-width:3;stroke-linecap:round;stroke-miterlimit:4;stroke-dasharray:none;stroke-opacity:1;stop-color:#000000"
       id="rect838"
       width="2.7495117"
       height="3.7529297"
       x="125.64645"
       y="214.21542" />
    <rect
       y="214.21542"
       x="133.38423"
       height="3.7529297"
       width="2.7495117"
       id="rect840"
       style="fill:#eee8d5;fill-opacity:1;stroke:none;stroke-width:3;stroke-linecap:round;stroke-miterlimit:4;stroke-dasharray:none;stroke-opacity:1;stop-color:#000000" />
    <rect
       style="fill:#eee8d5;fill-opacity:1;stroke:none;stroke-width:3;stroke-linecap:round;stroke-miterlimit:4;stroke-dasharray:none;stroke-opacity:1;stop-color:#000000"
       id="rect842"
       width="2.7495117"
       height="3.7529297"
       x="151.50777"
       y="214.21542" />
    <rect
       y="214.21542"
       x="159.01802"
       height="3.7529297"
       width="2.7495117"
       id="rect844"
       style="fill:#eee8d5;fill-opacity:1;stroke:none;stroke-width:3;stroke-linecap:round;stroke-miterlimit:4;stroke-dasharray:none;stroke-opacity:1;stop-color:#000000" />
    <rect
       style="fill:#eee8d5;fill-opacity:1;stroke:none;stroke-width:3;stroke-linecap:round;stroke-miterlimit:4;stroke-dasharray:none;stroke-opacity:1;stop-color:#000000"
       id="rect862"
       width="2.7495117"
       height="3.7529297"
       x="482.58722"
       y="214.21542" />
    <rect
       y="214.21542"
       x="490.32501"
       height="3.7529297"
       width="2.7495117"
       id="rect864"
       style="fill:#eee8d5;fill-opacity:1;stroke:none;stroke-width:3;stroke-linecap:round;stroke-miterlimit:4;stroke-dasharray:none;stroke-opacity:1;stop-color:#000000" />
    <rect
       style="fill:#eee8d5;fill-opacity:1;stroke:none;stroke-width:3;stroke-linecap:round;stroke-miterlimit:4;stroke-dasharray:none;stroke-opacity:1;stop-color:#000000"
       id="rect866"
       width="2.7495117"
       height="3.7529297"
       x="508.44852"
       y="214.21542" />
    <rect
       y="214.21542"
       x="515.95874"
       height="3.7529297"
       width="2.7495117"
       id="rect868"
       style="fill:#eee8d5;fill-opacity:1;stroke:none;stroke-width:3;stroke-linecap:round;stroke-miterlimit:4;stroke-dasharray:none;stroke-opacity:1;stop-color:#000000" />
    <rect
       y="214.21542"
       x="653.43872"
       height="3.7529297"
       width="2.7495117"
       id="rect874"
       style="fill:#eee8d5;fill-opacity:1;stroke:none;stroke-width:3;stroke-linecap:round;stroke-miterlimit:4;stroke-dasharray:none;stroke-opacity:1;stop-color:#000000" />
    <rect
       style="fill:#eee8d5;fill-opacity:1;stroke:none;stroke-width:3;stroke-linecap:round;stroke-miterlimit:4;stroke-dasharray:none;stroke-opacity:1;stop-color:#000000"
       id="rect876"
       width="2.7495117"
       height="3.7529297"
       x="661.17651"
       y="214.21542" />
    <rect
       y="214.21542"
       x="679.30005"
       height="3.7529297"
       width="2.7495117"
       id="rect878"
       style="fill:#eee8d5;fill-opacity:1;stroke:none;stroke-width:3;stroke-linecap:round;stroke-miterlimit:4;stroke-dasharray:none;stroke-opacity:1;stop-color:#000000" />
    <rect
       style="fill:#eee8d5;fill-opacity:1;stroke:none;stroke-width:3;stroke-linecap:round;stroke-miterlimit:4;stroke-dasharray:none;stroke-opacity:1;stop-color:#000000"
       id="rect880"
       width="2.7495117"
       height="3.7529297"
       x="686.8103"
       y="214.21542" />
  </g>
</svg>
